<?xml version="1.0" standalone="no"?>
<!DOCTYPE svg PUBLIC "-//W3C//DTD SVG 1.1//EN" "http://www.w3.org/Graphics/SVG/1.1/DTD/svg11.dtd" >
<svg xmlns="http://www.w3.org/2000/svg" version="1.1">
<metadata>
This is a custom SVG webfont generated by Typotheque.
</metadata>
<defs>
<font id="typotheque_webfonts_service" horiz-adv-x="581" >
<font-face units-per-em="1000" ascent="780" descent="-220" />
<missing-glyph horiz-adv-x="259" />
<glyph unicode=" "  horiz-adv-x="259" />
<glyph unicode="&#x09;" horiz-adv-x="259" />
<glyph unicode="&#xa0;" horiz-adv-x="259" />
<glyph unicode="A" horiz-adv-x="698" d="M687 44q0 -7 -1 -21.5t-3 -22.5h-274q-2 11 -3 22t-1 22l71 21q14 4 22 18.5t8 31.5q0 7 -1 13t-3 12l-48 146h-248l-62 -156q-3 -8 -3 -16q0 -17 12.5 -31.5t37.5 -22.5l55 -16q0 -7 -1 -21.5t-3 -22.5h-239q-2 11 -3 22.5t-1 21.5q48 35 67 80l248 583l85 11l212 -583 q8 -22 30 -48t46 -43zM367 558l-21 78h-7l-25 -76l-82 -209h201z" />
<glyph unicode="B" horiz-adv-x="676" d="M630 201q0 -44 -14 -81t-45 -63.5t-80.5 -41.5t-119.5 -15h-330q-2 11 -3 24.5t0 23.5l68 18q17 5 27.5 21.5t11.5 37.5l3 148v329q0 12 -6 23.5t-18 16.5l-75 26q-1 6 0 17.5t5 21.5h286q239 0 239 -174q0 -59 -29.5 -98t-79.5 -57v-3q21 -3 48.5 -12.5t52.5 -29 t42 -51.5t17 -81zM475 521q0 43 -13 67.5t-35.5 37t-51.5 16t-60 3.5h-77v-249h89q43 0 71.5 8t45.5 23.5t24 39t7 54.5zM527 198q0 43 -14 69t-41.5 40.5t-67 19.5t-90.5 5h-76v-61l4 -205h110q38 0 70 5t55.5 19.5t36.5 40.5t13 67z" />
<glyph unicode="C" horiz-adv-x="661" d="M616 19q-14 -5 -61.5 -16t-140.5 -11q-175 0 -270 85.5t-95 270.5q0 79 24 146.5t70 117t113 78t154 28.5q46 0 77.5 -4t53.5 -9.5t37 -12t29 -12.5v-151h-46q-9 27 -21.5 49t-30.5 38t-43 25t-60 9q-56 0 -103 -16.5t-82 -52t-54.5 -90.5t-19.5 -133q0 -77 21.5 -131.5 t60 -89.5t90.5 -51.5t113 -16.5q71 0 108 6.5t55 10.5l21 -67v0z" />
<glyph unicode="D" horiz-adv-x="786" d="M736 371q0 -92 -28.5 -161.5t-80 -116t-124.5 -70t-161 -23.5h-300q-2 11 -3.5 24.5t-0.5 23.5l68 18q20 5 29.5 24t9.5 44l2 140l1 332q0 12 -6 22t-18 14l-74 24q-1 6 -0.5 18.5t4.5 22.5h282q85 0 158.5 -13.5t127 -50t84 -102t30.5 -170.5zM626 353q0 76 -19 130 t-56 89t-92 51.5t-126 16.5h-94v-367l6 -207h108q69 0 120.5 15.5t85 50t50.5 89t17 132.5z" />
<glyph unicode="E" horiz-adv-x="642" d="M585 0h-543q-2 11 -3.5 25t-0.5 24l68 18q19 5 29 21t10 37l3 149v328q0 12 -5.5 23.5t-18.5 16.5l-75 26q0 3 -0.5 7.5t0.5 9.5t2 11t3 11h508v-160q-14 -2 -29 -1.5t-23 0.5q-8 45 -24.5 67t-54.5 23l-192 6v-254l271 5v-76l-271 5v-49l5 -207l187 3q28 0 49 10t37 25 t26 33t16 35l45 -7z" />
<glyph unicode="F" horiz-adv-x="593" d="M559 540q-4 -1 -11 -1.5t-14 -0.5t-13.5 0.5t-9.5 2.5q-5 18 -10.5 33.5t-15 27.5t-25.5 19.5t-40 9.5l-185 11v-274l282 9v-80l-282 5v-30l3 -160q2 -30 30 -36l106 -21v-10.5t-1 -16t-2 -16.5t-2 -12h-320q-2 11 -3.5 22.5t-0.5 21.5l58 18q18 5 28.5 23.5t10.5 39.5 l3 148v329q0 12 -5.5 23.5t-18.5 16.5l-75 26q-1 6 0 17.5t5 21.5h508v-167v0z" />
<glyph unicode="G" horiz-adv-x="714" d="M414 -8q-175 0 -270 85.5t-95 270.5q0 79 24 146.5t70 117t113 78t154 28.5q93 0 150.5 -14.5t86.5 -30.5v-151h-46q-9 27 -25 50t-39.5 40.5t-56 27.5t-74.5 10q-56 0 -103 -16.5t-82 -52t-54.5 -90.5t-19.5 -133q0 -77 21.5 -131.5t60 -89.5t90.5 -51.5t113 -16.5 q12 0 29.5 1t35.5 3t33.5 4.5t24.5 4.5v214h91l1 -273q-22 -8 -52 -14t-62.5 -10t-63.5 -5.5t-55 -1.5z" />
<glyph unicode="H" horiz-adv-x="858" d="M823 53v-10.5t-1 -15.5t-2 -15.5t-2 -11.5h-286q-2 11 -3.5 24.5t-0.5 23.5l42 12q32 9 42.5 30.5t11.5 62.5l2 120v49h-390v-49l4 -160q1 -18 5.5 -26t16.5 -11l96 -26v-10t-1 -14.5t-2 -14.5t-2 -11h-306q-2 11 -3.5 22.5t-0.5 21.5l58 21q41 16 43 80l2 128v308 q0 21 -6.5 40t-23.5 24l-73 21q0 7 1 20t3 21h272q2 -11 3.5 -23t0.5 -22l-56 -13q-20 -5 -25.5 -13.5t-5.5 -27.5v-220h390v183q0 62 -41 77l-49 18q-1 8 -1 20.5t2 20.5h262v-23.5t-2 -21.5l-52 -12q-16 -5 -22.5 -12t-6.5 -27v-338l4 -161q0 -36 19 -40l84 -19v0z" />
<glyph unicode="I" horiz-adv-x="379" d="M344 50v-10t-1 -14.5t-2 -14.5t-2 -11h-283q-2 11 -3.5 22.5t-0.5 21.5l53 21q37 14 38 69l2 139v300q0 24 -9.5 45.5t-40.5 32.5l-40 15q-2 7 -1.5 20t2.5 21h262q5 -23 3 -45l-41 -9q-24 -5 -34 -25t-10 -52v-303l3 -170q0 -19 6 -26t22 -10l77 -17v0z" />
<glyph unicode="J" horiz-adv-x="353" d="M266 651q-23 -5 -30.5 -13.5t-7.5 -30.5v-520q0 -56 -14.5 -97t-41.5 -72.5t-64.5 -56.5t-82.5 -48l-34 59q39 24 67 50t45 58.5t25 72.5t8 93v431q0 32 -12 49t-36 25l-44 15q0 7 1 20t4 21h262q2 -11 3 -22.5t0 -21.5z" />
<glyph unicode="K" horiz-adv-x="719" d="M41 0q-2 11 -3.5 22.5t-0.5 21.5l66 23q20 7 28.5 25.5t9.5 41.5l2 139v310q0 18 -7 37t-23 25l-60 21q-2 7 -1.5 20t2.5 21h262q2 -11 3.5 -20t0.5 -19l-50 -19q-36 -14 -36 -71v-297l2 -173q0 -19 5 -26t16 -10l65 -21v-10t-1 -14.5l-2 -15t-2 -11.5h-276zM717 -22 q-54 2 -100.5 18t-75.5 47l-281 298v43l224 204q11 10 15.5 19t4.5 17q0 19 -17 24l-48 15q0 7 0.5 21.5t3.5 22.5h234v-44l-327 -275l243 -253q30 -32 67 -60.5t68 -39.5z" />
<glyph unicode="L" horiz-adv-x="579" d="M550 0h-506q-2 11 -3.5 24.5t-0.5 23.5l64 18q18 5 27.5 21.5t9.5 36.5l3 148v311q0 18 -7 37.5t-23 24.5l-63 21q0 7 1 20t3 21h262q2 -11 3.5 -22.5t0.5 -21.5l-48 -12q-20 -5 -29 -10.5t-9 -28.5v-339l5 -204l164 4q48 2 77.5 30.5t43.5 68.5l45 -7z" />
<glyph unicode="M" horiz-adv-x="1025" d="M933 707q2 -11 3.5 -20t0.5 -19l-49 -17q-18 -6 -29.5 -26t-6.5 -53l62 -454q2 -17 12.5 -31t23.5 -19l45 -22q0 -7 -1 -22.5t-3 -23.5h-257q-2 11 -3 22.5t-1 21.5l44 13q23 7 31 26.5t8 45.5q0 18 -3 38l-40 334l-3 53h-5l-224 -554l-66 -12l-215 573h-6l-1 -51 l-63 -401q-5 -28 11 -32l94 -30q0 -7 -0.5 -23t-3.5 -24h-259q-2 11 -3.5 22.5t-0.5 21.5l36 18q21 11 35 33t18 45l75 449q3 17 -6 34t-23 22l-63 21q0 7 1 20t3 21h197l161 -415l51 -150h9l54 155l172 410h188z" />
<glyph unicode="N" horiz-adv-x="832" d="M743 651q-19 -5 -30 -24t-11 -45v-582l-73 -12l-417 602h-7l9 -80v-237l3 -160q0 -18 3.5 -25t20.5 -13l85 -29q0 -7 -1 -22.5t-4 -23.5h-281q-2 11 -3.5 22.5t-0.5 21.5l58 18q46 13 48 84l2 127v321q0 17 -7.5 31.5t-21.5 19.5l-61 21v20t2 21h202l377 -543h7l-10 105 v312q0 31 -10.5 44.5t-26.5 19.5l-63 21q0 7 0.5 20t3.5 21h262q2 -11 3 -20t1 -19z" />
<glyph unicode="O" horiz-adv-x="804" d="M756 380q0 -82 -25 -153.5t-71.5 -124.5t-113.5 -83.5t-152 -30.5q-82 0 -146.5 23t-108.5 66.5t-67.5 107t-23.5 144.5q0 84 26.5 155.5t74.5 123t115.5 81t148.5 29.5q85 0 149.5 -23.5t107.5 -67.5t64.5 -106.5t21.5 -140.5zM646 364q0 63 -13.5 115t-42.5 89.5 t-75 58.5t-111 21q-68 0 -115 -24t-76 -65t-42 -96t-13 -117q0 -60 12.5 -112t40.5 -91t74 -61t112 -22q70 0 118 24t77 65.5t41.5 96.5t12.5 118z" />
<glyph unicode="P" horiz-adv-x="632" d="M603 492q0 -47 -16.5 -87.5t-51 -70.5t-87.5 -47t-125 -17h-19v62l25 1q41 1 73.5 9.5t55 26.5t34.5 47t12 71q0 70 -35.5 110.5t-119.5 42.5l-113 2v-369l2 -154q0 -18 4.5 -29t18.5 -14l102 -27v-9.5t-1 -14t-2 -14.5t-2 -11h-309q-2 11 -3.5 22.5t-0.5 21.5l58 18 q17 5 27.5 19.5t11.5 42.5l3 149v329q0 12 -5.5 23.5t-18.5 16.5l-75 26q-1 6 0 17.5t5 21.5h324q105 0 166.5 -52t61.5 -163z" />
<glyph unicode="Q" horiz-adv-x="804" d="M726 -184q-58 0 -119 46l-168 129q-23 -3 -45 -3q-82 0 -146.5 23t-108.5 66.5t-67.5 107t-23.5 144.5q0 84 26.5 155.5t74.5 123t115.5 81t148.5 29.5q85 0 149.5 -23.5t107.5 -67.5t64.5 -106.5t21.5 -140.5q0 -65 -15.5 -123t-45 -106t-72 -84.5t-97.5 -56.5l117 -77 q52 -35 111 -35q5 0 11.5 0.5t17.5 2t29 5t47 9.5l12 -49q-53 -29 -89 -39.5t-56 -10.5zM397 60q70 0 118 24t77 65.5t41.5 96.5t12.5 118t-13.5 115t-42.5 89.5t-75 58.5t-111 21q-68 0 -115 -24t-76 -65t-42 -96t-13 -117q0 -60 12.5 -112t40.5 -91t74 -61t112 -22z" />
<glyph unicode="R" horiz-adv-x="739" d="M741 -12q-6 0 -13.5 0.5t-15.5 1.5q-21 3 -47 8t-54 15.5t-55 26.5t-49 40q-23 24 -45 55.5t-41.5 63t-35 59.5t-24.5 45q-8 -2 -25 -2.5t-27 -0.5h-75l4 -202q0 -24 17 -27l81 -19v-10t-0.5 -15t-1.5 -15.5t-2 -11.5h-276q-2 11 -3 22.5t0 21.5l48 18q22 8 30.5 23 t9.5 40l3 148v340q0 9 -6.5 17t-16.5 12l-75 26q-1 6 0 17.5t5 21.5h302q53 0 97.5 -10t76.5 -33t50 -60.5t18 -91.5q0 -30 -8.5 -59.5t-25 -55t-40.5 -44.5t-56 -29q9 -15 23.5 -37.5t31.5 -47.5t36 -50t37 -43q25 -25 45 -42t38.5 -29t36.5 -19.5t39 -13.5zM492 507 q0 72 -45.5 102.5t-118.5 30.5l-94 2v-276h93q165 0 165 141z" />
<glyph unicode="S" horiz-adv-x="577" d="M528 191q0 -54 -23.5 -92.5t-61.5 -62.5t-86.5 -35.5t-97.5 -11.5q-53 0 -110 11t-105 32l8 167h53q9 -71 56 -109t128 -38q61 0 101.5 30t40.5 96q0 29 -15 49.5t-39.5 36t-56 28t-65.5 25.5t-67 29.5t-59 40t-42 55t-16 75.5q0 46 19.5 83t52 63t74.5 40t87 14 q59 0 112.5 -8t88.5 -26v-157h-42q-6 28 -20.5 51t-35.5 39.5t-47 26t-54 9.5q-68 0 -107 -26t-39 -77q0 -25 11.5 -44.5t31 -35t46.5 -28.5t58 -25q39 -16 78.5 -34t71 -43.5t51.5 -61t20 -86.5z" />
<glyph unicode="T" horiz-adv-x="664" d="M644 542q-10 -3 -21 -3.5t-24 0.5q-9 47 -30.5 73.5t-63.5 26.5h-128v-366l5 -170q0 -17 3.5 -25t17.5 -11l95 -18v-9.5t-0.5 -14t-1.5 -14.5t-2 -11h-322q-2 11 -3.5 25t-0.5 24l74 19q9 2 16 9.5t12.5 17t9 21t3.5 21.5l3 136v366h-137q-37 0 -56 -28t-27 -72 q-8 -2 -22 -1t-24 4v165h624v-165z" />
<glyph unicode="U" horiz-adv-x="784" d="M704 648q-10 -4 -18.5 -10.5t-8.5 -29.5v-341q0 -78 -26 -131.5t-66.5 -86.5t-90 -47.5t-96.5 -14.5q-51 0 -101.5 11t-90 39t-64 77t-24.5 126v353q0 17 -7.5 32t-21.5 20l-63 21q0 7 1 20t3 21h269q2 -11 2.5 -23.5t-0.5 -22.5l-57 -12q-15 -3 -20.5 -10.5t-5.5 -21.5 v-370q0 -54 16.5 -90.5t43 -59t59.5 -32t66 -9.5q41 0 75 11t58 36.5t37.5 66.5t13.5 101v314q0 24 -10.5 41t-45.5 27l-43 13q0 7 -0.5 20t1.5 21h262q2 -11 2.5 -22t0.5 -21z" />
<glyph unicode="V" horiz-adv-x="686" d="M94 579q-2 6 -5 14.5t-7 17.5t-9.5 17t-12.5 12l-56 30q0 7 1 18t3 19h261q2 -11 3.5 -24t0.5 -23l-51 -11q-14 -2 -22.5 -8t-8.5 -20q0 -8 3 -18l153 -484l173 441q3 7 3 17.5v17.5q-2 16 -8 31t-17 20l-47 22q0 7 1 19t3 20h242q2 -11 2.5 -20t-0.5 -19l-40 -18 q-18 -8 -31.5 -30.5t-22.5 -45.5l-236 -575l-67 -11z" />
<glyph unicode="W" horiz-adv-x="1063" d="M1071 707q2 -11 3 -20t0 -19l-39 -18q-17 -8 -30.5 -27t-21.5 -42l-198 -581l-70 -12l-170 448l-207 -436l-65 -12l-191 608q-4 13 -10.5 26t-17.5 18l-56 30q0 7 1 18t3 19h256q2 -10 3.5 -19.5t0.5 -20.5l-51 -18q-14 -5 -20 -19.5t-4 -32.5q1 -5 1.5 -9.5t2.5 -9.5 l132 -463l190 404l-29 93q-3 9 -9 16.5t-13 11.5l-56 30q0 7 0.5 18t2.5 19h259q6 -18 4 -40l-51 -18q-13 -5 -19 -16.5t-6 -26.5t4 -27l156 -466l145 463q4 12 4 28q0 12 -3.5 22t-13.5 15l-58 27q0 7 1 19t4 20h236z" />
<glyph unicode="X" horiz-adv-x="697" d="M687 44q0 -7 -0.5 -21.5t-3.5 -22.5h-255q-2 11 -3 22.5t0 21.5l42 23q14 8 13.5 21.5t-11.5 30.5l-128 184l-137 -177q-9 -12 -9 -28q0 -9 3.5 -16.5t10.5 -10.5l58 -27q0 -7 -0.5 -21.5t-3.5 -22.5h-254q-2 11 -3 22.5t0 21.5l38 18q26 12 46.5 33.5t39.5 44.5l172 220 l-165 219q-20 27 -48 47t-54 36q-3 5 -3.5 21t1.5 24h245q2 -11 3 -23t0 -22l-41 -18q-10 -4 -11.5 -17.5t10.5 -30.5l115 -168l125 162q11 13 10.5 29.5t-11.5 21.5l-44 22v21.5t2 22.5h235q2 -11 1 -22.5t-2 -21.5q-15 -4 -32 -11.5t-33 -18t-30.5 -22.5t-23.5 -25 l-159 -213l184 -238q13 -17 24 -29t23 -22t27.5 -19.5t36.5 -20.5z" />
<glyph unicode="Y" horiz-adv-x="646" d="M649 707q3 -20 3 -39q-24 -10 -43 -22t-35 -38l-205 -324l3 -162q0 -17 7.5 -33t21.5 -20l84 -23q0 -7 -1 -22.5t-3 -23.5h-309q-2 11 -3.5 25.5t-0.5 24.5l70 18q18 5 27.5 20.5t9.5 36.5l3 159l-195 310q-21 32 -41 47t-37 29v18t2 19h241q4 -20 4 -40l-51 -19 q-15 -6 -15 -27q0 -19 13 -42l135 -229l144 235q8 11 6 24q-2 22 -19 32l-56 27v19.5t3 19.5h237z" />
<glyph unicode="Z" horiz-adv-x="618" d="M563 0h-513l-17 57l398 586l-240 -4q-36 -5 -55.5 -30t-27.5 -69q-11 -2 -24 0q-6 1 -11.5 1t-10.5 2v164h488l12 -44l-404 -591l253 4q27 1 48.5 10.5t37 24t25.5 32t15 34.5l45 -7z" />
<glyph unicode="&#xc1;" horiz-adv-x="698" d="M0 0zM276 786q33 12 60.5 23t53.5 23.5t52 27.5t57 34l38 -75q-52 -27 -114.5 -46t-131.5 -33zM687 44q0 -7 -1 -21.5t-3 -22.5h-274q-2 11 -3 22t-1 22l71 21q14 4 22 18.5t8 31.5q0 7 -1 13t-3 12l-48 146h-248l-62 -156q-3 -8 -3 -16q0 -17 12.5 -31.5t37.5 -22.5 l55 -16q0 -7 -1 -21.5t-3 -22.5h-239q-2 11 -3 22.5t-1 21.5q48 35 67 80l248 583l85 11l212 -583q8 -22 30 -48t46 -43zM367 558l-21 78h-7l-25 -76l-82 -209h201z" />
<glyph unicode="&#xc2;" horiz-adv-x="698" d="M0 0zM192 778q28 19 50.5 36.5t43 35t39 37t39.5 42.5q33 -40 75 -76t85 -66l-38 -47q-75 37 -133 84q-25 -18 -55.5 -39t-75.5 -45zM687 44q0 -7 -1 -21.5t-3 -22.5h-274q-2 11 -3 22t-1 22l71 21q14 4 22 18.5t8 31.5q0 7 -1 13t-3 12l-48 146h-248l-62 -156 q-3 -8 -3 -16q0 -17 12.5 -31.5t37.5 -22.5l55 -16q0 -7 -1 -21.5t-3 -22.5h-239q-2 11 -3 22.5t-1 21.5q48 35 67 80l248 583l85 11l212 -583q8 -22 30 -48t46 -43zM367 558l-21 78h-7l-25 -76l-82 -209h201z" />
<glyph unicode="&#xc4;" horiz-adv-x="698" d="M0 0zM246 741q-5 0 -15 8t-20.5 18.5t-18.5 20.5t-8 15t8 15.5t18.5 21t20.5 18t15 7.5t15.5 -8t21 -18.5t18.5 -20.5t8 -15q0 -4 -7.5 -14t-18 -20.5t-21 -19t-16.5 -8.5zM474 741q-5 0 -15 8t-20.5 18.5t-18.5 20.5t-8 15t8 15.5t18.5 21t20.5 18t15 7.5t15.5 -8 t21 -18.5t18.5 -20.5t8 -15q0 -4 -7.5 -14t-18 -20.5t-21 -19t-16.5 -8.5zM687 44q0 -7 -1 -21.5t-3 -22.5h-274q-2 11 -3 22t-1 22l71 21q14 4 22 18.5t8 31.5q0 7 -1 13t-3 12l-48 146h-248l-62 -156q-3 -8 -3 -16q0 -17 12.5 -31.5t37.5 -22.5l55 -16q0 -7 -1 -21.5 t-3 -22.5h-239q-2 11 -3 22.5t-1 21.5q48 35 67 80l248 583l85 11l212 -583q8 -22 30 -48t46 -43zM367 558l-21 78h-7l-25 -76l-82 -209h201z" />
<glyph unicode="&#xc5;" horiz-adv-x="698" d="M0 0zM687 44q0 -7 -1 -21.5t-3 -22.5h-274q-2 11 -3 22t-1 22l71 21q14 4 22 18.5t8 31.5q0 7 -1 13t-3 12l-48 146h-248l-62 -156q-3 -8 -3 -16q0 -17 12.5 -31.5t37.5 -22.5l55 -16q0 -7 -1 -21.5t-3 -22.5h-239q-2 11 -3 22.5t-1 21.5q48 35 67 80l248 583l85 11 l212 -583q8 -22 30 -48t46 -43zM367 558l-21 78h-7l-25 -76l-82 -209h201zM475 847q0 -25 -11 -43.5t-28 -31t-37.5 -19t-39.5 -6.5q-10 0 -30.5 2.5t-40.5 12.5t-35.5 30.5t-15.5 55.5q0 27 10 47t26.5 32.5t38 19t43.5 6.5q19 0 40 -4.5t39 -16.5t29.5 -32.5t11.5 -52.5z M413 849q0 26 -17 42.5t-41 16.5q-27 0 -41.5 -15t-14.5 -42q0 -26 16.5 -43t41.5 -17q27 0 41.5 15.5t14.5 42.5z" />
<glyph unicode="&#xc0;" horiz-adv-x="698" d="M0 0zM413 740q-69 14 -131.5 33t-114.5 46l38 75q31 -19 57.5 -34t52 -27.5t53 -23.5t60.5 -23l-15 -46v0zM687 44q0 -7 -1 -21.5t-3 -22.5h-274q-2 11 -3 22t-1 22l71 21q14 4 22 18.5t8 31.5q0 7 -1 13t-3 12l-48 146h-248l-62 -156q-3 -8 -3 -16q0 -17 12.5 -31.5 t37.5 -22.5l55 -16q0 -7 -1 -21.5t-3 -22.5h-239q-2 11 -3 22.5t-1 21.5q48 35 67 80l248 583l85 11l212 -583q8 -22 30 -48t46 -43zM367 558l-21 78h-7l-25 -76l-82 -209h201z" />
<glyph unicode="&#xc3;" horiz-adv-x="698" d="M0 0zM425 757q-15 0 -38.5 6.5t-48 15t-46.5 15t-34 6.5q-23 0 -41.5 -6t-36.5 -20l-27 33q7 8 17.5 19t24.5 21.5t32.5 17.5t41.5 7q18 0 44 -7t52 -15t48 -15t32 -7q16 0 28.5 3t21.5 7q11 4 19 11l27 -33q-8 -8 -18.5 -18t-25 -19t-32.5 -15.5t-40 -6.5zM687 44 q0 -7 -1 -21.5t-3 -22.5h-274q-2 11 -3 22t-1 22l71 21q14 4 22 18.5t8 31.5q0 7 -1 13t-3 12l-48 146h-248l-62 -156q-3 -8 -3 -16q0 -17 12.5 -31.5t37.5 -22.5l55 -16q0 -7 -1 -21.5t-3 -22.5h-239q-2 11 -3 22.5t-1 21.5q48 35 67 80l248 583l85 11l212 -583 q8 -22 30 -48t46 -43zM367 558l-21 78h-7l-25 -76l-82 -209h201z" />
<glyph unicode="&#x1fa;" horiz-adv-x="698" d="M0 0zM687 44q0 -7 -1 -21.5t-3 -22.5h-274q-2 11 -3 22t-1 22l71 21q14 4 22 18.5t8 31.5q0 7 -1 13t-3 12l-48 146h-248l-62 -156q-3 -8 -3 -16q0 -17 12.5 -31.5t37.5 -22.5l55 -16q0 -7 -1 -21.5t-3 -22.5h-239q-2 11 -3 22.5t-1 21.5q48 35 67 80l248 583l85 11 l212 -583q8 -22 30 -48t46 -43zM367 558l-21 78h-7l-25 -76l-82 -209h201zM470 780q0 -25 -11 -43.5t-28 -31t-37.5 -19t-39.5 -6.5q-10 0 -30.5 2.5t-40.5 12.5t-35.5 30.5t-15.5 55.5q0 27 10 47t26.5 32.5t38 19t43.5 6.5q19 0 40 -4.5t39 -16.5t29.5 -32.5t11.5 -52.5z M408 782q0 26 -17 42.5t-41 16.5q-27 0 -41.5 -15t-14.5 -42q0 -26 16.5 -43t41.5 -17q27 0 41.5 15.5t14.5 42.5zM231 937q33 12 60.5 23t53.5 23.5t52 27.5t57 34l38 -75q-52 -27 -114.5 -46t-131.5 -33z" />
<glyph unicode="&#xc7;" horiz-adv-x="661" d="M49 0zM616 19q-14 -5 -61.5 -16t-140.5 -11q-175 0 -270 85.5t-95 270.5q0 79 24 146.5t70 117t113 78t154 28.5q46 0 77.5 -4t53.5 -9.5t37 -12t29 -12.5v-151h-46q-9 27 -21.5 49t-30.5 38t-43 25t-60 9q-56 0 -103 -16.5t-82 -52t-54.5 -90.5t-19.5 -133 q0 -77 21.5 -131.5t60 -89.5t90.5 -51.5t113 -16.5q71 0 108 6.5t55 10.5l21 -67v0zM515 -168q0 -22 -11.5 -43.5t-30.5 -38.5t-44 -27.5t-51 -10.5q-25 0 -49 7t-47 23l35 62q20 -13 44.5 -20.5t46.5 -7.5q20 0 32.5 7.5t12.5 22.5q0 16 -11 27.5t-30 19t-43.5 13 t-52.5 10.5l54 128h63l-41 -74q62 -14 92.5 -34.5t30.5 -63.5z" />
<glyph unicode="&#x106;" horiz-adv-x="661" d="M49 0zM293 786q33 12 60.5 23t53.5 23.5t52 27.5t57 34l38 -75q-52 -27 -114.5 -46t-131.5 -33zM616 19q-14 -5 -61.5 -16t-140.5 -11q-175 0 -270 85.5t-95 270.5q0 79 24 146.5t70 117t113 78t154 28.5q46 0 77.5 -4t53.5 -9.5t37 -12t29 -12.5v-151h-46 q-9 27 -21.5 49t-30.5 38t-43 25t-60 9q-56 0 -103 -16.5t-82 -52t-54.5 -90.5t-19.5 -133q0 -77 21.5 -131.5t60 -89.5t90.5 -51.5t113 -16.5q71 0 108 6.5t55 10.5l21 -67v0z" />
<glyph unicode="&#x10c;" horiz-adv-x="661" d="M49 0zM561 888q-28 -19 -50.5 -36.5t-43 -35t-39 -37t-39.5 -42.5q-33 40 -75 76t-85 66l38 47q75 -37 133 -84q25 18 55.5 39t75.5 45zM616 19q-14 -5 -61.5 -16t-140.5 -11q-175 0 -270 85.5t-95 270.5q0 79 24 146.5t70 117t113 78t154 28.5q46 0 77.5 -4t53.5 -9.5 t37 -12t29 -12.5v-151h-46q-9 27 -21.5 49t-30.5 38t-43 25t-60 9q-56 0 -103 -16.5t-82 -52t-54.5 -90.5t-19.5 -133q0 -77 21.5 -131.5t60 -89.5t90.5 -51.5t113 -16.5q71 0 108 6.5t55 10.5l21 -67v0z" />
<glyph unicode="&#x110;" horiz-adv-x="784" d="M734 371q0 -92 -28.5 -161.5t-80 -116t-124.5 -70t-161 -23.5h-300q-2 11 -3.5 24.5t-0.5 23.5l68 18q20 5 29.5 24t9.5 44l2 140v48h-107v66h107l1 218q0 12 -6 22t-18 14l-74 24q-1 6 -0.5 18.5t4.5 22.5h282q85 0 158.5 -13.5t127 -50t84 -102t30.5 -170.5zM624 353 q0 76 -19 130t-56 89t-92 51.5t-126 16.5h-94v-252h191v-66h-191v-49l6 -207h108q69 0 120.5 15.5t85 50t50.5 89t17 132.5z" />
<glyph unicode="&#xc9;" horiz-adv-x="642" d="M37 0zM585 0h-543q-2 11 -3.5 25t-0.5 24l68 18q19 5 29 21t10 37l3 149v328q0 12 -5.5 23.5t-18.5 16.5l-75 26q0 3 -0.5 7.5t0.5 9.5t2 11t3 11h508v-160q-14 -2 -29 -1.5t-23 0.5q-8 45 -24.5 67t-54.5 23l-192 6v-254l271 5v-76l-271 5v-49l5 -207l187 3q28 0 49 10 t37 25t26 33t16 35l45 -7zM235 786q33 12 60.5 23t53.5 23.5t52 27.5t57 34l38 -75q-52 -27 -114.5 -46t-131.5 -33z" />
<glyph unicode="&#xca;" horiz-adv-x="642" d="M37 0zM173 778q28 19 50.5 36.5t43 35t39 37t39.5 42.5q33 -40 75 -76t85 -66l-38 -47q-75 37 -133 84q-25 -18 -55.5 -39t-75.5 -45zM585 0h-543q-2 11 -3.5 25t-0.5 24l68 18q19 5 29 21t10 37l3 149v328q0 12 -5.5 23.5t-18.5 16.5l-75 26q0 3 -0.5 7.5t0.5 9.5t2 11 t3 11h508v-160q-14 -2 -29 -1.5t-23 0.5q-8 45 -24.5 67t-54.5 23l-192 6v-254l271 5v-76l-271 5v-49l5 -207l187 3q28 0 49 10t37 25t26 33t16 35l45 -7z" />
<glyph unicode="&#xcb;" horiz-adv-x="642" d="M37 0zM217 741q-5 0 -15 8t-20.5 18.5t-18.5 20.5t-8 15t8 15.5t18.5 21t20.5 18t15 7.5t15.5 -8t21 -18.5t18.5 -20.5t8 -15q0 -4 -7.5 -14t-18 -20.5t-21 -19t-16.5 -8.5zM445 741q-5 0 -15 8t-20.5 18.5t-18.5 20.5t-8 15t8 15.5t18.5 21t20.5 18t15 7.5t15.5 -8 t21 -18.5t18.5 -20.5t8 -15q0 -4 -7.5 -14t-18 -20.5t-21 -19t-16.5 -8.5zM585 0h-543q-2 11 -3.5 25t-0.5 24l68 18q19 5 29 21t10 37l3 149v328q0 12 -5.5 23.5t-18.5 16.5l-75 26q0 3 -0.5 7.5t0.5 9.5t2 11t3 11h508v-160q-14 -2 -29 -1.5t-23 0.5q-8 45 -24.5 67 t-54.5 23l-192 6v-254l271 5v-76l-271 5v-49l5 -207l187 3q28 0 49 10t37 25t26 33t16 35l45 -7z" />
<glyph unicode="&#xc8;" horiz-adv-x="642" d="M37 0zM404 740q-69 14 -131.5 33t-114.5 46l38 75q31 -19 57.5 -34t52 -27.5t53 -23.5t60.5 -23l-15 -46v0zM585 0h-543q-2 11 -3.5 25t-0.5 24l68 18q19 5 29 21t10 37l3 149v328q0 12 -5.5 23.5t-18.5 16.5l-75 26q0 3 -0.5 7.5t0.5 9.5t2 11t3 11h508v-160 q-14 -2 -29 -1.5t-23 0.5q-8 45 -24.5 67t-54.5 23l-192 6v-254l271 5v-76l-271 5v-49l5 -207l187 3q28 0 49 10t37 25t26 33t16 35l45 -7z" />
<glyph unicode="&#xcd;" horiz-adv-x="379" d="M51 0zM95 786q33 12 60.5 23t53.5 23.5t52 27.5t57 34l38 -75q-52 -27 -114.5 -46t-131.5 -33zM344 50v-10t-1 -14.5t-2 -14.5t-2 -11h-283q-2 11 -3.5 22.5t-0.5 21.5l53 21q37 14 38 69l2 139v300q0 24 -9.5 45.5t-40.5 32.5l-40 15q-2 7 -1.5 20t2.5 21h262 q5 -23 3 -45l-41 -9q-24 -5 -34 -25t-10 -52v-303l3 -170q0 -19 6 -26t22 -10l77 -17v0z" />
<glyph unicode="&#xce;" horiz-adv-x="379" d="M28 0zM28 778q28 19 50.5 36.5t43 35t39 37t39.5 42.5q33 -40 75 -76t85 -66l-38 -47q-75 37 -133 84q-25 -18 -55.5 -39t-75.5 -45zM344 50v-10t-1 -14.5t-2 -14.5t-2 -11h-283q-2 11 -3.5 22.5t-0.5 21.5l53 21q37 14 38 69l2 139v300q0 24 -9.5 45.5t-40.5 32.5 l-40 15q-2 7 -1.5 20t2.5 21h262q5 -23 3 -45l-41 -9q-24 -5 -34 -25t-10 -52v-303l3 -170q0 -19 6 -26t22 -10l77 -17v0z" />
<glyph unicode="&#xcf;" horiz-adv-x="379" d="M17 0zM344 50v-10t-1 -14.5t-2 -14.5t-2 -11h-283q-2 11 -3.5 22.5t-0.5 21.5l53 21q37 14 38 69l2 139v300q0 24 -9.5 45.5t-40.5 32.5l-40 15q-2 7 -1.5 20t2.5 21h262q5 -23 3 -45l-41 -9q-24 -5 -34 -25t-10 -52v-303l3 -170q0 -19 6 -26t22 -10l77 -17v0zM79 741 q-5 0 -15 8t-20.5 18.5t-18.5 20.5t-8 15t8 15.5t18.5 21t20.5 18t15 7.5t15.5 -8t21 -18.5t18.5 -20.5t8 -15q0 -4 -7.5 -14t-18 -20.5t-21 -19t-16.5 -8.5zM307 741q-5 0 -15 8t-20.5 18.5t-18.5 20.5t-8 15t8 15.5t18.5 21t20.5 18t15 7.5t15.5 -8t21 -18.5t18.5 -20.5 t8 -15q0 -4 -7.5 -14t-18 -20.5t-21 -19t-16.5 -8.5z" />
<glyph unicode="&#xcc;" horiz-adv-x="379" d="M12 0zM258 740q-69 14 -131.5 33t-114.5 46l38 75q31 -19 57.5 -34t52 -27.5t53 -23.5t60.5 -23l-15 -46v0zM344 50v-10t-1 -14.5t-2 -14.5t-2 -11h-283q-2 11 -3.5 22.5t-0.5 21.5l53 21q37 14 38 69l2 139v300q0 24 -9.5 45.5t-40.5 32.5l-40 15q-2 7 -1.5 20t2.5 21 h262q5 -23 3 -45l-41 -9q-24 -5 -34 -25t-10 -52v-303l3 -170q0 -19 6 -26t22 -10l77 -17v0z" />
<glyph unicode="&#x13f;" horiz-adv-x="579" d="M39 0zM515 335q-6 0 -18.5 9.5t-25 22.5t-22 25t-9.5 18t9.5 18.5t22.5 24.5t25.5 21.5t17.5 9.5t17.5 -9.5t25 -22t22 -24.5t9.5 -18q0 -5 -9 -17t-21.5 -25t-25 -23t-18.5 -10zM550 0h-506q-2 11 -3.5 24.5t-0.5 23.5l64 18q18 5 27.5 21.5t9.5 36.5l3 148v311 q0 18 -7 37.5t-23 24.5l-63 21q0 7 1 20t3 21h262q2 -11 3.5 -22.5t0.5 -21.5l-48 -12q-20 -5 -29 -10.5t-9 -28.5v-339l5 -204l164 4q48 2 77.5 30.5t43.5 68.5l45 -7z" />
<glyph unicode="&#xd1;" horiz-adv-x="832" d="M35 0zM496 757q-15 0 -38.5 6.5t-48 15t-46.5 15t-34 6.5q-23 0 -41.5 -6t-36.5 -20l-27 33q7 8 17.5 19t24.5 21.5t32.5 17.5t41.5 7q18 0 44 -7t52 -15t48 -15t32 -7q16 0 28.5 3t21.5 7q11 4 19 11l27 -33q-8 -8 -18.5 -18t-25 -19t-32.5 -15.5t-40 -6.5zM743 651 q-19 -5 -30 -24t-11 -45v-582l-73 -12l-417 602h-7l9 -80v-237l3 -160q0 -18 3.5 -25t20.5 -13l85 -29q0 -7 -1 -22.5t-4 -23.5h-281q-2 11 -3.5 22.5t-0.5 21.5l58 18q46 13 48 84l2 127v321q0 17 -7.5 31.5t-21.5 19.5l-61 21v20t2 21h202l377 -543h7l-10 105v312 q0 31 -10.5 44.5t-26.5 19.5l-63 21q0 7 0.5 20t3.5 21h262q2 -11 3 -20t1 -19z" />
<glyph unicode="&#xd2;" horiz-adv-x="804" d="M48 0zM483 740q-69 14 -131.5 33t-114.5 46l38 75q31 -19 57.5 -34t52 -27.5t53 -23.5t60.5 -23l-15 -46v0zM756 380q0 -82 -25 -153.5t-71.5 -124.5t-113.5 -83.5t-152 -30.5q-82 0 -146.5 23t-108.5 66.5t-67.5 107t-23.5 144.5q0 84 26.5 155.5t74.5 123t115.5 81 t148.5 29.5q85 0 149.5 -23.5t107.5 -67.5t64.5 -106.5t21.5 -140.5zM646 364q0 63 -13.5 115t-42.5 89.5t-75 58.5t-111 21q-68 0 -115 -24t-76 -65t-42 -96t-13 -117q0 -60 12.5 -112t40.5 -91t74 -61t112 -22q70 0 118 24t77 65.5t41.5 96.5t12.5 118z" />
<glyph unicode="&#xd6;" horiz-adv-x="804" d="M48 0zM305 741q-5 0 -15 8t-20.5 18.5t-18.5 20.5t-8 15t8 15.5t18.5 21t20.5 18t15 7.5t15.5 -8t21 -18.5t18.5 -20.5t8 -15q0 -4 -7.5 -14t-18 -20.5t-21 -19t-16.5 -8.5zM533 741q-5 0 -15 8t-20.5 18.5t-18.5 20.5t-8 15t8 15.5t18.5 21t20.5 18t15 7.5t15.5 -8 t21 -18.5t18.5 -20.5t8 -15q0 -4 -7.5 -14t-18 -20.5t-21 -19t-16.5 -8.5zM756 380q0 -82 -25 -153.5t-71.5 -124.5t-113.5 -83.5t-152 -30.5q-82 0 -146.5 23t-108.5 66.5t-67.5 107t-23.5 144.5q0 84 26.5 155.5t74.5 123t115.5 81t148.5 29.5q85 0 149.5 -23.5 t107.5 -67.5t64.5 -106.5t21.5 -140.5zM646 364q0 63 -13.5 115t-42.5 89.5t-75 58.5t-111 21q-68 0 -115 -24t-76 -65t-42 -96t-13 -117q0 -60 12.5 -112t40.5 -91t74 -61t112 -22q70 0 118 24t77 65.5t41.5 96.5t12.5 118z" />
<glyph unicode="&#xd5;" horiz-adv-x="804" d="M48 0zM484 757q-15 0 -38.5 6.5t-48 15t-46.5 15t-34 6.5q-23 0 -41.5 -6t-36.5 -20l-27 33q7 8 17.5 19t24.5 21.5t32.5 17.5t41.5 7q18 0 44 -7t52 -15t48 -15t32 -7q16 0 28.5 3t21.5 7q11 4 19 11l27 -33q-8 -8 -18.5 -18t-25 -19t-32.5 -15.5t-40 -6.5zM756 380 q0 -82 -25 -153.5t-71.5 -124.5t-113.5 -83.5t-152 -30.5q-82 0 -146.5 23t-108.5 66.5t-67.5 107t-23.5 144.5q0 84 26.5 155.5t74.5 123t115.5 81t148.5 29.5q85 0 149.5 -23.5t107.5 -67.5t64.5 -106.5t21.5 -140.5zM646 364q0 63 -13.5 115t-42.5 89.5t-75 58.5t-111 21 q-68 0 -115 -24t-76 -65t-42 -96t-13 -117q0 -60 12.5 -112t40.5 -91t74 -61t112 -22q70 0 118 24t77 65.5t41.5 96.5t12.5 118z" />
<glyph unicode="&#xd3;" horiz-adv-x="804" d="M48 0zM309 786q33 12 60.5 23t53.5 23.5t52 27.5t57 34l38 -75q-52 -27 -114.5 -46t-131.5 -33zM756 380q0 -82 -25 -153.5t-71.5 -124.5t-113.5 -83.5t-152 -30.5q-82 0 -146.5 23t-108.5 66.5t-67.5 107t-23.5 144.5q0 84 26.5 155.5t74.5 123t115.5 81t148.5 29.5 q85 0 149.5 -23.5t107.5 -67.5t64.5 -106.5t21.5 -140.5zM646 364q0 63 -13.5 115t-42.5 89.5t-75 58.5t-111 21q-68 0 -115 -24t-76 -65t-42 -96t-13 -117q0 -60 12.5 -112t40.5 -91t74 -61t112 -22q70 0 118 24t77 65.5t41.5 96.5t12.5 118z" />
<glyph unicode="&#xd4;" horiz-adv-x="804" d="M48 0zM251 778q28 19 50.5 36.5t43 35t39 37t39.5 42.5q33 -40 75 -76t85 -66l-38 -47q-75 37 -133 84q-25 -18 -55.5 -39t-75.5 -45zM756 380q0 -82 -25 -153.5t-71.5 -124.5t-113.5 -83.5t-152 -30.5q-82 0 -146.5 23t-108.5 66.5t-67.5 107t-23.5 144.5 q0 84 26.5 155.5t74.5 123t115.5 81t148.5 29.5q85 0 149.5 -23.5t107.5 -67.5t64.5 -106.5t21.5 -140.5zM646 364q0 63 -13.5 115t-42.5 89.5t-75 58.5t-111 21q-68 0 -115 -24t-76 -65t-42 -96t-13 -117q0 -60 12.5 -112t40.5 -91t74 -61t112 -22q70 0 118 24t77 65.5 t41.5 96.5t12.5 118z" />
<glyph unicode="&#xd8;" horiz-adv-x="804" d="M768 709q-19 -22 -40.5 -46t-45.5 -50q74 -88 74 -233q0 -82 -25 -153.5t-71.5 -124.5t-113.5 -83.5t-152 -30.5q-153 0 -243 78l-90 -88l-36 34l92 90q-69 87 -69 227q0 84 26.5 155.5t74.5 123t115.5 81t148.5 29.5q75 0 133.5 -18t100.5 -52q48 51 85 94zM646 364 q0 103 -35 172q-88 -94 -188.5 -197.5t-203.5 -205.5q29 -35 72.5 -54t105.5 -19q70 0 118 24t77 65.5t41.5 96.5t12.5 118zM582 578q-29 33 -73 51.5t-105 18.5q-68 0 -115 -24t-76 -65t-42 -96t-13 -117q0 -48 8 -91.5t26 -79.5q103 103 203 206t187 197z" />
<glyph unicode="&#x1fe;" horiz-adv-x="804" d="M25 0zM302 786q33 12 60.5 23t53.5 23.5t52 27.5t57 34l38 -75q-52 -27 -114.5 -46t-131.5 -33zM768 709q-19 -22 -40.5 -46t-45.5 -50q74 -88 74 -233q0 -82 -25 -153.5t-71.5 -124.5t-113.5 -83.5t-152 -30.5q-153 0 -243 78l-90 -88l-36 34l92 90q-69 87 -69 227 q0 84 26.5 155.5t74.5 123t115.5 81t148.5 29.5q75 0 133.5 -18t100.5 -52q48 51 85 94zM646 364q0 103 -35 172q-88 -94 -188.5 -197.5t-203.5 -205.5q29 -35 72.5 -54t105.5 -19q70 0 118 24t77 65.5t41.5 96.5t12.5 118zM582 578q-29 33 -73 51.5t-105 18.5 q-68 0 -115 -24t-76 -65t-42 -96t-13 -117q0 -48 8 -91.5t26 -79.5q103 103 203 206t187 197z" />
<glyph unicode="&#x160;" horiz-adv-x="577" d="M44 0zM474 888q-28 -19 -50.5 -36.5t-43 -35t-39 -37t-39.5 -42.5q-33 40 -75 76t-85 66l38 47q75 -37 133 -84q25 18 55.5 39t75.5 45zM528 191q0 -54 -23.5 -92.5t-61.5 -62.5t-86.5 -35.5t-97.5 -11.5q-53 0 -110 11t-105 32l8 167h53q9 -71 56 -109t128 -38 q61 0 101.5 30t40.5 96q0 29 -15 49.5t-39.5 36t-56 28t-65.5 25.5t-67 29.5t-59 40t-42 55t-16 75.5q0 46 19.5 83t52 63t74.5 40t87 14q59 0 112.5 -8t88.5 -26v-157h-42q-6 28 -20.5 51t-35.5 39.5t-47 26t-54 9.5q-68 0 -107 -26t-39 -77q0 -25 11.5 -44.5t31 -35 t46.5 -28.5t58 -25q39 -16 78.5 -34t71 -43.5t51.5 -61t20 -86.5z" />
<glyph unicode="&#xda;" horiz-adv-x="784" d="M26 0zM317 786q33 12 60.5 23t53.5 23.5t52 27.5t57 34l38 -75q-52 -27 -114.5 -46t-131.5 -33zM704 648q-10 -4 -18.5 -10.5t-8.5 -29.5v-341q0 -78 -26 -131.5t-66.5 -86.5t-90 -47.5t-96.5 -14.5q-51 0 -101.5 11t-90 39t-64 77t-24.5 126v353q0 17 -7.5 32t-21.5 20 l-63 21q0 7 1 20t3 21h269q2 -11 2.5 -23.5t-0.5 -22.5l-57 -12q-15 -3 -20.5 -10.5t-5.5 -21.5v-370q0 -54 16.5 -90.5t43 -59t59.5 -32t66 -9.5q41 0 75 11t58 36.5t37.5 66.5t13.5 101v314q0 24 -10.5 41t-45.5 27l-43 13q0 7 -0.5 20t1.5 21h262q2 -11 2.5 -22t0.5 -21z " />
<glyph unicode="&#xdb;" horiz-adv-x="784" d="M26 0zM249 778q28 19 50.5 36.5t43 35t39 37t39.5 42.5q33 -40 75 -76t85 -66l-38 -47q-75 37 -133 84q-25 -18 -55.5 -39t-75.5 -45zM704 648q-10 -4 -18.5 -10.5t-8.5 -29.5v-341q0 -78 -26 -131.5t-66.5 -86.5t-90 -47.5t-96.5 -14.5q-51 0 -101.5 11t-90 39t-64 77 t-24.5 126v353q0 17 -7.5 32t-21.5 20l-63 21q0 7 1 20t3 21h269q2 -11 2.5 -23.5t-0.5 -22.5l-57 -12q-15 -3 -20.5 -10.5t-5.5 -21.5v-370q0 -54 16.5 -90.5t43 -59t59.5 -32t66 -9.5q41 0 75 11t58 36.5t37.5 66.5t13.5 101v314q0 24 -10.5 41t-45.5 27l-43 13 q0 7 -0.5 20t1.5 21h262q2 -11 2.5 -22t0.5 -21z" />
<glyph unicode="&#xd9;" horiz-adv-x="784" d="M26 0zM471 740q-69 14 -131.5 33t-114.5 46l38 75q31 -19 57.5 -34t52 -27.5t53 -23.5t60.5 -23l-15 -46v0zM704 648q-10 -4 -18.5 -10.5t-8.5 -29.5v-341q0 -78 -26 -131.5t-66.5 -86.5t-90 -47.5t-96.5 -14.5q-51 0 -101.5 11t-90 39t-64 77t-24.5 126v353 q0 17 -7.5 32t-21.5 20l-63 21q0 7 1 20t3 21h269q2 -11 2.5 -23.5t-0.5 -22.5l-57 -12q-15 -3 -20.5 -10.5t-5.5 -21.5v-370q0 -54 16.5 -90.5t43 -59t59.5 -32t66 -9.5q41 0 75 11t58 36.5t37.5 66.5t13.5 101v314q0 24 -10.5 41t-45.5 27l-43 13q0 7 -0.5 20t1.5 21h262 q2 -11 2.5 -22t0.5 -21z" />
<glyph unicode="&#xdc;" horiz-adv-x="784" d="M26 0zM284 741q-5 0 -15 8t-20.5 18.5t-18.5 20.5t-8 15t8 15.5t18.5 21t20.5 18t15 7.5t15.5 -8t21 -18.5t18.5 -20.5t8 -15q0 -4 -7.5 -14t-18 -20.5t-21 -19t-16.5 -8.5zM512 741q-5 0 -15 8t-20.5 18.5t-18.5 20.5t-8 15t8 15.5t18.5 21t20.5 18t15 7.5t15.5 -8 t21 -18.5t18.5 -20.5t8 -15q0 -4 -7.5 -14t-18 -20.5t-21 -19t-16.5 -8.5zM704 648q-10 -4 -18.5 -10.5t-8.5 -29.5v-341q0 -78 -26 -131.5t-66.5 -86.5t-90 -47.5t-96.5 -14.5q-51 0 -101.5 11t-90 39t-64 77t-24.5 126v353q0 17 -7.5 32t-21.5 20l-63 21q0 7 1 20t3 21 h269q2 -11 2.5 -23.5t-0.5 -22.5l-57 -12q-15 -3 -20.5 -10.5t-5.5 -21.5v-370q0 -54 16.5 -90.5t43 -59t59.5 -32t66 -9.5q41 0 75 11t58 36.5t37.5 66.5t13.5 101v314q0 24 -10.5 41t-45.5 27l-43 13q0 7 -0.5 20t1.5 21h262q2 -11 2.5 -22t0.5 -21z" />
<glyph unicode="&#x178;" horiz-adv-x="646" d="M5 0zM223 741q-5 0 -15 8t-20.5 18.5t-18.5 20.5t-8 15t8 15.5t18.5 21t20.5 18t15 7.5t15.5 -8t21 -18.5t18.5 -20.5t8 -15q0 -4 -7.5 -14t-18 -20.5t-21 -19t-16.5 -8.5zM451 741q-5 0 -15 8t-20.5 18.5t-18.5 20.5t-8 15t8 15.5t18.5 21t20.5 18t15 7.5t15.5 -8 t21 -18.5t18.5 -20.5t8 -15q0 -4 -7.5 -14t-18 -20.5t-21 -19t-16.5 -8.5zM649 707q3 -20 3 -39q-24 -10 -43 -22t-35 -38l-205 -324l3 -162q0 -17 7.5 -33t21.5 -20l84 -23q0 -7 -1 -22.5t-3 -23.5h-309q-2 11 -3.5 25.5t-0.5 24.5l70 18q18 5 27.5 20.5t9.5 36.5l3 159 l-195 310q-21 32 -41 47t-37 29v18t2 19h241q4 -20 4 -40l-51 -19q-15 -6 -15 -27q0 -19 13 -42l135 -229l144 235q8 11 6 24q-2 22 -19 32l-56 27v19.5t3 19.5h237z" />
<glyph unicode="&#xdd;" horiz-adv-x="646" d="M5 0zM247 786q33 12 60.5 23t53.5 23.5t52 27.5t57 34l38 -75q-52 -27 -114.5 -46t-131.5 -33zM649 707q3 -20 3 -39q-24 -10 -43 -22t-35 -38l-205 -324l3 -162q0 -17 7.5 -33t21.5 -20l84 -23q0 -7 -1 -22.5t-3 -23.5h-309q-2 11 -3.5 25.5t-0.5 24.5l70 18 q18 5 27.5 20.5t9.5 36.5l3 159l-195 310q-21 32 -41 47t-37 29v18t2 19h241q4 -20 4 -40l-51 -19q-15 -6 -15 -27q0 -19 13 -42l135 -229l144 235q8 11 6 24q-2 22 -19 32l-56 27v19.5t3 19.5h237z" />
<glyph unicode="&#x17d;" horiz-adv-x="618" d="M33 0zM490 888q-28 -19 -50.5 -36.5t-43 -35t-39 -37t-39.5 -42.5q-33 40 -75 76t-85 66l38 47q75 -37 133 -84q25 18 55.5 39t75.5 45zM563 0h-513l-17 57l398 586l-240 -4q-36 -5 -55.5 -30t-27.5 -69q-11 -2 -24 0q-6 1 -11.5 1t-10.5 2v164h488l12 -44l-404 -591 l253 4q27 1 48.5 10.5t37 24t25.5 32t15 34.5l45 -7z" />
<glyph unicode="&#xde;" horiz-adv-x="617" d="M592 383q0 -95 -69 -148.5t-201 -53.5h-20v62l25 1q34 1 64.5 6.5t53 19.5t35.5 40t13 68q0 41 -10 65.5t-30 38t-50.5 17.5t-72.5 4h-96v-230l4 -162q0 -15 4 -23.5t17 -11.5l102 -27v-9.5t-0.5 -14t-1.5 -14.5t-2 -11h-300q-2 11 -3 22.5t0 21.5l48 18q17 6 27.5 24 t11.5 38l3 149v329q0 12 -6 23.5t-18 16.5l-75 26q0 2 -0.5 4.5t-0.5 5.5q0 14 5 29h265q2 -11 2.5 -23t-0.5 -22l-41 -9q-17 -4 -26.5 -17.5t-14.5 -30.5v-37h121q52 0 96 -8t75 -29t48.5 -57t17.5 -91z" />
<glyph unicode="&#xd0;" horiz-adv-x="784" d="M734 371q0 -92 -28.5 -161.5t-80 -116t-124.5 -70t-161 -23.5h-300q-2 11 -3.5 24.5t-0.5 23.5l68 18q20 5 29.5 24t9.5 44l2 140v48h-107v66h107l1 218q0 12 -6 22t-18 14l-74 24q-1 6 -0.5 18.5t4.5 22.5h282q85 0 158.5 -13.5t127 -50t84 -102t30.5 -170.5zM624 353 q0 76 -19 130t-56 89t-92 51.5t-126 16.5h-94v-252h191v-66h-191v-49l6 -207h108q69 0 120.5 15.5t85 50t50.5 89t17 132.5z" />
<glyph unicode="&#xc6;" horiz-adv-x="969" d="M911 0h-533q-2 11 -3 25t0 24l58 18q17 5 27.5 21t11.5 37l2 149v49h-192l-118 -205q-5 -8 -6 -13t-1 -10q1 -14 19 -19l97 -24v-10t-1 -15t-2 -15.5t-2 -11.5h-278q-2 11 -3.5 22.5t-0.5 21.5l36 24q14 9 29.5 23t26.5 33l346 583h464v-160q-10 -3 -26.5 -2t-24.5 1 q-8 45 -25 67t-55 23l-192 6v-254l291 5v-76l-291 5v-49l5 -207l188 3q27 0 48.5 10t37 25t26 33t16.5 35l44 -7zM320 388h154v214q0 17 0.5 31t1.5 25z" />
<glyph unicode="&#x1fc;" horiz-adv-x="969" d="M0 0zM551 786q33 12 60.5 23t53.5 23.5t52 27.5t57 34l38 -75q-52 -27 -114.5 -46t-131.5 -33zM911 0h-533q-2 11 -3 25t0 24l58 18q17 5 27.5 21t11.5 37l2 149v49h-192l-118 -205q-5 -8 -6 -13t-1 -10q1 -14 19 -19l97 -24v-10t-1 -15t-2 -15.5t-2 -11.5h-278 q-2 11 -3.5 22.5t-0.5 21.5l36 24q14 9 29.5 23t26.5 33l346 583h464v-160q-10 -3 -26.5 -2t-24.5 1q-8 45 -25 67t-55 23l-192 6v-254l291 5v-76l-291 5v-49l5 -207l188 3q27 0 48.5 10t37 25t26 33t16.5 35l44 -7zM320 388h154v214q0 17 0.5 31t1.5 25z" />
<glyph unicode="&#x152;" horiz-adv-x="1011" d="M954 0h-460q-47 -12 -100 -12q-82 0 -146.5 26t-108.5 73.5t-67.5 114t-23.5 147.5q0 84 26.5 152t74.5 116.5t115.5 74.5t148.5 26q27 0 52 -3t48 -8h418v-160q-10 -3 -26.5 -2t-24.5 1q-9 45 -25.5 67t-54.5 23l-192 6v-254l271 5v-76l-271 5v-49l5 -207l188 3 q27 0 48.5 10t37 25t26 33t16.5 35l44 -7zM517 602q0 14 -6 26q-46 20 -107 20q-68 0 -115 -22.5t-76 -61.5t-42 -92.5t-13 -115.5q0 -60 12.5 -114t40.5 -94.5t74 -64t112 -23.5q52 0 84.5 12t33.5 53l2 149v328z" />
<glyph unicode="&#x132;" horiz-adv-x="718" d="M51 0zM344 50v-10t-1 -14.5t-2 -14.5t-2 -11h-283q-2 11 -3.5 22.5t-0.5 21.5l53 21q37 14 38 69l2 139v300q0 24 -9.5 45.5t-40.5 32.5l-40 15q-2 7 -1.5 20t2.5 21h262q5 -23 3 -45l-41 -9q-24 -5 -34 -25t-10 -52v-303l3 -170q0 -19 6 -26t22 -10l77 -17v0zM631 651 q-23 -5 -30.5 -13.5t-7.5 -30.5v-520q0 -56 -14.5 -97t-41.5 -72.5t-64.5 -56.5t-82.5 -48l-34 59q39 24 67 50t45 58.5t25 72.5t8 93v431q0 32 -12 49t-36 25l-44 15q0 7 1 20t4 21h262q2 -11 3 -22.5t0 -21.5z" />
<glyph unicode="a" horiz-adv-x="560" d="M561 35q-6 -6 -23 -13t-37 -13t-41 -10.5t-34 -4.5q-26 0 -40.5 8t-21.5 20t-9 27t-2 30q-7 -8 -23.5 -22.5t-41 -28.5t-56 -25t-68.5 -11q-27 0 -51 8t-42 24t-28.5 39.5t-10.5 55.5q0 40 16.5 69.5t43.5 50.5t61 33t69 18q24 4 47 7t42 5q21 3 41 5v78q0 60 -32.5 81 t-105.5 21q-29 0 -66.5 -6.5t-64.5 -14.5l-16 58q41 17 85 25t89 8q29 0 63.5 -2.5t64 -16.5t49.5 -43.5t20 -82.5v-139l7 -198h109zM352 253q-21 -3 -43 -6q-19 -3 -40.5 -6t-40.5 -8q-103 -24 -103 -98q0 -23 16 -41.5t59 -18.5q23 0 49 7.5t49 17.5q26 11 54 26v127z" />
<glyph unicode="b" horiz-adv-x="592" d="M544 285q0 -65 -20.5 -118.5t-56.5 -92t-85.5 -60t-107.5 -21.5q-46 0 -78.5 2.5t-55 5.5t-36.5 6.5t-23 6.5l5 259v421h-102v48q13 3 32 7t39.5 7.5t40.5 5.5t37 2q21 0 30 -8t9 -28v-455l5 -200q10 -2 19 -3.5t20 -3t25.5 -2.5t35.5 -1q45 0 77 16t52.5 44.5t30 68 t9.5 85.5q0 43 -6 80.5t-22.5 65t-44.5 43t-73 15.5q-24 0 -47.5 -2t-37.5 -5l-12 41q9 7 23.5 13.5t31.5 11.5t34.5 8t32.5 3q53 0 94 -13.5t68.5 -45t42 -82.5t14.5 -125z" />
<glyph unicode="c" horiz-adv-x="505" d="M467 485q0 -20 -12.5 -41.5t-34.5 -34.5q-15 17 -29.5 31t-30.5 24.5t-35.5 16.5t-44.5 6q-69 0 -106 -49t-37 -162q0 -47 8 -85.5t28.5 -66.5t55 -43.5t88.5 -15.5q39 0 76 6.5t55 12.5l17 -52q-17 -11 -58.5 -26t-114.5 -15q-71 0 -118 18t-75.5 51.5t-40.5 81 t-12 106.5q0 154 72 231.5t210 77.5q11 0 34 -1.5t46.5 -8.5t41 -21.5t17.5 -40.5z" />
<glyph unicode="d" horiz-adv-x="621" d="M613 36q-10 -6 -26.5 -13.5t-37 -14t-42 -11t-42.5 -4.5q-18 0 -28.5 8t-15.5 20t-6.5 26.5t-1.5 27.5q-29 -35 -67.5 -58.5t-89.5 -23.5q-38 0 -75.5 12t-67.5 41t-48.5 79t-18.5 126q0 69 20.5 124.5t55.5 94t81.5 59.5t99.5 21q38 0 62.5 -3t48.5 -8v155h-102v47 q13 3 32 7t39.5 7.5t40.5 6t37 2.5q21 0 30.5 -8t9.5 -28v-455l4 -198h101zM414 473q-20 4 -46.5 9t-67.5 5q-50 0 -81 -18.5t-48 -51t-23.5 -76t-6.5 -93.5t10.5 -82.5t29.5 -52t46.5 -27.5t62.5 -8t64.5 12t55.5 29l4 154v200z" />
<glyph unicode="e" horiz-adv-x="541" d="M136 267q3 -66 18.5 -105.5t41 -60t59 -27t71.5 -6.5q42 0 77.5 4.5t66.5 12.5l16 -54q-29 -18 -77.5 -29t-109.5 -11q-54 0 -100 10.5t-80 39t-53.5 77.5t-19.5 127q0 73 17.5 131t50.5 98t79 61.5t103 21.5q53 0 91.5 -18t63 -52t36 -82.5t11.5 -109.5v-28h-362z M396 324q0 85 -24.5 129.5t-84.5 44.5q-59 0 -101.5 -44.5t-48.5 -129.5h259z" />
<glyph unicode="f" horiz-adv-x="378" d="M480 710q0 -23 -10 -39t-24 -26q-24 21 -54 39t-53 18q-44 0 -69 -10.5t-37 -29t-15 -43.5t-3 -54v-23h119v-62h-119v-207l7 -178q0 -8 1.5 -11.5t9.5 -5.5l122 -26q0 -12 -0.5 -26t-4.5 -26h-312q-4 20 -4 44l12.5 5t14.5 6q8 4 16 7q20 8 33.5 22.5t13.5 43.5l3 145 v207h-80v50l80 13v26q0 40 16.5 76.5t44.5 64t64.5 44t76.5 16.5q15 0 40 -1.5t50 -7.5t43 -18t18 -33z" />
<glyph unicode="g" horiz-adv-x="601" d="M473 465q3 -5 10 -29t7 -64q0 -34 -15 -66t-42 -57t-65 -40t-84 -15q-70 0 -123 25v-103h179q65 0 107 -9.5t66.5 -27t34 -42.5t9.5 -57q0 -42 -24 -78.5t-65 -64.5t-97 -44t-120 -16q-42 0 -81 6t-69.5 21.5t-49 41.5t-18.5 66q0 21 9 40t22.5 34.5t30.5 28t32 21.5 q-3 0 -12 3t-18.5 10t-16.5 18.5t-7 28.5q0 39 18.5 72t43.5 63q-30 22 -48 57t-18 80q0 30 11.5 63t37 61t65 46.5t95.5 18.5q36 0 61.5 -4.5t42.5 -11t27 -12.5t13 -9l164 32v-87h-113zM395 367q0 28 -7.5 52.5t-21.5 43t-34.5 29t-46.5 10.5q-36 0 -60 -10.5t-39 -28 t-21.5 -40t-6.5 -45.5q0 -55 29 -91t95 -36q51 0 82 31t31 85zM460 -35q0 22 -11 35t-31 19.5t-48.5 8t-63.5 1.5h-137q-18 -16 -30.5 -39t-12.5 -43q0 -48 39 -76t128 -28q34 0 64.5 8.5t53.5 24t36 38t13 51.5z" />
<glyph unicode="h" horiz-adv-x="677" d="M662 53v-10.5t-1 -15.5t-2 -15.5t-2 -11.5h-248q-2 11 -3 25t0 24l43 19q13 5 20.5 19t8.5 40l3 146v84q0 34 -3.5 58t-15 38.5t-34 21t-60.5 6.5q-24 0 -50.5 -5t-50 -12t-42.5 -14.5t-28 -13.5v-163l4 -174q0 -18 3 -24t16 -8l94 -16v-10t-1 -14.5l-2 -15t-2 -11.5 h-278q-2 11 -3 22.5t0 21.5l46 20q14 6 23.5 25t10.5 42l2 142v421h-101v47q13 3 32 7t39.5 7.5t40.5 6t37 2.5q21 0 30 -8t9 -28v-243q15 11 35.5 23.5t46 23.5t56.5 18t68 7q57 0 89.5 -13.5t49.5 -38t21.5 -58.5t4.5 -74v-100l3 -185q0 -12 4 -15.5t15 -5.5l72 -14v0z " />
<glyph unicode="i" horiz-adv-x="340" d="M41 0q-3 22 -3 44l63 22q12 5 21.5 22.5t10.5 31.5l3 152v208h-102v51q13 3 32 7t39.5 7t40.5 5.5t37 2.5q21 0 30.5 -8t9.5 -28v-245l3 -183q0 -13 4.5 -16.5t12.5 -5.5l87 -16v-10t-1 -14.5l-2 -15t-2 -11.5h-284zM178 640q-6 0 -18.5 9.5t-24.5 22.5t-21.5 25t-9.5 18 t9.5 18.5t22 25t24.5 21.5t18 9q5 0 17.5 -9.5t25 -22t22.5 -24.5t10 -18q0 -5 -9.5 -17t-22 -25t-25 -23t-18.5 -10z" />
<glyph unicode="j" horiz-adv-x="289" d="M22 -224q-21 0 -35.5 2t-24.5 6l9 65q10 -2 21 -4q9 -2 20 -3t22 -1q27 0 43 8.5t24.5 24.5t11.5 39.5t3 54.5v512h-100v51q13 3 32 7t39.5 7t40.5 5.5t37 2.5q21 0 29.5 -8t8.5 -28v-245l5 -275q1 -51 -13.5 -92t-40 -69.5t-60 -44t-72.5 -15.5zM159 641q-6 0 -18 9.5 t-24.5 22.5t-22 25t-9.5 18t9.5 18.5t22 25t25 21.5t17.5 9q6 0 18 -9.5t25 -22t22.5 -24.5t9.5 -18q0 -5 -9.5 -17t-22 -25t-25 -23t-18.5 -10z" />
<glyph unicode="k" horiz-adv-x="594" d="M28 0q-2 11 -3 22.5t0 21.5l53 21q17 7 26 27.5t9 37.5l4 143v421h-101v48q13 3 32 7t39.5 7.5t40.5 5.5t37 2q39 0 39 -39v-452l3 -149q1 -20 6.5 -37t23.5 -25l38 -17q0 -7 -1 -22t-4 -23h-242zM591 -12q-28 0 -55.5 2.5t-54.5 12.5t-52 27.5t-47 47.5l-163 206 l160 156q14 14 14 27q0 9 -4 17t-12 10l-43 16v14v11.5t2 10.5h198v-36l-213 -201l137 -176q16 -21 35.5 -38t38.5 -29.5t35.5 -20t26.5 -10.5z" />
<glyph unicode="l" horiz-adv-x="322" d="M312 50v-10t-1 -14.5t-2 -14.5t-2 -11h-280q-2 11 -3 22.5t0 21.5l53 19q18 7 26 23t9 33l5 154v421h-101v48q13 3 32 7t39.5 7.5t40.5 5.5t37 2q39 0 39 -39v-452l5 -187q0 -12 2 -14.5t10 -4.5l91 -17v0z" />
<glyph unicode="m" horiz-adv-x="1023" d="M1012 52v-10t-0.5 -15t-1.5 -15.5t-2 -11.5h-246q-3 11 -4 25.5t0 24.5l36 20q10 5 18.5 18.5t9.5 35.5l3 148v85q0 34 -3 58t-14 38.5t-32.5 21t-59.5 6.5q-21 0 -43 -4t-43 -9.5t-38.5 -12.5t-29.5 -13q3 -32 3 -69v-100l3 -183q0 -12 3.5 -16.5t12.5 -6.5l90 -15v-10 t-0.5 -15t-1.5 -15.5t-2 -11.5h-251q-2 11 -3 24t-1 23l36 18q11 5 17 18.5t7 25.5l3 163v85q0 34 -2.5 58t-13 38.5t-31.5 21t-59 6.5q-24 0 -47.5 -5t-44.5 -12t-37 -14.5t-25 -13.5v-163l4 -176q0 -13 3 -20t12 -9l79 -15v-10.5t-0.5 -15.5t-1.5 -15.5t-2 -11.5h-260 q-3 9 -3.5 21.5t-0.5 22.5l42 18q14 6 26.5 22t12.5 40l2 149v207h-102v50q13 3 32 6.5t39.5 7t40.5 5.5t37 2q21 0 29.5 -8t8.5 -28v-30q15 11 33 23.5t41 23.5t51.5 18t65.5 7q67 0 99.5 -18.5t45.5 -51.5q15 11 34.5 23t44 22.5t54.5 17.5t66 7q56 0 88.5 -13.5t48.5 -38 t20 -58.5t4 -74v-100l4 -183q0 -14 3.5 -17.5t16.5 -5.5l76 -15v0z" />
<glyph unicode="n" horiz-adv-x="691" d="M680 51v-10t-0.5 -14.5t-1.5 -15t-2 -11.5h-240q-2 11 -3 24.5t0 23.5l28 19q16 11 23 26t7 29l3 151v84q0 34 -3.5 58t-15 38.5t-34 21t-60.5 6.5q-24 0 -49 -5t-47.5 -12t-40 -14.5t-26.5 -13.5v-163l3 -182q0 -12 1.5 -17t11.5 -7l88 -16v-10t-0.5 -14.5t-1.5 -15 t-2 -11.5h-267q-2 11 -3 22.5t0 21.5l46 22q17 8 25.5 26t8.5 32l3 149v207h-101v50q13 3 32 7t39.5 7t40.5 5t37 2q21 0 29 -8t8 -28v-30q15 11 34.5 23.5t44 23.5t54.5 18t67 7q57 0 89.5 -13.5t49.5 -38t21.5 -58.5t4.5 -74v-100l4 -192q0 -9 2 -11t11 -4l82 -15v0z" />
<glyph unicode="o" d="M537 273q0 -55 -19.5 -106t-53.5 -90t-80.5 -62t-99.5 -23q-56 0 -100.5 15.5t-75.5 49t-47.5 85.5t-16.5 125q0 56 20 108t53.5 92.5t79 65t96.5 24.5q122 0 183 -69t61 -215zM439 279q0 38 -5.5 75.5t-22 67.5t-47.5 49t-82 19q-46 0 -74 -20.5t-43 -52.5t-20 -72 t-5 -79q0 -43 6.5 -79.5t24.5 -63.5t49 -42t80 -15q45 0 72.5 18t42.5 48t19.5 68t4.5 79z" />
<glyph unicode="p" horiz-adv-x="619" d="M573 289q0 -86 -23 -143t-60.5 -91t-86 -48.5t-99.5 -14.5q-36 0 -55.5 1.5t-39.5 4.5l6 -130q0 -8 2.5 -13.5t16.5 -8.5l80 -15q1 -8 0.5 -24.5t-4.5 -26.5h-267q-3 16 -3.5 28.5t0.5 18.5l36 15q16 7 26.5 23.5t10.5 39.5l3 370v205h-101v49q13 3 32 6.5t39.5 7t40.5 6 t37 2.5q21 0 30 -8t9 -28v-22q25 21 59 41t82 20q117 0 173 -69t56 -196zM476 269q0 37 -7.5 75.5t-25 70t-45.5 51.5t-70 20q-22 0 -41.5 -5t-35.5 -12.5t-28 -15.5t-19 -13v-167l3 -208q9 -2 16 -3t16.5 -2.5t25 -2t42.5 -0.5q45 0 77 16t52.5 44t30 67t9.5 85z" />
<glyph unicode="q" horiz-adv-x="582" d="M598 -186q0 -8 -1 -17t-3 -17h-278q-2 5 -3 12.5t-1 15.5v19l52 19q25 10 33.5 34t8.5 56l2 106q-28 -15 -61.5 -31t-75.5 -16q-36 0 -75.5 7.5t-72.5 34.5t-55 80t-22 143q0 69 20.5 124t55.5 93t82 58.5t100 20.5q24 0 50.5 -2t53 -5.5t50 -8t41.5 -9.5v-257l4 -389 q0 -23 3 -29.5t14 -8.5l78 -15v-18zM410 477q-18 4 -42.5 10.5t-64.5 6.5q-50 0 -82 -19t-51 -50.5t-26 -72.5t-7 -84q0 -54 9 -90.5t27.5 -59t46 -32t63.5 -9.5q43 0 72.5 6t52.5 14l2 176v204z" />
<glyph unicode="r" horiz-adv-x="445" d="M424 456q-10 4 -25 7.5t-39 3.5q-51 0 -88 -11.5t-54 -31.5v-150l4 -181q0 -12 2.5 -18t12.5 -8l104 -16v-10t-0.5 -14.5t-1.5 -15t-2 -11.5h-286q-2 11 -3.5 22.5t-0.5 21.5l47 24q13 7 23.5 26.5t11.5 48.5l2 131v207h-101v51q13 3 32 6.5t39.5 7t40.5 5.5t37 2 q21 0 29.5 -8t8.5 -28v-44q9 16 25.5 31.5t37 26.5t44.5 18t50 7q24 0 41.5 -3t24.5 -5z" />
<glyph unicode="s" horiz-adv-x="471" d="M427 150q0 -47 -18 -78t-47.5 -49t-66.5 -25.5t-75 -7.5q-56 0 -99.5 10.5t-75.5 25.5l8 156l47 -1q0 -26 9 -50t25.5 -42.5t40 -29.5t53.5 -11q23 0 44 4t37 13t25.5 23.5t9.5 36.5q0 34 -30 55t-97 48q-28 11 -56 25.5t-50 35t-35.5 48.5t-13.5 67q0 40 15 68.5 t41 47.5t61 28t75 9q39 0 81.5 -8.5t78.5 -26.5l-17 -133l-37 4q-7 44 -42 73.5t-83 29.5q-45 0 -71 -20t-26 -49q0 -23 10.5 -38.5t28 -27.5t40.5 -21.5t47 -19.5q29 -12 58 -26.5t52.5 -34.5t38 -46.5t14.5 -62.5z" />
<glyph unicode="t" horiz-adv-x="421" d="M403 8q-10 -4 -25 -7.5t-31.5 -6t-32.5 -4t-29 -1.5q-50 0 -84 7.5t-55.5 25.5t-31 49t-9.5 78l3 331h-80v36l156 142h14v-112h183v-66h-183v-208l3 -122q2 -54 25.5 -73t74.5 -19q22 0 44 4t42 12z" />
<glyph unicode="u" horiz-adv-x="665" d="M660 35q-8 -4 -22.5 -11t-33 -13.5t-39.5 -11.5t-40 -5q-13 0 -25.5 3.5t-22.5 12t-17 23t-8 37.5q-16 -15 -34 -29.5t-39.5 -26t-48 -19t-60.5 -7.5q-54 0 -85.5 12.5t-48 34.5t-21.5 52t-5 65v328h-90v49q13 3 31 7t36.5 7.5t37.5 5.5t36 2q21 0 29.5 -8t8.5 -28v-241 l3 -94q1 -24 3.5 -45.5t11.5 -38t26 -26t46 -9.5q42 0 80.5 21.5t78.5 53.5l4 136v208h-101v48q13 3 31.5 7t39 7.5t41 6t37.5 2.5q21 0 30 -8t9 -28v-242l3 -198h111z" />
<glyph unicode="v" horiz-adv-x="537" d="M65 438q-6 17 -21.5 34t-35.5 28q0 13 0.5 24t2.5 22h217q0 -12 -1.5 -29t-3.5 -23h-71l129 -390l120 316q6 15 6 29q0 31 -24 41l-28 11q-1 11 -0.5 23t4.5 22h176q0 -11 -0.5 -22t-2.5 -19q-6 -5 -13 -10.5t-15 -14.5t-16 -22.5t-16 -33.5l-169 -424l-69 -12z" />
<glyph unicode="w" horiz-adv-x="886" d="M443 408l-156 -408l-64 -11l-149 438q-11 35 -26.5 50t-35.5 21q0 10 1 24.5t5 23.5h224q0 -17 -1.5 -27.5t-4.5 -24.5h-82l114 -371l150 412l68 20l157 -434l111 333q5 14 -3 26t-19 17l-33 14v10q0 5 0.5 12.5t2.5 12.5h186v-18.5t-2 -15.5q-20 -9 -38 -25.5t-32 -56.5 l-155 -431l-65 -11z" />
<glyph unicode="x" horiz-adv-x="590" d="M573 27q0 -7 -0.5 -14.5t-2.5 -12.5h-226q-2 14 -2 23.5v16.5l9 5q7 4 13.5 13.5t6.5 22.5q0 14 -9 27l-78 111l-109 -131q-8 -9 -8 -19q0 -11 12 -13l54 -7q0 -9 -0.5 -23.5t-2.5 -25.5h-212q-2 12 -2.5 21.5t0.5 19.5q17 6 36.5 17.5t34.5 28.5l161 183l-146 202 q-8 11 -21.5 17.5t-44.5 17.5q0 4 -0.5 8t-0.5 8q0 6 0.5 11.5t1.5 11.5h220q0 -12 -1.5 -27t-5.5 -26h-59l110 -162l96 112q5 7 9 14.5t4 14.5q0 11 -10 16l-36 22q0 9 1 17t4 19h190q0 -11 -0.5 -23t-4.5 -17q-23 -7 -44 -20t-39 -36l-134 -166l137 -181q10 -13 19 -21.5 t20 -14.5t25 -11t35 -12v-17z" />
<glyph unicode="y" horiz-adv-x="554" d="M551 546q0 -13 -0.5 -25.5t-3.5 -21.5l-16 -6t-16 -10t-16 -20t-17 -36l-200 -507q-20 -50 -48.5 -89.5t-70.5 -66.5l-55 71q24 15 47.5 37t43.5 51q12 17 22 37t17 43l-171 440q-6 14 -22.5 31.5t-42.5 26.5v23t4 22h221q0 -15 -1 -29t-3 -23h-77l146 -387l120 314 q8 22 1.5 43.5t-29.5 29.5l-21 8q-1 2 -1 4v9q0 8 0.5 17t1.5 14h187v0z" />
<glyph unicode="z" horiz-adv-x="536" d="M476 0h-428l-12 35l330 436h-191q-30 0 -53.5 -18t-48.5 -50q-8 2 -19 7q-6 3 -12 5l34 131h386l15 -40l-322 -432h189q18 0 35 9.5t33 24t29 32.5t24 36q8 -2 14.5 -3.5t11.5 -3.5l12 -4z" />
<glyph unicode="&#xe1;" horiz-adv-x="560" d="M32 0zM409 767q-50 -42 -103 -79.5t-108 -69.5l-29 43q101 76 179 167zM561 35q-6 -6 -23 -13t-37 -13t-41 -10.5t-34 -4.5q-26 0 -40.5 8t-21.5 20t-9 27t-2 30q-7 -8 -23.5 -22.5t-41 -28.5t-56 -25t-68.5 -11q-27 0 -51 8t-42 24t-28.5 39.5t-10.5 55.5 q0 40 16.5 69.5t43.5 50.5t61 33t69 18q24 4 47 7t42 5q21 3 41 5v78q0 60 -32.5 81t-105.5 21q-29 0 -66.5 -6.5t-64.5 -14.5l-16 58q41 17 85 25t89 8q29 0 63.5 -2.5t64 -16.5t49.5 -43.5t20 -82.5v-139l7 -198h109zM352 253q-21 -3 -43 -6q-19 -3 -40.5 -6t-40.5 -8 q-103 -24 -103 -98q0 -23 16 -41.5t59 -18.5q23 0 49 7.5t49 17.5q26 11 54 26v127z" />
<glyph unicode="&#xe0;" horiz-adv-x="560" d="M32 0zM190 828q78 -91 179 -167l-29 -43q-55 32 -108 69.5t-103 79.5zM561 35q-6 -6 -23 -13t-37 -13t-41 -10.5t-34 -4.5q-26 0 -40.5 8t-21.5 20t-9 27t-2 30q-7 -8 -23.5 -22.5t-41 -28.5t-56 -25t-68.5 -11q-27 0 -51 8t-42 24t-28.5 39.5t-10.5 55.5q0 40 16.5 69.5 t43.5 50.5t61 33t69 18q24 4 47 7t42 5q21 3 41 5v78q0 60 -32.5 81t-105.5 21q-29 0 -66.5 -6.5t-64.5 -14.5l-16 58q41 17 85 25t89 8q29 0 63.5 -2.5t64 -16.5t49.5 -43.5t20 -82.5v-139l7 -198h109zM352 253q-21 -3 -43 -6q-19 -3 -40.5 -6t-40.5 -8q-103 -24 -103 -98 q0 -23 16 -41.5t59 -18.5q23 0 49 7.5t49 17.5q26 11 54 26v127z" />
<glyph unicode="&#xe2;" horiz-adv-x="560" d="M32 0zM87 659q52 44 92.5 84.5t82.5 87.5q16 -20 36.5 -42.5t42.5 -45t43.5 -43t40.5 -35.5l-41 -43q-38 23 -71.5 51t-61.5 53q-23 -20 -56 -47.5t-75 -56.5zM561 35q-6 -6 -23 -13t-37 -13t-41 -10.5t-34 -4.5q-26 0 -40.5 8t-21.5 20t-9 27t-2 30q-7 -8 -23.5 -22.5 t-41 -28.5t-56 -25t-68.5 -11q-27 0 -51 8t-42 24t-28.5 39.5t-10.5 55.5q0 40 16.5 69.5t43.5 50.5t61 33t69 18q24 4 47 7t42 5q21 3 41 5v78q0 60 -32.5 81t-105.5 21q-29 0 -66.5 -6.5t-64.5 -14.5l-16 58q41 17 85 25t89 8q29 0 63.5 -2.5t64 -16.5t49.5 -43.5 t20 -82.5v-139l7 -198h109zM352 253q-21 -3 -43 -6q-19 -3 -40.5 -6t-40.5 -8q-103 -24 -103 -98q0 -23 16 -41.5t59 -18.5q23 0 49 7.5t49 17.5q26 11 54 26v127z" />
<glyph unicode="&#xe4;" horiz-adv-x="560" d="M32 0zM144 655q-5 0 -15 8t-20.5 18.5t-18.5 20.5t-8 15t8 15.5t18.5 21t20.5 18t15 7.5t15.5 -8t21 -18.5t18.5 -20.5t8 -15q0 -4 -7.5 -14t-18 -20.5t-21 -19t-16.5 -8.5zM362 655q-5 0 -15 8t-20.5 18.5t-18.5 20.5t-8 15t8 15.5t18.5 21t20.5 18t15 7.5t15.5 -8 t21 -18.5t18.5 -20.5t8 -15q0 -4 -7.5 -14t-18 -20.5t-21 -19t-16.5 -8.5zM561 35q-6 -6 -23 -13t-37 -13t-41 -10.5t-34 -4.5q-26 0 -40.5 8t-21.5 20t-9 27t-2 30q-7 -8 -23.5 -22.5t-41 -28.5t-56 -25t-68.5 -11q-27 0 -51 8t-42 24t-28.5 39.5t-10.5 55.5 q0 40 16.5 69.5t43.5 50.5t61 33t69 18q24 4 47 7t42 5q21 3 41 5v78q0 60 -32.5 81t-105.5 21q-29 0 -66.5 -6.5t-64.5 -14.5l-16 58q41 17 85 25t89 8q29 0 63.5 -2.5t64 -16.5t49.5 -43.5t20 -82.5v-139l7 -198h109zM352 253q-21 -3 -43 -6q-19 -3 -40.5 -6t-40.5 -8 q-103 -24 -103 -98q0 -23 16 -41.5t59 -18.5q23 0 49 7.5t49 17.5q26 11 54 26v127z" />
<glyph unicode="&#xe3;" horiz-adv-x="560" d="M32 0zM457 719q-8 -8 -18.5 -18t-25 -19t-32.5 -15.5t-40 -6.5q-15 0 -35.5 6.5t-41 15t-39.5 15t-31 6.5q-23 0 -41.5 -4.5t-36.5 -21.5l-27 33q7 8 17.5 19t24.5 21.5t32.5 17.5t41.5 7q18 0 41 -7t45 -15t41 -15t29 -7q16 0 28.5 3t21.5 7q11 4 19 11l27 -33v0z M561 35q-6 -6 -23 -13t-37 -13t-41 -10.5t-34 -4.5q-26 0 -40.5 8t-21.5 20t-9 27t-2 30q-7 -8 -23.5 -22.5t-41 -28.5t-56 -25t-68.5 -11q-27 0 -51 8t-42 24t-28.5 39.5t-10.5 55.5q0 40 16.5 69.5t43.5 50.5t61 33t69 18q24 4 47 7t42 5q21 3 41 5v78q0 60 -32.5 81 t-105.5 21q-29 0 -66.5 -6.5t-64.5 -14.5l-16 58q41 17 85 25t89 8q29 0 63.5 -2.5t64 -16.5t49.5 -43.5t20 -82.5v-139l7 -198h109zM352 253q-21 -3 -43 -6q-19 -3 -40.5 -6t-40.5 -8q-103 -24 -103 -98q0 -23 16 -41.5t59 -18.5q23 0 49 7.5t49 17.5q26 11 54 26v127z" />
<glyph unicode="&#xe5;" horiz-adv-x="560" d="M32 0zM561 35q-6 -6 -23 -13t-37 -13t-41 -10.5t-34 -4.5q-26 0 -40.5 8t-21.5 20t-9 27t-2 30q-7 -8 -23.5 -22.5t-41 -28.5t-56 -25t-68.5 -11q-27 0 -51 8t-42 24t-28.5 39.5t-10.5 55.5q0 40 16.5 69.5t43.5 50.5t61 33t69 18q24 4 47 7t42 5q21 3 41 5v78 q0 60 -32.5 81t-105.5 21q-29 0 -66.5 -6.5t-64.5 -14.5l-16 58q41 17 85 25t89 8q29 0 63.5 -2.5t64 -16.5t49.5 -43.5t20 -82.5v-139l7 -198h109zM352 253q-21 -3 -43 -6q-19 -3 -40.5 -6t-40.5 -8q-103 -24 -103 -98q0 -23 16 -41.5t59 -18.5q23 0 49 7.5t49 17.5 q26 11 54 26v127zM382 731q0 -25 -11 -43.5t-28 -31t-37.5 -19t-39.5 -6.5q-10 0 -30.5 2.5t-40.5 12.5t-35.5 30.5t-15.5 55.5q0 27 10 47t26.5 32.5t38 19t43.5 6.5q19 0 40 -4.5t39 -16.5t29.5 -32.5t11.5 -52.5zM320 733q0 26 -17 42.5t-41 16.5q-27 0 -41.5 -15 t-14.5 -42q0 -26 16.5 -43t41.5 -17q27 0 41.5 15.5t14.5 42.5z" />
<glyph unicode="&#x1fb;" horiz-adv-x="560" d="M32 0zM561 35q-6 -6 -23 -13t-37 -13t-41 -10.5t-34 -4.5q-26 0 -40.5 8t-21.5 20t-9 27t-2 30q-7 -8 -23.5 -22.5t-41 -28.5t-56 -25t-68.5 -11q-27 0 -51 8t-42 24t-28.5 39.5t-10.5 55.5q0 40 16.5 69.5t43.5 50.5t61 33t69 18q24 4 47 7t42 5q21 3 41 5v78 q0 60 -32.5 81t-105.5 21q-29 0 -66.5 -6.5t-64.5 -14.5l-16 58q41 17 85 25t89 8q29 0 63.5 -2.5t64 -16.5t49.5 -43.5t20 -82.5v-139l7 -198h109zM352 253q-21 -3 -43 -6q-19 -3 -40.5 -6t-40.5 -8q-103 -24 -103 -98q0 -23 16 -41.5t59 -18.5q23 0 49 7.5t49 17.5 q26 11 54 26v127zM388 705q0 -25 -11 -43.5t-28 -31t-37.5 -19t-39.5 -6.5q-10 0 -30 2.5t-40.5 12.5t-35.5 30.5t-15 55.5q0 27 10 47t26.5 32.5t37.5 19t44 6.5q19 0 40 -4.5t38.5 -16.5t29 -32.5t11.5 -52.5zM326 707q0 26 -16.5 42.5t-40.5 16.5q-27 0 -41.5 -15 t-14.5 -42q0 -26 16 -43t41 -17q27 0 41.5 15.5t14.5 42.5zM153 866q33 12 60.5 23t53.5 23.5t52 27.5t57 34l38 -75q-52 -27 -114.5 -46t-131.5 -33z" />
<glyph unicode="&#xe7;" horiz-adv-x="505" d="M46 0zM467 485q0 -20 -12.5 -41.5t-34.5 -34.5q-15 17 -29.5 31t-30.5 24.5t-35.5 16.5t-44.5 6q-69 0 -106 -49t-37 -162q0 -47 8 -85.5t28.5 -66.5t55 -43.5t88.5 -15.5q39 0 76 6.5t55 12.5l17 -52q-17 -11 -58.5 -26t-114.5 -15q-71 0 -118 18t-75.5 51.5t-40.5 81 t-12 106.5q0 154 72 231.5t210 77.5q11 0 34 -1.5t46.5 -8.5t41 -21.5t17.5 -40.5zM403 -168q0 -22 -11.5 -43.5t-30.5 -38.5t-44 -27.5t-51 -10.5q-25 0 -49 7t-47 23l35 62q20 -13 44.5 -20.5t46.5 -7.5q20 0 32.5 7.5t12.5 22.5q0 16 -11 27.5t-30 19t-43.5 13 t-52.5 10.5l54 128h63l-41 -74q62 -14 92.5 -34.5t30.5 -63.5z" />
<glyph unicode="&#x107;" horiz-adv-x="505" d="M46 0zM437 767q-50 -42 -103 -79.5t-108 -69.5l-29 43q101 76 179 167zM467 485q0 -20 -12.5 -41.5t-34.5 -34.5q-15 17 -29.5 31t-30.5 24.5t-35.5 16.5t-44.5 6q-69 0 -106 -49t-37 -162q0 -47 8 -85.5t28.5 -66.5t55 -43.5t88.5 -15.5q39 0 76 6.5t55 12.5l17 -52 q-17 -11 -58.5 -26t-114.5 -15q-71 0 -118 18t-75.5 51.5t-40.5 81t-12 106.5q0 154 72 231.5t210 77.5q11 0 34 -1.5t46.5 -8.5t41 -21.5t17.5 -40.5z" />
<glyph unicode="&#x10d;" horiz-adv-x="505" d="M46 0zM467 485q0 -20 -12.5 -41.5t-34.5 -34.5q-15 17 -29.5 31t-30.5 24.5t-35.5 16.5t-44.5 6q-69 0 -106 -49t-37 -162q0 -47 8 -85.5t28.5 -66.5t55 -43.5t88.5 -15.5q39 0 76 6.5t55 12.5l17 -52q-17 -11 -58.5 -26t-114.5 -15q-71 0 -118 18t-75.5 51.5t-40.5 81 t-12 106.5q0 154 72 231.5t210 77.5q11 0 34 -1.5t46.5 -8.5t41 -21.5t17.5 -40.5zM454 788q-52 -44 -92.5 -84.5t-82.5 -87.5q-17 20 -37.5 42.5t-42 45t-43 43t-40.5 35.5l41 43q38 -23 71.5 -51t61.5 -53q23 20 56 47.5t75 56.5l33 -37v0z" />
<glyph unicode="&#x111;" horiz-adv-x="622" d="M501 620v-347l4 -197h101l7 -39q-10 -6 -26.5 -13.5t-37 -14t-42 -11t-42.5 -4.5q-18 0 -28.5 8t-15.5 20t-6.5 26.5t-1.5 27.5q-11 -11 -25.5 -25t-33 -27t-41 -21.5t-47.5 -8.5q-38 0 -77.5 10t-71 38t-51.5 78t-20 131q0 69 20.5 124.5t55.5 94t81.5 59.5t99.5 21 q38 0 62.5 -3t48.5 -8v81h-179v64h179v80h87v-80h82v-64h-82zM414 473q-20 4 -46.5 9t-67.5 5q-50 0 -81 -18.5t-48 -51t-23.5 -76t-6.5 -93.5t10.5 -82.5t29.5 -51.5t46.5 -27t62.5 -8q21 0 39 4.5t32.5 11t26.5 13.5t22 12l4 153v200z" />
<glyph unicode="&#xe9;" horiz-adv-x="541" d="M46 0zM437 767q-50 -42 -103 -79.5t-108 -69.5l-29 43q101 76 179 167zM136 267q3 -66 18.5 -105.5t41 -60t59 -27t71.5 -6.5q42 0 77.5 4.5t66.5 12.5l16 -54q-29 -18 -77.5 -29t-109.5 -11q-54 0 -100 10.5t-80 39t-53.5 77.5t-19.5 127q0 73 17.5 131t50.5 98t79 61.5 t103 21.5q53 0 91.5 -18t63 -52t36 -82.5t11.5 -109.5v-28h-362zM396 324q0 85 -24.5 129.5t-84.5 44.5q-59 0 -101.5 -44.5t-48.5 -129.5h259z" />
<glyph unicode="&#xe8;" horiz-adv-x="541" d="M46 0zM211 828q78 -91 179 -167l-29 -43q-55 32 -108 69.5t-103 79.5zM136 267q3 -66 18.5 -105.5t41 -60t59 -27t71.5 -6.5q42 0 77.5 4.5t66.5 12.5l16 -54q-29 -18 -77.5 -29t-109.5 -11q-54 0 -100 10.5t-80 39t-53.5 77.5t-19.5 127q0 73 17.5 131t50.5 98t79 61.5 t103 21.5q53 0 91.5 -18t63 -52t36 -82.5t11.5 -109.5v-28h-362zM396 324q0 85 -24.5 129.5t-84.5 44.5q-59 0 -101.5 -44.5t-48.5 -129.5h259z" />
<glyph unicode="&#xea;" horiz-adv-x="541" d="M46 0zM119 659q52 44 92.5 84.5t82.5 87.5q16 -20 36.5 -42.5t42.5 -45t43.5 -43t40.5 -35.5l-41 -43q-38 23 -71.5 51t-61.5 53q-23 -20 -56 -47.5t-75 -56.5zM136 267q3 -66 18.5 -105.5t41 -60t59 -27t71.5 -6.5q42 0 77.5 4.5t66.5 12.5l16 -54q-29 -18 -77.5 -29 t-109.5 -11q-54 0 -100 10.5t-80 39t-53.5 77.5t-19.5 127q0 73 17.5 131t50.5 98t79 61.5t103 21.5q53 0 91.5 -18t63 -52t36 -82.5t11.5 -109.5v-28h-362zM396 324q0 85 -24.5 129.5t-84.5 44.5q-59 0 -101.5 -44.5t-48.5 -129.5h259z" />
<glyph unicode="&#xeb;" horiz-adv-x="541" d="M46 0zM163 655q-5 0 -15 8t-20.5 18.5t-18.5 20.5t-8 15t8 15.5t18.5 21t20.5 18t15 7.5t15.5 -8t21 -18.5t18.5 -20.5t8 -15q0 -4 -7.5 -14t-18 -20.5t-21 -19t-16.5 -8.5zM381 655q-5 0 -15 8t-20.5 18.5t-18.5 20.5t-8 15t8 15.5t18.5 21t20.5 18t15 7.5t15.5 -8 t21 -18.5t18.5 -20.5t8 -15q0 -4 -7.5 -14t-18 -20.5t-21 -19t-16.5 -8.5zM136 267q3 -66 18.5 -105.5t41 -60t59 -27t71.5 -6.5q42 0 77.5 4.5t66.5 12.5l16 -54q-29 -18 -77.5 -29t-109.5 -11q-54 0 -100 10.5t-80 39t-53.5 77.5t-19.5 127q0 73 17.5 131t50.5 98t79 61.5 t103 21.5q53 0 91.5 -18t63 -52t36 -82.5t11.5 -109.5v-28h-362zM396 324q0 85 -24.5 129.5t-84.5 44.5q-59 0 -101.5 -44.5t-48.5 -129.5h259z" />
<glyph unicode="&#xed;" horiz-adv-x="339" d="M33 0zM335 767q-50 -42 -103 -79.5t-108 -69.5l-29 43q101 76 179 167zM329 51v-10t-1 -14.5l-2 -15t-2 -11.5h-284q-2 11 -3 22.5t0 21.5l63 22q12 5 21.5 22.5t10.5 31.5l3 152v209h-102v50q13 3 32 7t39.5 7t40.5 5.5t37 2.5q21 0 30.5 -8t9.5 -28v-245l3 -183 q0 -13 4.5 -16.5t12.5 -5.5l87 -16v0z" />
<glyph unicode="&#xec;" horiz-adv-x="339" d="M1 0zM62 828q78 -91 179 -167l-29 -43q-55 32 -108 69.5t-103 79.5zM329 51v-10t-1 -14.5l-2 -15t-2 -11.5h-284q-2 11 -3 22.5t0 21.5l63 22q12 5 21.5 22.5t10.5 31.5l3 152v209h-102v50q13 3 32 7t39.5 7t40.5 5.5t37 2.5q21 0 30.5 -8t9.5 -28v-245l3 -183 q0 -13 4.5 -16.5t12.5 -5.5l87 -16v0z" />
<glyph unicode="&#xee;" horiz-adv-x="339" d="M0 0zM0 659q52 44 92.5 84.5t82.5 87.5q16 -20 36.5 -42.5t42.5 -45t43.5 -43t40.5 -35.5l-41 -43q-38 23 -71.5 51t-61.5 53q-23 -20 -56 -47.5t-75 -56.5zM329 51v-10t-1 -14.5l-2 -15t-2 -11.5h-284q-2 11 -3 22.5t0 21.5l63 22q12 5 21.5 22.5t10.5 31.5l3 152v209 h-102v50q13 3 32 7t39.5 7t40.5 5.5t37 2.5q21 0 30.5 -8t9.5 -28v-245l3 -183q0 -13 4.5 -16.5t12.5 -5.5l87 -16v0z" />
<glyph unicode="&#xef;" horiz-adv-x="339" d="M68 646q-5 0 -15 8t-20.5 18.5t-18.5 20.5t-8 15t8 15.5t18.5 21t20.5 18t15 7.5q4 0 14.5 -8t21.5 -18.5t19 -21t8 -14.5t-8 -14t-18.5 -20.5t-21 -19t-15.5 -8.5zM260 646q-5 0 -15 8t-20.5 18.5t-18.5 20.5t-8 15t8 15.5t18.5 21t20.5 18t15 7.5q4 0 14.5 -8 t21.5 -18.5t19 -21t8 -14.5t-8 -14t-18.5 -20.5t-21 -19t-15.5 -8.5zM329 51v-10t-1 -14.5l-2 -15t-2 -11.5h-284q-2 11 -3 22.5t0 21.5l63 22q12 5 21.5 22.5t10.5 31.5l3 152v209h-102v50q13 3 32 7t39.5 7t40.5 5.5t37 2.5q21 0 30.5 -8t9.5 -28v-245l3 -183 q0 -13 4.5 -16.5t12.5 -5.5l87 -16v0z" />
<glyph unicode="&#x131;" horiz-adv-x="339" d="M329 51v-10t-1 -14.5l-2 -15t-2 -11.5h-284q-2 11 -3 22.5t0 21.5l63 22q12 5 21.5 22.5t10.5 31.5l3 152v209h-102v50q13 3 32 7t39.5 7t40.5 5.5t37 2.5q21 0 30.5 -8t9.5 -28v-245l3 -183q0 -13 4.5 -16.5t12.5 -5.5l87 -16v0z" />
<glyph unicode="&#x140;" horiz-adv-x="390" d="M16 0zM356 295q-6 0 -18.5 9.5t-25 22.5t-22 25t-9.5 18t9.5 18.5t22.5 24.5t25.5 21.5t17.5 9.5t17.5 -9.5t25 -22t22 -24.5t9.5 -18q0 -5 -9 -17t-21.5 -25t-25 -23t-18.5 -10zM312 50v-10t-1 -14.5t-2 -14.5t-2 -11h-280q-2 11 -3 22.5t0 21.5l53 19q18 7 26 23t9 33 l5 154v421h-101v48q13 3 32 7t39.5 7.5t40.5 5.5t37 2q39 0 39 -39v-452l5 -187q0 -12 2 -14.5t10 -4.5l91 -17v0z" />
<glyph unicode="&#xf1;" horiz-adv-x="691" d="M30 0zM536 719q-8 -8 -18.5 -18t-25 -19t-32.5 -15.5t-40 -6.5q-15 0 -35.5 6.5t-41 15t-39.5 15t-31 6.5q-23 0 -41.5 -4.5t-36.5 -21.5l-27 33q7 8 17.5 19t24.5 21.5t32.5 17.5t41.5 7q18 0 41 -7t45 -15t41 -15t29 -7q16 0 28.5 3t21.5 7q11 4 19 11l27 -33v0z M680 51v-10t-0.5 -14.5t-1.5 -15t-2 -11.5h-240q-2 11 -3 24.5t0 23.5l28 19q16 11 23 26t7 29l3 151v84q0 34 -3.5 58t-15 38.5t-34 21t-60.5 6.5q-24 0 -49 -5t-47.5 -12t-40 -14.5t-26.5 -13.5v-163l3 -182q0 -12 1.5 -17t11.5 -7l88 -16v-10t-0.5 -14.5t-1.5 -15 t-2 -11.5h-267q-2 11 -3 22.5t0 21.5l46 22q17 8 25.5 26t8.5 32l3 149v207h-101v50q13 3 32 7t39.5 7t40.5 5t37 2q21 0 29 -8t8 -28v-30q15 11 34.5 23.5t44 23.5t54.5 18t67 7q57 0 89.5 -13.5t49.5 -38t21.5 -58.5t4.5 -74v-100l4 -192q0 -9 2 -11t11 -4l82 -15v0z" />
<glyph unicode="&#xf3;" d="M44 0zM446 767q-50 -42 -103 -79.5t-108 -69.5l-29 43q101 76 179 167zM537 273q0 -55 -19.5 -106t-53.5 -90t-80.5 -62t-99.5 -23q-56 0 -100.5 15.5t-75.5 49t-47.5 85.5t-16.5 125q0 56 20 108t53.5 92.5t79 65t96.5 24.5q122 0 183 -69t61 -215zM439 279 q0 38 -5.5 75.5t-22 67.5t-47.5 49t-82 19q-46 0 -74 -20.5t-43 -52.5t-20 -72t-5 -79q0 -43 6.5 -79.5t24.5 -63.5t49 -42t80 -15q45 0 72.5 18t42.5 48t19.5 68t4.5 79z" />
<glyph unicode="&#xf2;" d="M44 0zM217 828q78 -91 179 -167l-29 -43q-55 32 -108 69.5t-103 79.5zM537 273q0 -55 -19.5 -106t-53.5 -90t-80.5 -62t-99.5 -23q-56 0 -100.5 15.5t-75.5 49t-47.5 85.5t-16.5 125q0 56 20 108t53.5 92.5t79 65t96.5 24.5q122 0 183 -69t61 -215zM439 279 q0 38 -5.5 75.5t-22 67.5t-47.5 49t-82 19q-46 0 -74 -20.5t-43 -52.5t-20 -72t-5 -79q0 -43 6.5 -79.5t24.5 -63.5t49 -42t80 -15q45 0 72.5 18t42.5 48t19.5 68t4.5 79z" />
<glyph unicode="&#xf4;" d="M44 0zM132 659q52 44 92.5 84.5t82.5 87.5q16 -20 36.5 -42.5t42.5 -45t43.5 -43t40.5 -35.5l-41 -43q-38 23 -71.5 51t-61.5 53q-23 -20 -56 -47.5t-75 -56.5zM537 273q0 -55 -19.5 -106t-53.5 -90t-80.5 -62t-99.5 -23q-56 0 -100.5 15.5t-75.5 49t-47.5 85.5 t-16.5 125q0 56 20 108t53.5 92.5t79 65t96.5 24.5q122 0 183 -69t61 -215zM439 279q0 38 -5.5 75.5t-22 67.5t-47.5 49t-82 19q-46 0 -74 -20.5t-43 -52.5t-20 -72t-5 -79q0 -43 6.5 -79.5t24.5 -63.5t49 -42t80 -15q45 0 72.5 18t42.5 48t19.5 68t4.5 79z" />
<glyph unicode="&#xf6;" d="M44 0zM181 655q-5 0 -15 8t-20.5 18.5t-18.5 20.5t-8 15t8 15.5t18.5 21t20.5 18t15 7.5t15.5 -8t21 -18.5t18.5 -20.5t8 -15q0 -4 -7.5 -14t-18 -20.5t-21 -19t-16.5 -8.5zM399 655q-5 0 -15 8t-20.5 18.5t-18.5 20.5t-8 15t8 15.5t18.5 21t20.5 18t15 7.5t15.5 -8 t21 -18.5t18.5 -20.5t8 -15q0 -4 -7.5 -14t-18 -20.5t-21 -19t-16.5 -8.5zM537 273q0 -55 -19.5 -106t-53.5 -90t-80.5 -62t-99.5 -23q-56 0 -100.5 15.5t-75.5 49t-47.5 85.5t-16.5 125q0 56 20 108t53.5 92.5t79 65t96.5 24.5q122 0 183 -69t61 -215zM439 279 q0 38 -5.5 75.5t-22 67.5t-47.5 49t-82 19q-46 0 -74 -20.5t-43 -52.5t-20 -72t-5 -79q0 -43 6.5 -79.5t24.5 -63.5t49 -42t80 -15q45 0 72.5 18t42.5 48t19.5 68t4.5 79z" />
<glyph unicode="&#xf5;" d="M44 0zM475 719q-8 -8 -18.5 -18t-25 -19t-32.5 -15.5t-40 -6.5q-15 0 -35.5 6.5t-41 15t-39.5 15t-31 6.5q-23 0 -41.5 -4.5t-36.5 -21.5l-27 33q7 8 17.5 19t24.5 21.5t32.5 17.5t41.5 7q18 0 41 -7t45 -15t41 -15t29 -7q16 0 28.5 3t21.5 7q11 4 19 11l27 -33v0z M537 273q0 -55 -19.5 -106t-53.5 -90t-80.5 -62t-99.5 -23q-56 0 -100.5 15.5t-75.5 49t-47.5 85.5t-16.5 125q0 56 20 108t53.5 92.5t79 65t96.5 24.5q122 0 183 -69t61 -215zM439 279q0 38 -5.5 75.5t-22 67.5t-47.5 49t-82 19q-46 0 -74 -20.5t-43 -52.5t-20 -72t-5 -79 q0 -43 6.5 -79.5t24.5 -63.5t49 -42t80 -15q45 0 72.5 18t42.5 48t19.5 68t4.5 79z" />
<glyph unicode="&#xf8;" horiz-adv-x="580" d="M490 467q47 -68 47 -194q0 -55 -19.5 -105.5t-53.5 -89.5t-80.5 -62t-99.5 -23q-50 0 -90.5 12t-70.5 38l-75 -79l-38 32l79 86q-22 32 -33.5 78t-11.5 107q0 56 20 108t53.5 91.5t79 63.5t96.5 24q105 0 164 -50l65 81l37 -32zM401 437q-18 23 -46.5 36.5t-72.5 13.5 q-46 0 -74 -20t-43 -51.5t-20 -71t-5 -78.5q0 -31 3.5 -59t11.5 -51q65 72 127.5 143.5t118.5 137.5zM439 279q0 29 -3 56.5t-11 53.5q-57 -69 -119.5 -141.5t-122.5 -138.5q18 -20 46.5 -31t70.5 -11q45 0 72.5 18t42.5 47.5t19.5 67.5t4.5 79z" />
<glyph unicode="&#x1ff;" horiz-adv-x="580" d="M10 0zM436 767q-50 -42 -103 -79.5t-108 -69.5l-29 43q101 76 179 167zM490 467q47 -68 47 -194q0 -55 -19.5 -105.5t-53.5 -89.5t-80.5 -62t-99.5 -23q-50 0 -90.5 12t-70.5 38l-75 -79l-38 32l79 86q-22 32 -33.5 78t-11.5 107q0 56 20 108t53.5 91.5t79 63.5t96.5 24 q105 0 164 -50l65 81l37 -32zM401 437q-18 23 -46.5 36.5t-72.5 13.5q-46 0 -74 -20t-43 -51.5t-20 -71t-5 -78.5q0 -31 3.5 -59t11.5 -51q65 72 127.5 143.5t118.5 137.5zM439 279q0 29 -3 56.5t-11 53.5q-57 -69 -119.5 -141.5t-122.5 -138.5q18 -20 46.5 -31t70.5 -11 q45 0 72.5 18t42.5 47.5t19.5 67.5t4.5 79z" />
<glyph unicode="&#x161;" horiz-adv-x="471" d="M45 0zM427 150q0 -47 -18 -78t-47.5 -49t-66.5 -25.5t-75 -7.5q-56 0 -99.5 10.5t-75.5 25.5l8 156l47 -1q0 -26 9 -50t25.5 -42.5t40 -29.5t53.5 -11q23 0 44 4t37 13t25.5 23.5t9.5 36.5q0 34 -30 55t-97 48q-28 11 -56 25.5t-50 35t-35.5 48.5t-13.5 67q0 40 15 68.5 t41 47.5t61 28t75 9q39 0 81.5 -8.5t78.5 -26.5l-17 -133l-37 4q-7 44 -42 73.5t-83 29.5q-45 0 -71 -20t-26 -49q0 -23 10.5 -38.5t28 -27.5t40.5 -21.5t47 -19.5q29 -12 58 -26.5t52.5 -34.5t38 -46.5t14.5 -62.5zM409 788q-52 -44 -92.5 -84.5t-82.5 -87.5 q-17 20 -37.5 42.5t-42 45t-43 43t-40.5 35.5l41 43q38 -23 71.5 -51t61.5 -53q23 20 56 47.5t75 56.5l33 -37v0z" />
<glyph unicode="&#xdf;" horiz-adv-x="695" d="M672 150q0 -47 -18.5 -78t-48 -49t-66.5 -25.5t-75 -7.5q-28 0 -49.5 3t-39.5 7.5t-34 11t-32 14.5l6 136l18 2q8 1 16.5 0.5t16.5 -2.5q3 -21 8.5 -41.5t17 -36.5t31 -26t49.5 -10q23 0 44 4.5t37 15t25.5 27.5t9.5 42t-19.5 41.5t-48.5 29.5t-63 26t-63 32t-48.5 47 t-19.5 71q0 39 22.5 67t49 52t49 48t22.5 54q0 32 -10.5 51.5t-28.5 30t-41 14t-47 3.5t-47 -6.5t-41 -20.5t-28.5 -37t-10.5 -56v-311l7 -273h-185q-2 11 -3 22.5t0 21.5l57 24q14 6 23.5 23t9.5 37l3 145v207h-80v49l80 17v19q0 40 16.5 77t45.5 65.5t70 45.5t89 17 q30 0 67.5 -5t71.5 -21.5t57 -48t23 -85.5q0 -26 -11.5 -47.5t-28.5 -39.5t-36.5 -33.5t-36.5 -30t-28.5 -29t-11.5 -29.5q0 -24 19 -39.5t48 -28t62 -25.5t62 -33t48 -50t19 -75z" />
<glyph unicode="&#xfa;" horiz-adv-x="665" d="M20 0zM467 767q-50 -42 -103 -79.5t-108 -69.5l-29 43q101 76 179 167zM660 35q-8 -4 -22.5 -11t-33 -13.5t-39.5 -11.5t-40 -5q-13 0 -25.5 3.5t-22.5 12t-17 23t-8 37.5q-16 -15 -34 -29.5t-39.5 -26t-48 -19t-60.5 -7.5q-54 0 -85.5 12.5t-48 34.5t-21.5 52t-5 65v328 h-90v49q13 3 31 7t36.5 7.5t37.5 5.5t36 2q21 0 29.5 -8t8.5 -28v-241l3 -94q1 -24 3.5 -45.5t11.5 -38t26 -26t46 -9.5q42 0 80.5 21.5t78.5 53.5l4 136v208h-101v48q13 3 31.5 7t39 7.5t41 6t37.5 2.5q21 0 30 -8t9 -28v-242l3 -198h111z" />
<glyph unicode="&#xf9;" horiz-adv-x="665" d="M20 0zM221 840q78 -91 179 -167l-29 -43q-55 32 -108 69.5t-103 79.5zM660 35q-8 -4 -22.5 -11t-33 -13.5t-39.5 -11.5t-40 -5q-13 0 -25.5 3.5t-22.5 12t-17 23t-8 37.5q-16 -15 -34 -29.5t-39.5 -26t-48 -19t-60.5 -7.5q-54 0 -85.5 12.5t-48 34.5t-21.5 52t-5 65v328 h-90v49q13 3 31 7t36.5 7.5t37.5 5.5t36 2q21 0 29.5 -8t8.5 -28v-241l3 -94q1 -24 3.5 -45.5t11.5 -38t26 -26t46 -9.5q42 0 80.5 21.5t78.5 53.5l4 136v208h-101v48q13 3 31.5 7t39 7.5t41 6t37.5 2.5q21 0 30 -8t9 -28v-242l3 -198h111z" />
<glyph unicode="&#xfb;" horiz-adv-x="665" d="M20 0zM143 659q52 44 92.5 84.5t82.5 87.5q16 -20 36.5 -42.5t42.5 -45t43.5 -43t40.5 -35.5l-41 -43q-38 23 -71.5 51t-61.5 53q-23 -20 -56 -47.5t-75 -56.5zM660 35q-8 -4 -22.5 -11t-33 -13.5t-39.5 -11.5t-40 -5q-13 0 -25.5 3.5t-22.5 12t-17 23t-8 37.5 q-16 -15 -34 -29.5t-39.5 -26t-48 -19t-60.5 -7.5q-54 0 -85.5 12.5t-48 34.5t-21.5 52t-5 65v328h-90v49q13 3 31 7t36.5 7.5t37.5 5.5t36 2q21 0 29.5 -8t8.5 -28v-241l3 -94q1 -24 3.5 -45.5t11.5 -38t26 -26t46 -9.5q42 0 80.5 21.5t78.5 53.5l4 136v208h-101v48 q13 3 31.5 7t39 7.5t41 6t37.5 2.5q21 0 30 -8t9 -28v-242l3 -198h111z" />
<glyph unicode="&#xfc;" horiz-adv-x="665" d="M20 0zM203 655q-5 0 -15 8t-20.5 18.5t-18.5 20.5t-8 15t8 15.5t18.5 21t20.5 18t15 7.5t15.5 -8t21 -18.5t18.5 -20.5t8 -15q0 -4 -7.5 -14t-18 -20.5t-21 -19t-16.5 -8.5zM421 655q-5 0 -15 8t-20.5 18.5t-18.5 20.5t-8 15t8 15.5t18.5 21t20.5 18t15 7.5t15.5 -8 t21 -18.5t18.5 -20.5t8 -15q0 -4 -7.5 -14t-18 -20.5t-21 -19t-16.5 -8.5zM660 35q-8 -4 -22.5 -11t-33 -13.5t-39.5 -11.5t-40 -5q-13 0 -25.5 3.5t-22.5 12t-17 23t-8 37.5q-16 -15 -34 -29.5t-39.5 -26t-48 -19t-60.5 -7.5q-54 0 -85.5 12.5t-48 34.5t-21.5 52t-5 65v328 h-90v49q13 3 31 7t36.5 7.5t37.5 5.5t36 2q21 0 29.5 -8t8.5 -28v-241l3 -94q1 -24 3.5 -45.5t11.5 -38t26 -26t46 -9.5q42 0 80.5 21.5t78.5 53.5l4 136v208h-101v48q13 3 31.5 7t39 7.5t41 6t37.5 2.5q21 0 30 -8t9 -28v-242l3 -198h111z" />
<glyph unicode="&#xff;" horiz-adv-x="554" d="M2 0zM167 655q-5 0 -15 8t-20.5 18.5t-18.5 20.5t-8 15t8 15.5t18.5 21t20.5 18t15 7.5t15.5 -8t21 -18.5t18.5 -20.5t8 -15q0 -4 -7.5 -14t-18 -20.5t-21 -19t-16.5 -8.5zM385 655q-5 0 -15 8t-20.5 18.5t-18.5 20.5t-8 15t8 15.5t18.5 21t20.5 18t15 7.5t15.5 -8 t21 -18.5t18.5 -20.5t8 -15q0 -4 -7.5 -14t-18 -20.5t-21 -19t-16.5 -8.5zM551 546q0 -13 -0.5 -25.5t-3.5 -21.5l-16 -6t-16 -10t-16 -20t-17 -36l-200 -507q-20 -50 -48.5 -89.5t-70.5 -66.5l-55 71q24 15 47.5 37t43.5 51q12 17 22 37t17 43l-171 440q-6 14 -22.5 31.5 t-42.5 26.5v23t4 22h221q0 -15 -1 -29t-3 -23h-77l146 -387l120 314q8 22 1.5 43.5t-29.5 29.5l-21 8q-1 2 -1 4v9q0 8 0.5 17t1.5 14h187v0z" />
<glyph unicode="&#xfd;" horiz-adv-x="554" d="M2 0zM455 767q-50 -42 -103 -79.5t-108 -69.5l-29 43q101 76 179 167zM551 546q0 -13 -0.5 -25.5t-3.5 -21.5l-16 -6t-16 -10t-16 -20t-17 -36l-200 -507q-20 -50 -48.5 -89.5t-70.5 -66.5l-55 71q24 15 47.5 37t43.5 51q12 17 22 37t17 43l-171 440q-6 14 -22.5 31.5 t-42.5 26.5v23t4 22h221q0 -15 -1 -29t-3 -23h-77l146 -387l120 314q8 22 1.5 43.5t-29.5 29.5l-21 8q-1 2 -1 4v9q0 8 0.5 17t1.5 14h187v0z" />
<glyph unicode="&#x17e;" horiz-adv-x="536" d="M36 0zM441 788q-52 -44 -92.5 -84.5t-82.5 -87.5q-17 20 -37.5 42.5t-42 45t-43 43t-40.5 35.5l41 43q38 -23 71.5 -51t61.5 -53q23 20 56 47.5t75 56.5l33 -37v0zM476 0h-428l-12 35l330 436h-191q-30 0 -53.5 -18t-48.5 -50q-8 2 -19 7q-6 3 -12 5l34 131h386l15 -40 l-322 -432h189q18 0 35 9.5t33 24t29 32.5t24 36q8 -2 14.5 -3.5t11.5 -3.5l12 -4z" />
<glyph unicode="&#xfe;" horiz-adv-x="592" d="M545 289q0 -86 -23 -143t-60.5 -91t-86 -48.5t-99.5 -14.5q-36 0 -55.5 1.5t-39.5 4.5l6 -130q0 -8 2.5 -13.5t16.5 -8.5l80 -15q1 -8 0.5 -24.5t-4.5 -26.5h-257q-3 16 -3.5 28.5t0.5 18.5l26 15q14 8 25.5 24t11.5 39l3 370v419h-101v48q13 3 32 7t39.5 7.5t40.5 5.5 t37 2q39 0 39 -39v-222q28 20 62 34.5t79 14.5q118 0 173.5 -67.5t55.5 -195.5zM448 269q0 37 -7.5 75.5t-25 69.5t-45.5 50.5t-70 19.5q-20 0 -39.5 -4t-36 -9.5t-29 -11t-19.5 -9.5v-177l3 -208q9 -2 16 -3t16.5 -2.5t25 -2t42.5 -0.5q45 0 77 16t52.5 44t30 67t9.5 85z " />
<glyph unicode="&#xf0;" horiz-adv-x="603" d="M285 -7q-56 0 -100.5 15.5t-75.5 48.5t-47.5 85t-16.5 125q0 56 20 108t53.5 91.5t79 63.5t96.5 24q38 0 68.5 -5t56.5 -21q-5 32 -21.5 60.5t-41.5 54.5l-147 -54l-17 47l124 44q-28 23 -58.5 42t-61.5 35l53 47q45 -20 82.5 -42t67.5 -51l146 53l17 -46l-126 -46 q26 -33 45.5 -69.5t32 -82t18.5 -101.5t6 -126q0 -64 -19.5 -119t-53.5 -95t-80.5 -63t-99.5 -23zM301 66q45 0 73 19t43.5 50t21 68.5t5.5 75.5q0 39 -6.5 76t-24 66.5t-49 47.5t-81.5 18q-46 0 -74.5 -20t-44.5 -51.5t-21.5 -71t-5.5 -78.5q0 -43 7.5 -79.5t26 -63.5 t50 -42t80.5 -15z" />
<glyph unicode="&#xe6;" horiz-adv-x="847" d="M442 249q2 -57 17.5 -92t41.5 -55t61.5 -27t77.5 -7q29 0 67.5 4.5t67.5 12.5l16 -54q-13 -9 -33 -16t-43.5 -12.5t-49 -8.5t-50.5 -3q-42 0 -77.5 4.5t-65 15.5t-52 30.5t-37.5 48.5q-45 -41 -100.5 -69.5t-118.5 -28.5q-27 0 -51 8t-42 24t-28.5 39.5t-10.5 55.5 q0 40 16.5 69.5t43.5 50.5t61 33t69 18q31 5 67.5 8t62.5 5v83q0 60 -32.5 81t-105.5 21q-29 0 -66.5 -6.5t-64.5 -14.5l-16 58q41 17 85 25t89 8q22 0 48.5 -1.5t52.5 -9t48.5 -23t34.5 -43.5q32 37 75.5 57.5t96.5 20.5q55 0 94.5 -18.5t64 -53t36 -83t11.5 -109.5v-32z M701 324q0 85 -24.5 130.5t-87.5 45.5q-58 0 -97.5 -45.5t-47.5 -146.5zM367 132q-14 45 -16 114q-12 0 -28 -1t-32.5 -2.5t-33 -4t-29.5 -5.5q-103 -24 -103 -98q0 -23 16 -41.5t59 -18.5q16 0 38 6t45.5 14.5t45.5 18.5t38 18z" />
<glyph unicode="&#x1fd;" horiz-adv-x="847" d="M32 0zM596 767q-50 -42 -103 -79.5t-108 -69.5l-29 43q101 76 179 167zM442 249q2 -57 17.5 -92t41.5 -55t61.5 -27t77.5 -7q29 0 67.5 4.5t67.5 12.5l16 -54q-13 -9 -33 -16t-43.5 -12.5t-49 -8.5t-50.5 -3q-42 0 -77.5 4.5t-65 15.5t-52 30.5t-37.5 48.5 q-45 -41 -100.5 -69.5t-118.5 -28.5q-27 0 -51 8t-42 24t-28.5 39.5t-10.5 55.5q0 40 16.5 69.5t43.5 50.5t61 33t69 18q31 5 67.5 8t62.5 5v83q0 60 -32.5 81t-105.5 21q-29 0 -66.5 -6.5t-64.5 -14.5l-16 58q41 17 85 25t89 8q22 0 48.5 -1.5t52.5 -9t48.5 -23t34.5 -43.5 q32 37 75.5 57.5t96.5 20.5q55 0 94.5 -18.5t64 -53t36 -83t11.5 -109.5v-32zM701 324q0 85 -24.5 130.5t-87.5 45.5q-58 0 -97.5 -45.5t-47.5 -146.5zM367 132q-14 45 -16 114q-12 0 -28 -1t-32.5 -2.5t-33 -4t-29.5 -5.5q-103 -24 -103 -98q0 -23 16 -41.5t59 -18.5 q16 0 38 6t45.5 14.5t45.5 18.5t38 18z" />
<glyph unicode="&#x153;" horiz-adv-x="940" d="M535 267q3 -68 19 -107.5t42 -59.5t61 -26t76 -6q29 0 68 4.5t68 12.5l16 -54q-13 -9 -33 -16t-43.5 -12.5t-49 -8.5t-50.5 -3q-43 0 -79 4.5t-65.5 16t-52.5 31.5t-38 51q-33 -46 -82 -73.5t-108 -27.5q-56 0 -100.5 15.5t-75.5 48.5t-47.5 85t-16.5 125q0 56 20 108 t53.5 91.5t79 63.5t96.5 24q148 0 204 -103q32 50 81.5 79t112.5 29q55 0 94 -18.5t63.5 -53t36 -83t11.5 -109.5v-28h-361zM794 324q0 85 -24 130.5t-87 45.5q-57 0 -99 -45t-49 -131h259zM443 279q0 38 -6 75t-23.5 66.5t-49 48t-82.5 18.5q-46 0 -74.5 -20t-44.5 -51.5 t-21.5 -71t-5.5 -78.5q0 -43 7.5 -79.5t26 -63.5t50 -42t80.5 -15q45 0 73 18t43.5 48t21 68t5.5 79z" />
<glyph unicode="&#x133;" horiz-adv-x="679" d="M34 0zM41 0q-3 22 -3 44l63 22q12 5 21.5 22.5t10.5 31.5l3 152v208h-102v51q13 3 32 7t39.5 7t40.5 5.5t37 2.5q21 0 30.5 -8t9.5 -28v-245l3 -183q0 -13 4.5 -16.5t12.5 -5.5l87 -16v-10t-1 -14.5l-2 -15t-2 -11.5h-284zM178 640q-6 0 -18.5 9.5t-24.5 22.5t-21.5 25 t-9.5 18t9.5 18.5t22 25t24.5 21.5t18 9q5 0 17.5 -9.5t25 -22t22.5 -24.5t10 -18q0 -5 -9.5 -17t-22 -25t-25 -23t-18.5 -10zM412 -224q-21 0 -35.5 2t-24.5 6l9 65q10 -2 21 -4q9 -2 20 -3t22 -1q27 0 43 8.5t24.5 24.5t11.5 39.5t3 54.5v512h-100v51q13 3 32 7t39.5 7 t40.5 5.5t37 2.5q21 0 29.5 -8t8.5 -28v-245l5 -275q1 -51 -13.5 -92t-40 -69.5t-60 -44t-72.5 -15.5zM549 641q-6 0 -18 9.5t-24.5 22.5t-22 25t-9.5 18t9.5 18.5t22 25t25 21.5t17.5 9q6 0 18 -9.5t25 -22t22.5 -24.5t9.5 -18q0 -5 -9.5 -17t-22 -25t-25 -23t-18.5 -10z " />
<glyph unicode="," horiz-adv-x="254" d="M211 29q0 -30 -12 -62.5t-31.5 -63t-44.5 -55.5t-50 -40l-35 31q10 11 23.5 24.5t25 28.5t19.5 32t9 35q-9 6 -22 17t-24 23.5t-19 24t-8 16.5q0 7 10.5 20.5t25 27.5t28 24.5t19.5 10.5q8 0 22.5 -11t28.5 -26t24.5 -31t10.5 -26z" />
<glyph unicode="." horiz-adv-x="251" d="M210 35q0 -5 -10.5 -19t-24.5 -28.5t-28.5 -26t-21.5 -11.5q-6 0 -20 11t-28 25t-24.5 28.5t-10.5 20.5q0 7 10.5 20.5t25 27.5t28 24.5t19.5 10.5t20.5 -10.5t28.5 -24.5t25 -28t11 -20z" />
<glyph unicode=":" horiz-adv-x="306" d="M237 485q0 -5 -10.5 -19t-24.5 -28.5t-28.5 -26t-21.5 -11.5q-6 0 -20 11t-28 25t-24.5 28.5t-10.5 20.5q0 7 10.5 20.5t25 27.5t28 24.5t19.5 10.5t20.5 -10.5t28.5 -24.5t25 -28t11 -20zM237 35q0 -5 -10.5 -19t-24.5 -28.5t-28.5 -26t-21.5 -11.5q-6 0 -20 11t-28 25 t-24.5 28.5t-10.5 20.5q0 7 10.5 20.5t25 27.5t28 24.5t19.5 10.5t20.5 -10.5t28.5 -24.5t25 -28t11 -20z" />
<glyph unicode=";" horiz-adv-x="307" d="M233 484q0 -5 -10.5 -19t-25 -28.5t-28.5 -26t-21 -11.5q-6 0 -20 11t-28 25t-24.5 28.5t-10.5 20.5q0 7 10.5 20.5t25 27.5t28 24.5t19.5 10.5t20.5 -10.5t28.5 -24.5t25 -28t11 -20zM244 29q0 -30 -12 -62.5t-31.5 -63t-44.5 -55.5t-50 -40l-35 31q10 11 23.5 24.5 t25 28.5t19.5 32t8 35q-9 6 -21.5 17t-23.5 23.5t-19 24t-8 16.5q0 7 10.5 20.5t25 27.5t28 24.5t19.5 10.5q8 0 22.5 -11t28.5 -26t24.5 -31t10.5 -26z" />
<glyph unicode="?" horiz-adv-x="366" d="M359 584q0 -37 -15 -69.5t-37 -61t-48 -54.5t-48 -51.5t-37 -50.5t-15 -52q0 -7 1 -15t3 -16q2 -9 5 -17l-74 -17q-7 16 -12 32q-5 13 -8.5 27t-3.5 23q0 28 15.5 55.5t38 54.5t49.5 53t49.5 51.5t38 49.5t15.5 48q0 7 -5 18t-18 21.5t-35.5 17.5t-56.5 7q-20 0 -35 -2 t-29 -6t-29.5 -9t-37.5 -12q-13 25 -13 43q0 22 11 35.5t28.5 20.5t38.5 9.5t41 2.5q49 0 90 -10.5t70.5 -29t46 -43.5t16.5 -53zM229 35q0 -5 -10.5 -19t-24.5 -28.5t-28.5 -26t-21.5 -11.5q-6 0 -20 11t-28 25t-24.5 28.5t-10.5 20.5q0 7 10.5 20.5t25 27.5t28 24.5 t19.5 10.5t20.5 -10.5t28.5 -24.5t25 -28t11 -20z" />
<glyph unicode="&#xbf;" horiz-adv-x="367" d="M307 658q0 -7 -11 -20.5t-25 -27.5t-28 -24.5t-20 -10.5t-20 10.5t-28 24.5t-25 28t-11 20q0 5 10.5 19t24.5 28.5t28 26t21 11.5q6 0 20 -11t28.5 -25t25 -28.5t10.5 -20.5zM351 42q0 -23 -11.5 -36.5t-29 -20.5t-38.5 -9.5t-41 -2.5q-49 0 -90 10.5t-70.5 29t-46 43.5 t-16.5 53q0 37 15 69.5t37 61t48 54.5t48 51.5t37 50.5t15 52q0 7 -1.5 15t-3.5 16q-2 9 -4 17l75 17q6 -17 11 -32q5 -14 8.5 -27.5t3.5 -22.5q0 -28 -15.5 -55.5t-38 -54.5t-49.5 -53t-49.5 -51.5t-38 -50t-15.5 -47.5q0 -7 5 -18t18 -21t35.5 -17.5t56.5 -7.5q20 0 35 2 t29.5 5.5t30 9t36.5 12.5q14 -25 14 -42z" />
<glyph unicode="!" horiz-adv-x="276" d="M174 211h-71l-23 511l58 30l59 -30zM222 50q0 -5 -10.5 -19t-24.5 -28.5t-28.5 -26t-21.5 -11.5q-6 0 -20 11t-28 25t-24.5 28.5t-10.5 20.5q0 7 10.5 20.5t25 27.5t28 24.5t19.5 10.5t20.5 -10.5t28.5 -24.5t25 -28t11 -20z" />
<glyph unicode="&#xa1;" horiz-adv-x="273" d="M220 657q0 -7 -10.5 -21t-25 -28t-28 -24.5t-19.5 -10.5t-20.5 10.5t-28.5 24.5t-25 28t-11 21q0 5 10.5 19t24.5 28.5t28 25.5t22 11q6 0 20 -11t28 -25t24.5 -28t10.5 -20zM136 -45l-58 30l23 511h71l23 -511z" />
<glyph unicode="&#xad;" horiz-adv-x="453" d="M87 335v66l281 16v-83z" />
<glyph unicode="-" horiz-adv-x="453" d="M87 335v66l281 16v-83z" />
<glyph unicode="&#x2013;" horiz-adv-x="622" d="M91 341v66h440v-66h-440z" />
<glyph unicode="&#x2014;" horiz-adv-x="1072" d="M91 341v66h890v-66h-890z" />
<glyph unicode="_" horiz-adv-x="500" d="M0 -163v66h500v-66h-500z" />
<glyph horiz-adv-x="725" d="M345 -136q-75 0 -130.5 24t-92.5 68t-55.5 105t-18.5 136q0 121 32 207.5t86.5 141t126.5 80t153 25.5q57 0 104.5 -16t81.5 -50t53 -87.5t19 -129.5q0 -78 -18.5 -132t-48.5 -87.5t-68.5 -48.5t-78.5 -15q-34 0 -55.5 16.5t-20.5 48.5q-11 -11 -25 -21.5t-29 -18.5 t-30.5 -13t-27.5 -5q-20 0 -37.5 6t-30.5 20t-20 38t-7 59q0 52 14.5 93.5t40.5 70.5t62 44.5t80 15.5q29 0 60.5 -7t47.5 -15l-25 -224q-5 -45 16 -45q15 0 39.5 6.5t47 29t39 66t16.5 116.5q0 67 -15.5 111.5t-42.5 71t-64 37.5t-80 11q-64 0 -124 -19t-106.5 -64.5 t-74.5 -120t-28 -185.5q0 -80 16.5 -134.5t48 -88t77 -48.5t103.5 -15q38 0 78 5.5t69 12.5l13 -50q-40 -17 -79.5 -21.5t-90.5 -4.5zM330 157q28 0 49.5 17.5t35.5 34.5l19 169q-15 5 -33 5q-36 0 -58.5 -13.5t-34.5 -36.5t-16.5 -53t-4.5 -62q0 -19 4.5 -31t11 -18.5 t14 -9t13.5 -2.5z" />
<glyph unicode="&#x26;" horiz-adv-x="741" d="M781 21q-10 -12 -35 -25.5t-53 -13.5q-58 0 -122 25.5t-127 68.5q-15 -16 -35 -31.5t-43.5 -27.5t-49 -19t-51.5 -7q-38 0 -73.5 7.5t-63.5 27t-44.5 53t-16.5 84.5q0 33 11 60t29 50t41 42t48 37q-20 39 -32.5 77.5t-12.5 74.5q0 45 15.5 84.5t42 68.5t62 45.5 t75.5 16.5q77 0 109 -35t32 -89q0 -37 -19 -69.5t-48 -61t-62.5 -53t-63.5 -43.5q35 -58 83 -108.5t102 -92.5q16 26 23 48.5t6 33.5q0 19 -13 32.5t-43 28.5q0 11 0.5 19.5t2.5 20.5h170v-24q-5 -13 -17.5 -35t-29 -47.5t-35.5 -51t-36 -45.5q35 -25 69 -44t66 -32 q14 -6 31.5 -10.5t35 -7.5t34 -3.5t29.5 2.5zM396 585q0 33 -20 53.5t-52 20.5q-37 0 -62.5 -24.5t-25.5 -83.5q0 -38 9 -73.5t28 -72.5q58 43 90.5 85.5t32.5 94.5zM413 99q-59 45 -109.5 99.5t-85.5 114.5q-22 -20 -37.5 -47.5t-15.5 -70.5q0 -35 9.5 -60.5t25.5 -42 t37 -24.5t44 -8q37 0 69 11t63 28z" />
<glyph unicode="/" horiz-adv-x="313" d="M72 -62h-69l239 831h68z" />
<glyph unicode="\" horiz-adv-x="313" d="M3 769h68l239 -831h-69z" />
<glyph unicode="|" horiz-adv-x="238" d="M85 -220v974h68v-974h-68z" />
<glyph unicode="(" horiz-adv-x="299" d="M247 -133q-9 8 -28 26.5t-42.5 48t-48 71t-45 94t-33.5 117t-13 141.5t13 140.5t33.5 114t45 89t48 65.5t42.5 43t28 23l38 -42q-14 -11 -44.5 -42.5t-61.5 -84.5t-54.5 -129t-23.5 -176q0 -102 24 -181.5t55 -136.5t61.5 -92t43.5 -47l-38 -42v0z" />
<glyph unicode=")" horiz-adv-x="299" d="M262 365q0 -77 -13 -141.5t-33.5 -117t-45 -94t-48 -71t-42.5 -48t-28 -26.5l-38 42q13 12 43.5 47t61.5 92t55 136.5t24 181.5q0 100 -23.5 176t-54.5 129t-61.5 84.5t-43.5 42.5l37 42q9 -7 28 -23t42.5 -43t48 -65.5t45 -89t33.5 -114t13 -140.5z" />
<glyph unicode="[" horiz-adv-x="287" d="M87 -113v937h158v-59h-90v-819h90v-59h-158z" />
<glyph unicode="]" horiz-adv-x="287" d="M42 -113v59h90v819h-90v59h158v-937h-158z" />
<glyph unicode="{" horiz-adv-x="315" d="M279 -111q-40 -2 -76.5 5t-63.5 26.5t-41 53t-9 83.5l21 173q5 45 -13 73t-66 28v54q47 0 65.5 28t13.5 74l-21 180q-5 45 7.5 75.5t37.5 48.5t59.5 25.5t74.5 6.5l35 -1l-1 -55h-26q-66 0 -97.5 -22.5t-24.5 -81.5l21 -166q1 -8 1.5 -14.5t0.5 -12.5q0 -49 -20 -74.5 t-49 -36.5q29 -11 47.5 -41t18.5 -75v-10t-1 -10l-21 -167q-6 -58 22 -84t102 -26h26l1 -56z" />
<glyph unicode="}" horiz-adv-x="315" d="M284 331q-48 0 -66 -28.5t-13 -72.5l21 -173q5 -51 -9 -84t-41 -52.5t-63.5 -26.5t-76.5 -5l-24 1l1 56h26q73 0 101.5 26.5t22.5 83.5l-21 167q-1 5 -1 10.5v10.5q0 45 18.5 75t47.5 40q-29 11 -49 36.5t-20 74.5q0 6 0.5 12.5t1.5 14.5l21 166q6 59 -25 81.5t-97 22.5 h-26l-2 55h35q40 1 75 -6t59.5 -25t37 -48.5t8.5 -75.5l-21 -180q-5 -45 13.5 -73.5t65.5 -28.5v-54v0z" />
<glyph unicode="&#xa7;" horiz-adv-x="495" d="M35 0zM471 719q0 -20 -8 -36t-22 -29q-6 5 -19.5 14t-28.5 17.5t-29 15t-21 6.5q-15 0 -25 -7t-16 -18t-8 -24.5t-2 -25.5q0 -18 2.5 -36t6.5 -36l72 -389q6 -33 9.5 -66t3.5 -67q0 -60 -14 -109t-44 -84t-76 -54t-109 -19q-16 0 -35 3t-35 10.5t-27 21t-11 33.5t8 31.5 t25 19.5q4 -3 15 -12t23.5 -18t23.5 -16.5t16 -7.5q17 0 27 9t15.5 22.5t7.5 29t2 28.5q0 30 -4.5 59.5t-9.5 58.5l-67 372q-5 24 -7.5 48.5t-2.5 49.5q0 123 64.5 192.5t191.5 69.5q13 0 32 -2t35.5 -8t28.5 -17t12 -30zM321 13q0 51 -11 104l-71 401q-5 25 -8 50t-3 51 q0 18 2.5 38t13.5 36l-2 3q-20 -12 -32.5 -29.5t-20 -38t-10.5 -43t-3 -43.5q0 -23 2.5 -46t6.5 -46l73 -419q4 -23 6.5 -45t2.5 -45q0 -20 -3.5 -43t-15.5 -40l2 -2q42 25 56.5 68t14.5 89z" />
<glyph horiz-adv-x="600" d="M520 719q0 -20 -8 -36t-22 -29q-6 5 -19.5 14t-28.5 17.5t-29 15t-21 6.5q-15 0 -25 -7t-16 -18t-8 -24.5t-2 -25.5q0 -18 2.5 -36t6.5 -36l72 -389q6 -33 9.5 -66t3.5 -67q0 -60 -14 -109t-44 -84t-76 -54t-109 -19q-16 0 -35 3t-35 10.5t-27 21t-11 33.5t8 31.5 t25 19.5q4 -3 15 -12t23.5 -18t23.5 -16.5t16 -7.5q17 0 27 9t15.5 22.5t7.5 29t2 28.5q0 30 -4.5 59.5t-9.5 58.5l-67 372q-5 24 -7.5 48.5t-2.5 49.5q0 123 64.5 192.5t191.5 69.5q13 0 32 -2t35.5 -8t28.5 -17t12 -30zM370 13q0 51 -11 104l-71 401q-5 25 -8 50t-3 51 q0 18 2.5 38t13.5 36l-2 3q-20 -12 -32.5 -29.5t-20 -38t-10.5 -43t-3 -43.5q0 -23 2.5 -46t6.5 -46l73 -419q4 -23 6.5 -45t2.5 -45q0 -20 -3.5 -43t-15.5 -40l2 -2q42 25 56.5 68t14.5 89z" />
<glyph unicode="&#x2022;" horiz-adv-x="384" d="M337 352q0 -35 -11.5 -61.5t-31 -45t-46 -28t-56.5 -9.5t-56.5 10t-46 28.5t-31 45t-11.5 60.5t11.5 61t31 45.5t46 28.5t56.5 10t56.5 -10t46 -29t31 -45.5t11.5 -60.5z" />
<glyph unicode="&#x2020;" horiz-adv-x="500" d="M456 366l-176 15l15 -421l-44 -10l-46 10l15 421l-176 -15l-10 41l10 41l176 -15l-15 182l45 10l45 -10l-15 -182l176 15l10 -41z" />
<glyph unicode="'" horiz-adv-x="194" d="M57 755h98l-27 -240h-71v240z" />
<glyph unicode="&#x22;" horiz-adv-x="385" d="M57 755h97l-25 -240h-72v240zM247 755h98l-26 -240h-72v240z" />
<glyph unicode="&#x201c;" horiz-adv-x="449" d="M414 716q-9 -10 -21 -22t-22.5 -26t-18 -29.5t-7.5 -31.5q8 -5 19.5 -15.5t22 -21.5t17.5 -21t7 -15q0 -6 -10 -19t-23 -25.5t-25.5 -22t-17.5 -9.5q-8 0 -21 10t-25.5 23.5t-22 28t-9.5 23.5q0 28 11 57.5t29 57t40 50t45 36.5zM194 716q-9 -10 -21 -22t-22.5 -26 t-18 -29.5t-7.5 -31.5q8 -5 19.5 -15.5t22 -21.5t17.5 -21t7 -15q0 -6 -10 -19t-23 -25.5t-25.5 -22t-17.5 -9.5q-8 0 -21 10t-25.5 23.5t-22 28t-9.5 23.5q0 28 11 57.5t29 57t40 50t45 36.5z" />
<glyph unicode="&#x201d;" horiz-adv-x="453" d="M424 659q0 -27 -11 -57t-29 -57.5t-40.5 -50.5t-44.5 -36l-32 28q9 10 21 22t22.5 26t18 29t8.5 32q-9 5 -20.5 15.5t-22 22t-17.5 21.5t-7 15q0 6 10 18.5t23 25t25.5 22t17.5 9.5q7 0 20.5 -9.5t26 -23t22 -28t9.5 -24.5zM204 659q0 -27 -11 -57t-29 -57.5t-40.5 -50.5 t-44.5 -36l-32 28q9 10 21 22t22.5 26t18 29t8.5 32q-9 5 -20.5 15.5t-22 22t-17.5 21.5t-7 15q0 6 10 18.5t23 25t25.5 22t17.5 9.5q7 0 20.5 -9.5t26 -23t22 -28t9.5 -24.5z" />
<glyph unicode="&#x2018;" horiz-adv-x="229" d="M194 716q-9 -10 -21 -22t-22.5 -26t-18 -29.5t-7.5 -31.5q8 -5 19.5 -15.5t22 -21.5t17.5 -21t7 -15q0 -6 -10 -19t-23 -25.5t-25.5 -22t-17.5 -9.5q-8 0 -21 10t-25.5 23.5t-22 28t-9.5 23.5q0 28 11 57.5t29 57t40 50t45 36.5l32 -28v0z" />
<glyph unicode="&#x2019;" horiz-adv-x="233" d="M204 659q0 -27 -11 -57t-29 -57.5t-40.5 -50.5t-44.5 -36l-32 28q9 10 21 22t22.5 26t18 29t8.5 32q-9 5 -20.5 15.5t-22 22t-17.5 21.5t-7 15q0 6 10 18.5t23 25t25.5 22t17.5 9.5q7 0 20.5 -9.5t26 -23t22 -28t9.5 -24.5z" />
<glyph unicode="&#x201a;" horiz-adv-x="244" d="M198 45q0 -28 -11 -57.5t-29 -57t-40.5 -50.5t-44.5 -36l-32 28q9 10 21 22t22.5 26t18 29t8.5 32q-9 5 -20.5 15.5t-22 21.5t-17.5 21t-7 15q0 6 10 19t23 25.5t25.5 22t17.5 9.5q7 0 20.5 -10t26 -23.5t22 -28t9.5 -23.5z" />
<glyph unicode="&#x201e;" horiz-adv-x="464" d="M418 45q0 -27 -11 -57t-29 -57.5t-40.5 -50.5t-44.5 -36l-32 28q9 10 21 22t22.5 26t18 29.5t8.5 32.5q-9 5 -20.5 15t-22 21.5t-17.5 21.5t-7 15q0 6 10 19t23 25.5t25.5 22t17.5 9.5q7 0 20.5 -10t26 -23.5t22 -28t9.5 -24.5zM198 45q0 -27 -11 -57t-29 -57.5 t-40.5 -50.5t-44.5 -36l-32 28q9 10 21 22t22.5 26t18 29.5t8.5 32.5q-9 5 -20.5 15t-22 21.5t-17.5 21.5t-7 15q0 6 10 19t23 25.5t25.5 22t17.5 9.5q7 0 20.5 -10t26 -23.5t22 -28t9.5 -24.5z" />
<glyph unicode="&#x203a;" horiz-adv-x="276" d="M238 363q-18 -27 -35.5 -57t-33.5 -59.5t-29 -56.5t-20 -49q-9 2 -20 4.5t-20 4.5l-22 4q6 22 15.5 49t21 55t24 55t24.5 50q-15 21 -28 46.5t-25 53.5t-22 55.5t-18 51.5q9 2 19.5 4.5t18.5 4.5l20 4q18 -45 52.5 -103t77.5 -117z" />
<glyph unicode="&#x2039;" horiz-adv-x="276" d="M226 570q-8 -24 -17.5 -51.5t-21.5 -55.5t-25.5 -53.5t-28.5 -46.5q12 -23 24.5 -50t24 -55t21.5 -55t16 -49l-22 -4q-10 -2 -20.5 -4.5t-19.5 -4.5q-8 22 -20.5 49t-28.5 56.5t-34 59.5t-36 57q44 59 78 117t52 103l20 -4l18 -4.5t20 -4.5z" />
<glyph unicode="&#xab;" horiz-adv-x="478" d="M431 556q-16 -48 -37.5 -99.5t-50.5 -93.5q24 -46 46.5 -99.5t34.5 -98.5l-22 -4q-10 -2 -20.5 -4.5t-19.5 -4.5q-15 44 -47 100t-67 111q44 59 75.5 110t49.5 96l20 -4l18 -4.5t20 -4.5zM226 570q-8 -24 -17.5 -51.5t-21.5 -55.5t-25.5 -53.5t-28.5 -46.5 q12 -23 24.5 -50t24 -55t21.5 -55t16 -49l-22 -4q-10 -2 -20.5 -4.5t-19.5 -4.5q-8 22 -20.5 49t-28.5 56.5t-34 59.5t-36 57q44 59 78 117t52 103l20 -4l18 -4.5t20 -4.5z" />
<glyph unicode="&#xbb;" horiz-adv-x="478" d="M440 363q-18 -27 -36 -57t-34 -59.5t-29 -56.5t-20 -49q-9 2 -19.5 4.5t-19.5 4.5l-22 4q6 22 15.5 49t21 55t24 55t24.5 50q-15 21 -28.5 46.5t-25.5 53.5t-22 55.5t-17 51.5q9 2 19.5 4.5t18.5 4.5l20 4q18 -45 52 -103t78 -117zM230 363q-35 -55 -67 -111t-47 -100 q-9 2 -20 4.5t-20 4.5l-22 4q13 45 35 98.5t46 99.5q-29 42 -50.5 93.5t-37.5 99.5q9 2 19.5 4.5t18.5 4.5l20 4q18 -45 49.5 -96t75.5 -110z" />
<glyph unicode="*" horiz-adv-x="419" d="M373 493l-28 -27l-117 85l15 -143l-34 -10l-35 10l16 144l-118 -86l-24 24l-9 36l131 58l-131 59l7 36l27 24l118 -87l-16 146l34 10l35 -10l-14 -144l116 85l28 -23l6 -36l-136 -59l136 -58z" />
<glyph horiz-adv-x="249" d="M125 295q-6 0 -18.5 9.5t-25 22.5t-22 25t-9.5 18t9.5 18.5t22.5 24.5t25.5 21.5t17.5 9.5t17.5 -9.5t25 -22t22 -24.5t9.5 -18q0 -5 -9 -17t-21.5 -25t-25 -23t-18.5 -10z" />
<glyph unicode="&#xb7;" horiz-adv-x="249" d="M125 318q-6 0 -18.5 9.5t-25 22.5t-22 25t-9.5 18t9.5 18.5t22.5 24.5t25.5 21.5t17.5 9.5t17.5 -9.5t25 -22t22 -24.5t9.5 -18q0 -5 -9 -17t-21.5 -25t-25 -23t-18.5 -10z" />
<glyph unicode="+" horiz-adv-x="522" d="M295 272l2 -232h-72l2 232l-206 -2v65l206 -2l-2 232h72l-2 -232l206 2v-65z" />
<glyph unicode="&#x3c;" horiz-adv-x="539" d="M495 104l-29 -57l-451 231v44l451 231l29 -57l-383 -196z" />
<glyph unicode="=" horiz-adv-x="678" d="M99 360v66h480v-66h-480zM99 174v66h480v-66h-480z" />
<glyph unicode="&#x3e;" horiz-adv-x="539" d="M427 300l-383 196l29 57l451 -231v-44l-451 -231l-29 57z" />
<glyph unicode="&#x401;" horiz-adv-x="642" d="M37 0zM217 741q-5 0 -15 8t-20.5 18.5t-18.5 20.5t-8 15t8 15.5t18.5 21t20.5 18t15 7.5t15.5 -8t21 -18.5t18.5 -20.5t8 -15q0 -4 -7.5 -14t-18 -20.5t-21 -19t-16.5 -8.5zM445 741q-5 0 -15 8t-20.5 18.5t-18.5 20.5t-8 15t8 15.5t18.5 21t20.5 18t15 7.5t15.5 -8 t21 -18.5t18.5 -20.5t8 -15q0 -4 -7.5 -14t-18 -20.5t-21 -19t-16.5 -8.5zM585 0h-543q-2 11 -3.5 25t-0.5 24l68 18q19 5 29 21t10 37l3 149v328q0 12 -5.5 23.5t-18.5 16.5l-75 26q0 3 -0.5 7.5t0.5 9.5t2 11t3 11h508v-160q-14 -2 -29 -1.5t-23 0.5q-8 45 -24.5 67 t-54.5 23l-192 6v-254l271 5v-76l-271 5v-49l5 -207l187 3q28 0 49 10t37 25t26 33t16 35l45 -7z" />
<glyph unicode="&#x402;" horiz-adv-x="761" d="M583 542q-10 -3 -21 -3.5t-24 0.5q-9 47 -30.5 73.5t-63.5 26.5h-118v-243q35 14 85.5 28t119.5 14q49 0 85.5 -17t61 -46t36.5 -68t12 -83q0 -87 -24.5 -160t-59 -129.5t-71 -96t-61.5 -58.5l-46 49q30 29 59 67t52 85.5t37 104t14 122.5q0 42 -10.5 71.5t-29 48t-44 27 t-54.5 8.5q-31 0 -75.5 -7t-87.5 -29v-64l4 -150q1 -18 5.5 -26t16.5 -11l96 -26v-10t-1 -14.5t-2 -14.5t-2 -11h-306q-2 11 -3.5 22.5t-0.5 21.5l58 21q10 4 18.5 13t13.5 20t8 23.5t3 23.5l2 128v366h-87q-37 0 -56 -28t-27 -72q-8 -2 -22 -1t-24 4v165h564v-165z" />
<glyph unicode="&#x406;" horiz-adv-x="379" d="M51 0zM344 50v-10t-1 -14.5t-2 -14.5t-2 -11h-283q-2 11 -3.5 22.5t-0.5 21.5l53 21q37 14 38 69l2 139v300q0 24 -9.5 45.5t-40.5 32.5l-40 15q-2 7 -1.5 20t2.5 21h262q5 -23 3 -45l-41 -9q-24 -5 -34 -25t-10 -52v-303l3 -170q0 -19 6 -26t22 -10l77 -17v0z" />
<glyph unicode="&#x408;" horiz-adv-x="353" d="M0 0zM266 651q-23 -5 -30.5 -13.5t-7.5 -30.5v-520q0 -56 -14.5 -97t-41.5 -72.5t-64.5 -56.5t-82.5 -48l-34 59q39 24 67 50t45 58.5t25 72.5t8 93v431q0 32 -12 49t-36 25l-44 15q0 7 1 20t4 21h262q2 -11 3 -22.5t0 -21.5z" />
<glyph unicode="&#x409;" horiz-adv-x="923" d="M122 146q11 14 21 43.5t18 68t15 83.5t12.5 89.5t9.5 85.5t7 73q2 19 -3.5 34.5t-21.5 20.5l-58 22q0 7 1 20t3 21h502v-30t-2 -15l-52 -12q-16 -5 -22.5 -12t-6.5 -27v-203h127q58 0 101.5 -14.5t72 -40.5t42.5 -63t14 -83q0 -47 -15 -85.5t-47 -65.5t-83.5 -42 t-123.5 -15l-285 1q-2 11 -3 24.5t0 23.5l68 18q17 5 27.5 21.5t11.5 37.5l3 148v366h-180l-14 -160q-11 -89 -21 -170.5t-31.5 -148t-62 -114t-112.5 -68.5l-36 100q44 11 74 27.5t50 40.5zM803 202q0 136 -160 139l-98 2v-281h93q41 1 72 7.5t51.5 21.5t31 42t10.5 69z " />
<glyph unicode="&#x40a;" horiz-adv-x="1065" d="M624 0l-135 1q-2 11 -3 24.5t0 23.5l68 18q17 5 27.5 21.5t11.5 37.5l4 148v68h-360v-69l4 -160q1 -18 5.5 -26t16.5 -11l96 -26v-10t-1 -14.5t-2 -14.5t-2 -11h-306q-2 11 -3.5 22.5t-0.5 21.5l58 21q10 4 18.5 13t13.5 20t8 23.5t3 23.5l2 128v308q0 21 -6.5 40 t-23.5 24l-73 21q0 7 1 20t3 21h272q2 -11 3.5 -23t0.5 -22l-56 -13q-20 -5 -25.5 -13.5t-5.5 -27.5v-200h360v163q0 9 -2.5 21t-7.5 23t-13 20t-18 13l-49 18q0 7 -0.5 20t1.5 21h262v-23.5t-2 -21.5l-52 -12q-16 -5 -22.5 -12t-6.5 -27v-203h127q58 0 101.5 -14.5 t72 -40.5t42.5 -63t14 -83q0 -47 -15 -85.5t-47 -65.5t-83.5 -42t-123.5 -15zM780 62q41 1 72 7.5t51.5 21.5t31 42t10.5 69q0 136 -160 139l-98 2v-281h93z" />
<glyph unicode="&#x40b;" horiz-adv-x="820" d="M583 707v-165q-10 -3 -21 -3.5t-24 0.5q-9 47 -30.5 73.5t-63.5 26.5h-118v-243q35 14 85.5 28t119.5 14q57 0 93 -13.5t56.5 -38t28 -58.5t7.5 -74v-142q0 -18 7 -28t17 -12l84 -19v-10.5t-1 -15.5t-2 -15.5t-2 -11.5h-286q-2 11 -3.5 24.5t-0.5 23.5l42 12 q16 4 26.5 15.5t17 25t9 27.5t2.5 25v85q0 69 -32 97t-106 28q-31 0 -75.5 -7t-87.5 -29v-64l4 -150q1 -18 5.5 -26t16.5 -11l96 -26v-10t-1 -14.5t-2 -14.5t-2 -11h-306q-2 11 -3.5 22.5t-0.5 21.5l58 21q10 4 18.5 13t13.5 20t8 23.5t3 23.5l2 128v366h-87q-37 0 -56 -28 t-27 -72q-8 -2 -22 -1t-24 4v165h564z" />
<glyph unicode="&#x40e;" horiz-adv-x="656" d="M0 0zM321 757q-33 0 -61.5 9t-49.5 24.5t-33 37.5t-12 48l98 26v-73q10 -15 24.5 -24t33.5 -9q20 0 35.5 9.5t22.5 23.5v73l98 -26q0 -26 -12 -48t-33 -37.5t-49.5 -24.5t-61.5 -9zM164 55q38 12 62.5 23.5t39.5 23.5q7 6 13.5 13t12.5 16.5t13 22.5t15 30l-247 410 q-11 16 -20 27.5t-18.5 19.5t-21.5 15t-28 14v14v12t2 11h261q4 -20 4 -40l-51 -19q-15 -6 -15 -28q0 -20 13 -41l174 -287l124 293q4 9 4 22q0 25 -17 34l-56 27v12q0 7 0.5 14.5t2.5 12.5h237q3 -20 3 -39q-12 -5 -25 -10t-25 -11.5t-22 -16t-16 -22.5l-197 -438 q-20 -45 -40.5 -78.5t-42 -58t-46.5 -42t-54 -29.5z" />
<glyph unicode="&#x40f;" horiz-adv-x="827" d="M43 0q-2 11 -3.5 25t-0.5 24l68 18q18 5 28.5 21t10.5 37l3 148v316q-2 19 -8 35t-22 21l-73 21q0 7 1 20t3 21h272q2 -11 3.5 -23t0.5 -22l-56 -13q-20 -5 -25.5 -13.5t-5.5 -27.5v-334l5 -202h347l4 202v297q0 9 -3 21t-8 23t-12.5 20t-17.5 13l-49 18q0 7 -0.5 20 t1.5 21h262v-23.5t-2 -21.5l-52 -12q-16 -5 -22.5 -12t-6.5 -27v-337l4 -162q2 -22 6.5 -30t12.5 -10l84 -19v-10.5t-1 -15.5t-2 -15.5t-2 -11.5h-325l2 -183h-94l2 183h-329z" />
<glyph unicode="&#x410;" horiz-adv-x="698" d="M0 0zM687 44q0 -7 -1 -21.5t-3 -22.5h-274q-2 11 -3 22t-1 22l71 21q14 4 22 18.5t8 31.5q0 7 -1 13t-3 12l-48 146h-248l-62 -156q-3 -8 -3 -16q0 -17 12.5 -31.5t37.5 -22.5l55 -16q0 -7 -1 -21.5t-3 -22.5h-239q-2 11 -3 22.5t-1 21.5q48 35 67 80l248 583l85 11 l212 -583q8 -22 30 -48t46 -43zM367 558l-21 78h-7l-25 -76l-82 -209h201z" />
<glyph unicode="&#x411;" horiz-adv-x="645" d="M148 602q0 12 -6 23.5t-18 16.5l-75 26q-1 6 0 17.5t5 21.5h498v-167q-4 -1 -11 -1.5t-14 -0.5t-13.5 0.5t-9.5 2.5q-5 18 -10.5 33.5t-15 27.5t-25.5 19.5t-40 9.5l-175 11v-234h137q58 0 101.5 -14.5t72 -40.5t42.5 -63t14 -83q0 -47 -15 -85.5t-47 -66t-83.5 -42 t-123.5 -14.5l-295 1q-2 11 -3 24.5t0 23.5l68 18q17 5 27.5 21.5t11.5 37.5l3 148v329zM238 62h103q41 1 72 7.5t51.5 21.5t31 42t10.5 69q0 136 -160 139l-108 2v-281z" />
<glyph unicode="&#x412;" horiz-adv-x="676" d="M37 0zM630 201q0 -44 -14 -81t-45 -63.5t-80.5 -41.5t-119.5 -15h-330q-2 11 -3 24.5t0 23.5l68 18q17 5 27.5 21.5t11.5 37.5l3 148v329q0 12 -6 23.5t-18 16.5l-75 26q-1 6 0 17.5t5 21.5h286q239 0 239 -174q0 -59 -29.5 -98t-79.5 -57v-3q21 -3 48.5 -12.5t52.5 -29 t42 -51.5t17 -81zM475 521q0 43 -13 67.5t-35.5 37t-51.5 16t-60 3.5h-77v-249h89q43 0 71.5 8t45.5 23.5t24 39t7 54.5zM527 198q0 43 -14 69t-41.5 40.5t-67 19.5t-90.5 5h-76v-61l4 -205h110q38 0 70 5t55.5 19.5t36.5 40.5t13 67z" />
<glyph unicode="&#x413;" horiz-adv-x="577" d="M49 0q-2 11 -3.5 22.5t-0.5 21.5l58 18q18 5 28.5 23.5t10.5 39.5l3 148v329q0 12 -5.5 23.5t-18.5 16.5l-75 26q-1 6 0 17.5t5 21.5h508v-167q-4 -1 -11 -1.5t-14 -0.5t-13.5 0.5t-9.5 2.5q-5 18 -10.5 33.5t-15 27.5t-25.5 19.5t-40 9.5l-185 11v-370l3 -160 q1 -14 2.5 -22t19.5 -12l114 -23v-10.5t-1 -16t-2 -16.5t-2 -12h-320v0z" />
<glyph unicode="&#x414;" horiz-adv-x="739" d="M5 68h77q16 27 29.5 54.5t25 53t19.5 47t13 35.5t10.5 40.5t12 59t12 67.5t10 67t7.5 58t3 39q0 19 -4.5 34.5t-20.5 20.5l-58 22q0 7 1 20t3 21h525v-23.5t-2 -21.5l-52 -12q-16 -5 -22.5 -12t-6.5 -27v-337l5 -206h106v-249q-4 -1 -11.5 -1.5t-15.5 -0.5t-15 0.5 t-10 2.5q-5 17 -13.5 47.5t-22 60t-32.5 51t-45 21.5h-342q-48 0 -73.5 -22t-37.5 -52t-15.5 -60.5t-7.5 -47.5q-4 -2 -12 -2.5t-17 -0.5q-13 0 -23 2v251zM492 68l4 206v365h-197q-4 -53 -12 -112.5t-16 -113.5t-16 -96t-12 -59q-5 -20 -13.5 -44.5t-18.5 -50t-20.5 -50 l-19.5 -45.5h321z" />
<glyph unicode="&#x415;" horiz-adv-x="642" d="M37 0zM585 0h-543q-2 11 -3.5 25t-0.5 24l68 18q19 5 29 21t10 37l3 149v328q0 12 -5.5 23.5t-18.5 16.5l-75 26q0 3 -0.5 7.5t0.5 9.5t2 11t3 11h508v-160q-14 -2 -29 -1.5t-23 0.5q-8 45 -24.5 67t-54.5 23l-192 6v-254l271 5v-76l-271 5v-49l5 -207l187 3q28 0 49 10 t37 25t26 33t16 35l45 -7z" />
<glyph unicode="&#x416;" horiz-adv-x="1013" d="M359 0q-2 11 -3.5 22.5t-0.5 21.5l66 23q20 7 28.5 25.5t9.5 41.5l2 139v310q0 18 -7 37t-23 25l-60 21q-2 7 -1.5 20t2.5 21h262q2 -11 3.5 -20t0.5 -19l-50 -19q-19 -8 -27.5 -29.5t-8.5 -41.5v-297l2 -173q0 -19 5 -26t16 -10l65 -21v-10t-1 -14.5l-2 -15t-2 -11.5 h-276zM1005 -22q-54 2 -101 17.5t-75 47.5l-251 288v43l224 214q11 10 15.5 19t4.5 17q0 19 -17 24l-68 15q0 7 0.5 21.5t3.5 22.5h234v-44l-307 -289l213 -239q15 -16 32 -31.5t35 -29t35.5 -24t32.5 -15.5zM-3 35q15 5 32.5 15.5t35.5 24t35 29t32 31.5l213 239l-307 289 v44h234q3 -8 3.5 -22.5t0.5 -21.5l-68 -15q-17 -5 -17 -24q0 -8 4.5 -17t15.5 -19l224 -214v-43l-251 -288q-28 -32 -75 -47.5t-101 -17.5z" />
<glyph unicode="&#x417;" horiz-adv-x="562" d="M250 -12q-59 0 -113 11t-102 34l30 74q28 -14 75 -30.5t114 -16.5q72 0 113.5 37.5t41.5 103.5q0 60 -42.5 93.5t-111.5 33.5q-23 0 -49.5 -0.5t-49.5 -2.5v78q22 -2 49 -2.5t49 -0.5q58 0 91.5 36.5t33.5 96.5q0 32 -11.5 54.5t-30.5 37t-43 21.5t-49 7q-63 0 -99.5 -34 t-47.5 -90h-42v152q35 18 86 27.5t110 9.5q45 0 86.5 -9.5t74 -31t51.5 -55.5t19 -83q0 -26 -9 -52t-25.5 -47.5t-40 -38.5t-51.5 -25v-2q32 -5 60.5 -17.5t49.5 -32t33.5 -47t12.5 -62.5q0 -57 -19.5 -99.5t-55 -71t-83.5 -42.5t-105 -14z" />
<glyph unicode="&#x418;" horiz-adv-x="859" d="M824 53v-10.5t-1 -15.5t-2 -15.5t-2 -11.5h-286q-2 11 -3.5 24.5t-0.5 23.5l42 12q16 4 26.5 15.5t16.5 25t8.5 27.5t2.5 25l2 120v230l-390 -368q0 -9 0.5 -18t3 -17.5t7.5 -14.5t15 -9l96 -26v-10t-1 -14.5t-2 -14.5t-2 -11h-306q-2 11 -3.5 22.5t-0.5 21.5l58 21 q10 4 18.5 13t13.5 20t8 23.5t3 23.5l2 128v308q0 21 -6.5 40t-23.5 24l-73 21q0 7 1 20t3 21h272q2 -11 3.5 -23t0.5 -22l-56 -13q-20 -5 -25.5 -13.5t-5.5 -27.5v-385l390 368q0 5 -1 10.5t-3 10.5q-5 12 -13.5 21.5t-23.5 14.5l-49 18q0 7 -0.5 20t1.5 21h262v-23.5 t-2 -21.5l-52 -12q-16 -5 -22.5 -12t-6.5 -27v-338l4 -161q0 -36 19 -40l84 -19v0z" />
<glyph unicode="&#x419;" horiz-adv-x="859" d="M43 0zM431 757q-33 0 -61.5 9t-49.5 24.5t-33 37.5t-12 48l98 26v-73q10 -15 24.5 -24t33.5 -9q20 0 35.5 9.5t22.5 23.5v73l98 -26q0 -26 -12 -48t-33 -37.5t-49.5 -24.5t-61.5 -9zM824 53v-10.5t-1 -15.5t-2 -15.5t-2 -11.5h-286q-2 11 -3.5 24.5t-0.5 23.5l42 12 q16 4 26.5 15.5t16.5 25t8.5 27.5t2.5 25l2 120v230l-390 -368q0 -9 0.5 -18t3 -17.5t7.5 -14.5t15 -9l96 -26v-10t-1 -14.5t-2 -14.5t-2 -11h-306q-2 11 -3.5 22.5t-0.5 21.5l58 21q10 4 18.5 13t13.5 20t8 23.5t3 23.5l2 128v308q0 21 -6.5 40t-23.5 24l-73 21q0 7 1 20 t3 21h272q2 -11 3.5 -23t0.5 -22l-56 -13q-20 -5 -25.5 -13.5t-5.5 -27.5v-385l390 368q0 5 -1 10.5t-3 10.5q-5 12 -13.5 21.5t-23.5 14.5l-49 18q0 7 -0.5 20t1.5 21h262v-23.5t-2 -21.5l-52 -12q-16 -5 -22.5 -12t-6.5 -27v-338l4 -161q0 -36 19 -40l84 -19v0z" />
<glyph unicode="&#x41a;" horiz-adv-x="719" d="M36 0zM41 0q-2 11 -3.5 22.5t-0.5 21.5l66 23q20 7 28.5 25.5t9.5 41.5l2 139v310q0 18 -7 37t-23 25l-60 21q-2 7 -1.5 20t2.5 21h262q2 -11 3.5 -20t0.5 -19l-50 -19q-36 -14 -36 -71v-297l2 -173q0 -19 5 -26t16 -10l65 -21v-10t-1 -14.5l-2 -15t-2 -11.5h-276z M717 -22q-54 2 -100.5 18t-75.5 47l-281 298v43l224 204q11 10 15.5 19t4.5 17q0 19 -17 24l-48 15q0 7 0.5 21.5t3.5 22.5h234v-44l-327 -275l243 -253q30 -32 67 -60.5t68 -39.5z" />
<glyph unicode="&#x41b;" horiz-adv-x="697" d="M122 146q11 14 21 43.5t18 68t15 83.5t12.5 89.5t9.5 85.5t7 73q2 19 -3.5 34.5t-21.5 20.5l-58 22q0 7 1 20t3 21h512v-30t-2 -15l-52 -12q-16 -5 -22.5 -12t-6.5 -27v-338l4 -161q0 -36 19 -40l84 -19v-10.5t-1 -15.5t-2 -15.5t-2 -11.5h-286q-2 9 -3 21t-1 27l42 12 q16 4 26.5 15.5t16.5 25t8.5 27.5t2.5 25l2 120v366h-190l-14 -160q-11 -89 -21 -170.5t-31.5 -148t-62 -114t-112.5 -68.5l-36 100q44 11 74 27.5t50 40.5z" />
<glyph unicode="&#x41c;" horiz-adv-x="1025" d="M24 0zM933 707q2 -11 3.5 -20t0.5 -19l-49 -17q-18 -6 -29.5 -26t-6.5 -53l62 -454q2 -17 12.5 -31t23.5 -19l45 -22q0 -7 -1 -22.5t-3 -23.5h-257q-2 11 -3 22.5t-1 21.5l44 13q23 7 31 26.5t8 45.5q0 18 -3 38l-40 334l-3 53h-5l-224 -554l-66 -12l-215 573h-6l-1 -51 l-63 -401q-5 -28 11 -32l94 -30q0 -7 -0.5 -23t-3.5 -24h-259q-2 11 -3.5 22.5t-0.5 21.5l36 18q21 11 35 33t18 45l75 449q3 17 -6 34t-23 22l-63 21q0 7 1 20t3 21h197l161 -415l51 -150h9l54 155l172 410h188z" />
<glyph unicode="&#x41d;" horiz-adv-x="858" d="M42 0zM823 53v-10.5t-1 -15.5t-2 -15.5t-2 -11.5h-286q-2 11 -3.5 24.5t-0.5 23.5l42 12q32 9 42.5 30.5t11.5 62.5l2 120v49h-390v-49l4 -160q1 -18 5.5 -26t16.5 -11l96 -26v-10t-1 -14.5t-2 -14.5t-2 -11h-306q-2 11 -3.5 22.5t-0.5 21.5l58 21q41 16 43 80l2 128v308 q0 21 -6.5 40t-23.5 24l-73 21q0 7 1 20t3 21h272q2 -11 3.5 -23t0.5 -22l-56 -13q-20 -5 -25.5 -13.5t-5.5 -27.5v-220h390v183q0 62 -41 77l-49 18q-1 8 -1 20.5t2 20.5h262v-23.5t-2 -21.5l-52 -12q-16 -5 -22.5 -12t-6.5 -27v-338l4 -161q0 -36 19 -40l84 -19v0z" />
<glyph unicode="&#x41e;" horiz-adv-x="804" d="M48 0zM756 380q0 -82 -25 -153.5t-71.5 -124.5t-113.5 -83.5t-152 -30.5q-82 0 -146.5 23t-108.5 66.5t-67.5 107t-23.5 144.5q0 84 26.5 155.5t74.5 123t115.5 81t148.5 29.5q85 0 149.5 -23.5t107.5 -67.5t64.5 -106.5t21.5 -140.5zM646 364q0 63 -13.5 115t-42.5 89.5 t-75 58.5t-111 21q-68 0 -115 -24t-76 -65t-42 -96t-13 -117q0 -60 12.5 -112t40.5 -91t74 -61t112 -22q70 0 118 24t77 65.5t41.5 96.5t12.5 118z" />
<glyph unicode="&#x41f;" horiz-adv-x="844" d="M809 53v-10.5t-1 -15.5t-2 -15.5t-2 -11.5h-286q-2 11 -3.5 24.5t-0.5 23.5l42 12q16 4 26.5 15.5t16.5 25t8.5 27.5t2.5 25l2 120v366h-375v-366l4 -160q1 -18 5.5 -26t16.5 -11l96 -26v-10t-1 -14.5t-2 -14.5t-2 -11h-306q-2 11 -3.5 22.5t-0.5 21.5l58 21 q10 4 18.5 13t13.5 20t8 23.5t3 23.5l2 128v308q0 21 -6.5 40t-23.5 24l-73 21q0 7 1 20t3 21h737v-23.5t-2 -21.5l-52 -12q-16 -5 -22.5 -12t-6.5 -27v-338l4 -161q0 -36 19 -40l84 -19v0z" />
<glyph unicode="&#x420;" horiz-adv-x="632" d="M44 0zM603 492q0 -47 -16.5 -87.5t-51 -70.5t-87.5 -47t-125 -17h-19v62l25 1q41 1 73.5 9.5t55 26.5t34.5 47t12 71q0 70 -35.5 110.5t-119.5 42.5l-113 2v-369l2 -154q0 -18 4.5 -29t18.5 -14l102 -27v-9.5t-1 -14t-2 -14.5t-2 -11h-309q-2 11 -3.5 22.5t-0.5 21.5 l58 18q17 5 27.5 19.5t11.5 42.5l3 149v329q0 12 -5.5 23.5t-18.5 16.5l-75 26q-1 6 0 17.5t5 21.5h324q105 0 166.5 -52t61.5 -163z" />
<glyph unicode="&#x421;" horiz-adv-x="661" d="M49 0zM616 19q-14 -5 -61.5 -16t-140.5 -11q-175 0 -270 85.5t-95 270.5q0 79 24 146.5t70 117t113 78t154 28.5q46 0 77.5 -4t53.5 -9.5t37 -12t29 -12.5v-151h-46q-9 27 -21.5 49t-30.5 38t-43 25t-60 9q-56 0 -103 -16.5t-82 -52t-54.5 -90.5t-19.5 -133 q0 -77 21.5 -131.5t60 -89.5t90.5 -51.5t113 -16.5q71 0 108 6.5t55 10.5l21 -67v0z" />
<glyph unicode="&#x422;" horiz-adv-x="664" d="M20 0zM644 542q-10 -3 -21 -3.5t-24 0.5q-9 47 -30.5 73.5t-63.5 26.5h-128v-366l5 -170q0 -17 3.5 -25t17.5 -11l95 -18v-9.5t-0.5 -14t-1.5 -14.5t-2 -11h-322q-2 11 -3.5 25t-0.5 24l74 19q9 2 16 9.5t12.5 17t9 21t3.5 21.5l3 136v366h-137q-37 0 -56 -28t-27 -72 q-8 -2 -22 -1t-24 4v165h624v-165z" />
<glyph unicode="&#x423;" horiz-adv-x="656" d="M164 55q38 12 62.5 23.5t39.5 23.5q7 6 13.5 13t12.5 16.5t13 22.5t15 30l-247 410q-11 16 -20 27.5t-18.5 19.5t-21.5 15t-28 14v14v12t2 11h261q4 -20 4 -40l-51 -19q-15 -6 -15 -28q0 -20 13 -41l174 -287l124 293q4 9 4 22q0 25 -17 34l-56 27v12q0 7 0.5 14.5 t2.5 12.5h237q3 -20 3 -39q-12 -5 -25 -10t-25 -11.5t-22 -16t-16 -22.5l-197 -438q-20 -45 -40.5 -78.5t-42 -58t-46.5 -42t-54 -29.5z" />
<glyph unicode="&#x424;" horiz-adv-x="791" d="M523 737q5 -23 3 -45l-41 -9q-14 -3 -22.5 -6t-13 -8.5t-6.5 -15t-2 -25.5q73 0 132.5 -14.5t102 -44t65.5 -73.5t23 -103q0 -62 -23 -112.5t-65.5 -86t-102 -55t-132.5 -19.5v-17q0 -19 4.5 -26t20.5 -10l80 -17v-10t-1 -14.5t-2 -14.5t-2 -11h-278q-2 11 -3.5 19.5 t-0.5 18.5l53 27q26 13 32 23.5t6 30.5q-72 0 -131 14t-102 43t-66.5 73t-23.5 105q0 62 24 112t67 85t102 54.5t130 19.5q0 15 -2 23.5t-7.5 14t-15 9t-25.5 9.5l-40 15q-2 7 -1.5 20t2.5 21h262zM656 381q0 94 -56 143t-159 49v-399q113 1 164 56t51 151zM135 367 q0 -90 53 -141t162 -52v398q-104 0 -159.5 -56t-55.5 -149z" />
<glyph unicode="&#x425;" horiz-adv-x="697" d="M5 0zM687 44q0 -7 -0.5 -21.5t-3.5 -22.5h-255q-2 11 -3 22.5t0 21.5l42 23q14 8 13.5 21.5t-11.5 30.5l-128 184l-137 -177q-9 -12 -9 -28q0 -9 3.5 -16.5t10.5 -10.5l58 -27q0 -7 -0.5 -21.5t-3.5 -22.5h-254q-2 11 -3 22.5t0 21.5l38 18q26 12 46.5 33.5t39.5 44.5 l172 220l-165 219q-20 27 -48 47t-54 36q-3 5 -3.5 21t1.5 24h245q2 -11 3 -23t0 -22l-41 -18q-10 -4 -11.5 -17.5t10.5 -30.5l115 -168l125 162q11 13 10.5 29.5t-11.5 21.5l-44 22v21.5t2 22.5h235q2 -11 1 -22.5t-2 -21.5q-15 -4 -32 -11.5t-33 -18t-30.5 -22.5 t-23.5 -25l-159 -213l184 -238q13 -17 24 -29t23 -22t27.5 -19.5t36.5 -20.5z" />
<glyph unicode="&#x426;" horiz-adv-x="837" d="M43 0q-2 11 -3.5 25t-0.5 24l68 18q18 5 28.5 21t10.5 37l3 148v316q-2 19 -8 35t-22 21l-73 21q0 7 1 20t3 21h272q2 -11 3.5 -23t0.5 -22l-56 -13q-20 -5 -25.5 -13.5t-5.5 -27.5v-334l5 -202h347l4 202v297q0 9 -3 21t-8 23t-12.5 20t-17.5 13l-49 18q0 7 -0.5 20 t1.5 21h262v-23.5t-2 -21.5l-52 -12q-16 -5 -22.5 -12t-6.5 -27v-337l5 -202h106v-253q-4 -1 -11.5 -1.5t-15.5 -0.5t-15 0.5t-10 2.5q-5 17 -13.5 47.5t-22 60t-32.5 51t-45 21.5h-588z" />
<glyph unicode="&#x427;" horiz-adv-x="718" d="M392 0q-2 11 -3.5 24.5t-0.5 23.5l42 12q16 4 26.5 15.5t16.5 25t8.5 27.5t2.5 25l2 120v49q-35 -14 -86 -28t-120 -14q-57 0 -93 13.5t-56.5 38t-28 58t-7.5 74.5v117q-2 21 -7.5 40t-22.5 24l-73 21q0 7 1 20t3 21h272q2 -11 3.5 -23t0.5 -22l-56 -13 q-20 -5 -25.5 -13.5t-5.5 -27.5v-128q0 -69 32 -97t106 -28q31 0 75 7t88 29v180q0 9 -2.5 21t-7.5 23t-13 20t-18 13l-49 18q0 7 -0.5 20t1.5 21h262v-23.5t-2 -21.5l-52 -12q-16 -5 -22.5 -12t-6.5 -27v-338l4 -161q0 -36 19 -40l84 -19v-10.5t-1 -15.5t-2 -15.5t-2 -11.5 h-286v0z" />
<glyph unicode="&#x428;" horiz-adv-x="1081" d="M43 0q-2 11 -3.5 25t-0.5 24l68 18q18 5 28.5 21t10.5 37l3 148v316q-2 19 -8 35t-22 21l-73 21q0 7 1 20t3 21h272q2 -11 3.5 -23t0.5 -22l-56 -13q-20 -5 -25.5 -13.5t-5.5 -27.5v-335l5 -201l251 1l4 200v302q-2 19 -12.5 42t-28.5 31l-49 18q0 7 -0.5 20t1.5 21h262 v-23.5t-2 -21.5l-52 -12q-16 -5 -22.5 -12t-6.5 -27v-338l5 -201l251 1l4 200v298q0 9 -3 21t-8 23t-12.5 20t-17.5 13l-49 18q0 7 -0.5 20t1.5 21h262v-23.5t-2 -21.5l-52 -12q-16 -5 -22.5 -12t-6.5 -27v-338l3 -170q0 -19 4.5 -26t20.5 -10l80 -17v-10t-1 -14.5t-2 -14.5 t-2 -11h-999v0z" />
<glyph unicode="&#x429;" horiz-adv-x="1091" d="M322 707q2 -11 3.5 -23t0.5 -22l-56 -13q-20 -5 -25.5 -13.5t-5.5 -27.5v-335l5 -201h251l4 201v302q-2 19 -12.5 42t-28.5 31l-49 18q0 7 -0.5 20t1.5 21h262v-23.5t-2 -21.5l-52 -12q-16 -5 -22.5 -12t-6.5 -27v-338l5 -201h251l4 201v298q0 9 -3 21t-8 23t-12.5 20 t-17.5 13l-49 18q0 7 -0.5 20t1.5 21h262v-23.5t-2 -21.5l-52 -12q-16 -5 -22.5 -12t-6.5 -27v-337l5 -202h106v-253q-4 -1 -11.5 -1.5t-15.5 -0.5t-15 0.5t-10 2.5q-5 17 -13.5 47.5t-22 60t-32.5 51t-45 21.5h-842q-2 11 -3.5 25t-0.5 24l68 18q18 5 28.5 21t10.5 37 l3 148v316q-2 19 -8 35t-22 21l-73 21q0 7 1 20t3 21h272z" />
<glyph unicode="&#x42a;" horiz-adv-x="710" d="M135 0q-2 11 -3 24.5t0 23.5l68 18q17 5 27.5 21.5t11.5 37.5l3 148v365l-85 -7q-24 -2 -40 -9.5t-25.5 -19.5t-15.5 -27.5t-10 -33.5q-3 -2 -9.5 -2.5t-13.5 -0.5t-14 0.5t-11 1.5v167h397q2 -11 3.5 -23t0.5 -22l-56 -13q-18 -5 -24 -12t-7 -21v-208h127 q58 0 101.5 -14.5t72 -40.5t42.5 -63t14 -83q0 -47 -15 -85.5t-47 -65.5t-83.5 -42t-123.5 -15zM425 62q41 1 72 7.5t51.5 21.5t31 42t10.5 69q0 136 -160 139l-98 2v-281h93z" />
<glyph unicode="&#x42b;" horiz-adv-x="924" d="M38 0zM889 50v-10t-1 -14.5t-2 -14.5t-2 -11h-283q-2 11 -3.5 22.5t-0.5 21.5l53 21q37 14 38 69l2 139v300q0 24 -9.5 45.5t-40.5 32.5l-40 15q-2 7 -1.5 20t2.5 21h262q5 -23 3 -45l-41 -9q-24 -5 -34 -25t-10 -52v-303l3 -170q0 -19 6 -26t22 -10l77 -17v0zM42 0 q-2 11 -3 24.5t0 23.5l68 18q17 5 27.5 21.5t11.5 37.5l3 148v316q-2 19 -8.5 35t-21.5 21l-73 21q0 7 1 20t3 21h272q2 -11 3.5 -23t0.5 -22l-56 -13q-18 -5 -24 -12t-7 -21v-208h127q58 0 101.5 -14.5t72 -40.5t42.5 -63t14 -83q0 -47 -15 -85.5t-47 -65.5t-83.5 -42 t-123.5 -15zM332 62q41 1 72 7.5t51.5 21.5t31 42t10.5 69q0 136 -160 139l-98 2v-281h93z" />
<glyph unicode="&#x42c;" horiz-adv-x="617" d="M42 0q-2 11 -3 24.5t0 23.5l68 18q17 5 27.5 21.5t11.5 37.5l3 148v316q-2 19 -8.5 35t-21.5 21l-73 21q0 7 1 20t3 21h272q2 -11 3.5 -23t0.5 -22l-56 -13q-18 -5 -24 -12t-7 -21v-208h127q58 0 101.5 -14.5t72 -40.5t42.5 -63t14 -83q0 -47 -15 -85.5t-47 -65.5 t-83.5 -42t-123.5 -15zM332 62q41 1 72 7.5t51.5 21.5t31 42t10.5 69q0 136 -160 139l-98 2v-281h93z" />
<glyph unicode="&#x42d;" horiz-adv-x="668" d="M270 -12q-30 0 -61 4t-61 12t-57 18.5t-49 24.5l39 75q54 -32 100.5 -47t102.5 -16q45 0 84.5 16.5t69 49.5t48 82t23.5 115l-330 -5v80l331 -9q-3 74 -22.5 124t-51 80t-74.5 43t-93 13q-66 0 -109.5 -33t-62.5 -87h-46v151q14 6 39 12.5t55 12t61 9.5t58 4 q82 0 148 -19.5t112 -61.5t70.5 -108.5t24.5 -159.5q0 -78 -24.5 -147t-70 -120.5t-110 -82t-144.5 -30.5z" />
<glyph unicode="&#x42e;" horiz-adv-x="1150" d="M740 -12q-165 0 -255 88.5t-91 250.5h-157v-54l4 -160q1 -18 5.5 -26t16.5 -11l96 -26v-10t-1 -14.5t-2 -14.5t-2 -11h-306q-2 11 -3.5 22.5t-0.5 21.5l58 21q10 4 18.5 13t13.5 20t8 23.5t3 23.5l2 128v308q0 21 -6.5 40t-23.5 24l-73 21q0 7 1 20t3 21h272 q2 -11 3.5 -23t0.5 -22l-56 -13q-20 -5 -25.5 -13.5t-5.5 -27.5v-215h161q10 72 40 131.5t77 102.5t108.5 67t135.5 24q85 0 149.5 -23.5t107.5 -67.5t64.5 -106.5t21.5 -140.5q0 -82 -25 -153.5t-71.5 -124.5t-113.5 -83.5t-152 -30.5zM992 364q0 63 -13.5 115t-42.5 89.5 t-75 58.5t-111 21q-68 0 -115 -24t-76 -65t-42 -96t-13 -117q0 -60 12.5 -112t40.5 -91t74 -61t112 -22q70 0 118 24t77 65.5t41.5 96.5t12.5 118z" />
<glyph unicode="&#x42f;" horiz-adv-x="685" d="M3 35q26 8 47 18.5t35 23.5q51 48 90 108t74 117q-24 4 -51 16.5t-49.5 35t-37 55.5t-14.5 77q0 60 23 102t59.5 68.5t81.5 38.5t89 12h276v-23.5t-2 -21.5l-52 -12q-16 -5 -22.5 -12t-6.5 -27v-338l4 -161q0 -36 19 -40l84 -19v-10.5t-1 -15.5t-2 -15.5t-2 -11.5h-286 q-2 11 -3.5 24.5t-0.5 23.5l42 12q16 4 26.5 15.5t16.5 25t8.5 27.5t2.5 25v136h-105q-12 -21 -29 -49.5t-38.5 -62t-46.5 -69.5t-53 -72q-25 -32 -67 -42.5t-99 -12.5zM451 355v286h-86q-89 0 -130 -40t-40 -105q0 -39 12.5 -65.5t35.5 -43.5t54 -24.5t69 -7.5h85z" />
<glyph unicode="&#x430;" horiz-adv-x="565" d="M32 0zM561 35q-6 -6 -23 -13t-37 -13t-41 -10.5t-34 -4.5q-26 0 -40.5 8t-21.5 20t-9 27t-2 30q-7 -8 -23.5 -22.5t-41 -28.5t-56 -25t-68.5 -11q-27 0 -51 8t-42 24t-28.5 39.5t-10.5 55.5q0 40 16.5 69.5t43.5 50.5t61 33t69 18q24 4 47 7t42 5q21 3 41 5v78 q0 60 -32.5 81t-105.5 21q-29 0 -66.5 -6.5t-64.5 -14.5l-16 58q41 17 85 25t89 8q29 0 63.5 -2.5t64 -16.5t49.5 -43.5t20 -82.5v-139l7 -198h109zM352 253q-21 -3 -43 -6q-19 -3 -40.5 -6t-40.5 -8q-103 -24 -103 -98q0 -23 16 -41.5t59 -18.5q23 0 49 7.5t49 17.5 q26 11 54 26v127z" />
<glyph unicode="&#x431;" horiz-adv-x="603" d="M561 273q0 -48 -17 -98t-49 -90.5t-79 -66t-108 -25.5q-45 0 -88 12t-77 47t-54.5 98.5t-20.5 165.5q0 46 5.5 93.5t17 92.5t29.5 85t42 69q19 23 47 38.5t62.5 27.5t74.5 21.5t84 20.5q22 5 44 17t46 28l30 -25l-64 -110q-30 -3 -71 -8t-80.5 -12t-72.5 -15.5t-46 -17.5 q-17 -12 -26.5 -54t-17.5 -114q50 35 95.5 53t99.5 18q43 0 78.5 -12t61 -41t40 -77.5t14.5 -120.5zM463 279q0 34 -5 65t-18.5 55t-38.5 38t-65 14q-21 0 -44 -4t-45.5 -11t-44 -15t-37.5 -17q0 -15 -0.5 -33.5t-0.5 -37.5v-36.5v-30.5q0 -43 6.5 -79.5t24.5 -63t49 -41.5 t80 -15q45 0 72.5 18t42.5 47.5t19.5 67.5t4.5 79z" />
<glyph unicode="&#x432;" horiz-adv-x="578" d="M43 0q-2 11 -3 22.5t0 21.5l46 22q17 8 25.5 26t8.5 32l3 149v161q0 14 -6 27t-23 20l-52 21q-1 10 0 21.5t3 22.5h251q107 0 159.5 -31t52.5 -99q0 -47 -26 -81t-71 -48v-3q19 -2 40.5 -10.5t40 -24.5t30.5 -39t12 -54t-9.5 -59t-33.5 -49.5t-64.5 -34.5t-103.5 -13 h-280zM306 62q62 0 96.5 24t34.5 76q0 45 -36.5 68.5t-127.5 23.5h-63v-41l3 -151h93zM284 311q36 0 60 8t39 20.5t21.5 29t6.5 33.5q0 28 -12.5 44.5t-32 24.5t-43.5 10.5t-46 2.5h-67v-173h74z" />
<glyph unicode="&#x433;" horiz-adv-x="495" d="M472 394q-10 -2 -23 -2q-15 0 -21 3q-4 16 -9 30t-14 25t-23.5 18t-36.5 9l-135 7v-210l5 -181q0 -12 2.5 -18t12.5 -8l104 -16v-10t-0.5 -14.5t-1.5 -15t-2 -11.5h-287q-2 11 -3.5 22t0.5 22l46 22q17 8 25.5 26t8.5 32l3 149v161q0 14 -6 27t-23 20l-52 21 q-1 10 0 21.5t3 22.5h427v-152v0z" />
<glyph unicode="&#x434;" horiz-adv-x="636" d="M11 66h66q44 68 65 128q7 19 14.5 55.5t14.5 75.5t11.5 72t4.5 45q0 19 -6 26.5t-27 13.5l-46 13q0 3 0.5 10t1 15t1 15.5t1.5 10.5h470q2 -11 3 -25t1 -26l-62 -13q-14 -3 -19.5 -13t-5.5 -25v-228l5 -150h97v-218q-3 -1 -10 -1h-15h-16t-11 2q-3 13 -9.5 38.5 t-16.5 50.5t-24 43.5t-33 18.5h-300q-38 0 -57.5 -19t-28.5 -44t-12 -51t-6 -39q-3 -2 -10.5 -2h-15.5t-15 0.5t-10 0.5v220zM406 66l3 150v264h-156q-3 -40 -9 -84.5t-13 -86t-14.5 -76t-14.5 -55.5q-20 -60 -48 -112h252z" />
<glyph unicode="&#x435;" horiz-adv-x="541" d="M46 0zM136 267q3 -66 18.5 -105.5t41 -60t59 -27t71.5 -6.5q42 0 77.5 4.5t66.5 12.5l16 -54q-29 -18 -77.5 -29t-109.5 -11q-54 0 -100 10.5t-80 39t-53.5 77.5t-19.5 127q0 73 17.5 131t50.5 98t79 61.5t103 21.5q53 0 91.5 -18t63 -52t36 -82.5t11.5 -109.5v-28h-362z M396 324q0 85 -24.5 129.5t-84.5 44.5q-59 0 -101.5 -44.5t-48.5 -129.5h259z" />
<glyph unicode="&#x436;" horiz-adv-x="863" d="M301 0q-2 11 -3 18.5t0 17.5l53 21q17 7 26 27.5t9 37.5l4 151v176q-2 13 -8 24.5t-21 17.5l-48 21q0 14 0.5 19.5t2.5 14.5h232q3 -8 3.5 -21t0.5 -20l-59 -14q-13 -3 -16.5 -16t-3.5 -25v-177l3 -157q1 -20 6.5 -37t23.5 -25l38 -17q0 -7 -1 -18t-4 -19h-238zM8 26 q27 8 63 41t70 74l136 154l-237 215v36h184q1 -5 1.5 -10.5t0.5 -11.5v-14l-27 -14q-7 -4 -10.5 -12t-3.5 -17q0 -13 14 -27l176 -166l-164 -188q-21 -26 -46 -45t-51.5 -32.5t-51.5 -21t-46 -8.5zM847 -21q-21 1 -46 8.5t-51.5 21t-51.5 32.5t-46 45l-164 188l176 166 q14 14 14 27q0 9 -3.5 17t-10.5 12l-27 14v14v11.5t2 10.5h184v-36l-237 -215l136 -154q34 -41 70 -74t63 -41z" />
<glyph unicode="&#x437;" horiz-adv-x="473" d="M217 -12q-54 0 -103.5 11.5t-84.5 31.5l35 77q10 -6 26 -15t35.5 -16.5t42.5 -13t49 -5.5q51 0 81 23.5t30 65.5q0 24 -10 41.5t-26.5 29.5t-36.5 17.5t-41 5.5h-79v66h37q59 0 97 25t38 77q0 46 -28 67.5t-66 21.5q-48 0 -75.5 -29.5t-37.5 -73.5h-36l-14 124 q30 15 71 26.5t93 11.5q34 0 68.5 -6.5t62.5 -22t45.5 -42.5t17.5 -69q0 -33 -11 -58t-28.5 -42t-38 -27t-38.5 -13q24 -3 48 -9.5t44 -20.5t32.5 -37t12.5 -60q0 -74 -53.5 -118t-158.5 -44z" />
<glyph unicode="&#x438;" horiz-adv-x="724" d="M674 546q1 -4 2 -11.5t1.5 -15t0.5 -14.5v-10l-67 -14q-13 -3 -16.5 -16t-3.5 -25v-168l3 -183q0 -13 4.5 -16.5t12.5 -5.5l87 -16v-10t-1 -14.5l-2 -15t-2 -11.5h-284q-3 22 -3 44l63 22q12 5 21.5 22.5t10.5 31.5l2 138v109l-292 -251l1 -25q1 -12 2.5 -17t11.5 -7 l78 -16v-10t-0.5 -14.5t-1.5 -15t-2 -11.5h-257q-2 11 -3 22.5t0 21.5l46 22q17 8 25.5 26t8.5 32l3 149v161q0 14 -6 27t-23 20l-52 21q-1 10 0 21.5t3 22.5h248q1 -4 2 -11.5t1.5 -15t0.5 -14.5v-10l-67 -14q-13 -3 -16.5 -16t-3.5 -25v-173l1 -78l293 251q-1 13 -4 20 q-6 14 -25 21l-52 21q-1 10 0 21.5t3 22.5h248z" />
<glyph unicode="&#x439;" horiz-adv-x="724" d="M39 0zM362 637q-33 0 -61.5 9t-49.5 24.5t-33 37.5t-12 48l98 26v-73q10 -15 24.5 -24t33.5 -9q20 0 35.5 9.5t22.5 23.5v73l98 -26q0 -26 -12 -48t-33 -37.5t-49.5 -24.5t-61.5 -9zM674 546q1 -4 2 -11.5t1.5 -15t0.5 -14.5v-10l-67 -14q-13 -3 -16.5 -16t-3.5 -25v-168 l3 -183q0 -13 4.5 -16.5t12.5 -5.5l87 -16v-10t-1 -14.5l-2 -15t-2 -11.5h-284q-3 22 -3 44l63 22q12 5 21.5 22.5t10.5 31.5l2 138v109l-292 -251l1 -25q1 -12 2.5 -17t11.5 -7l78 -16v-10t-0.5 -14.5t-1.5 -15t-2 -11.5h-257q-2 11 -3 22.5t0 21.5l46 22q17 8 25.5 26 t8.5 32l3 149v161q0 14 -6 27t-23 20l-52 21q-1 10 0 21.5t3 22.5h248q1 -4 2 -11.5t1.5 -15t0.5 -14.5v-10l-67 -14q-13 -3 -16.5 -16t-3.5 -25v-173l1 -78l293 251q-1 13 -4 20q-6 14 -25 21l-52 21q-1 10 0 21.5t3 22.5h248z" />
<glyph unicode="&#x43a;" horiz-adv-x="624" d="M284 45q0 -7 -1 -22t-4 -23h-242q-2 11 -3 22.5t0 21.5l53 21q17 7 26 27.5t9 37.5l4 143v166q-2 13 -8 24.5t-21 17.5l-52 21q0 26 3 44h248q1 -4 2 -11.5t1.5 -15t0.5 -14.5v-10l-67 -14q-13 -3 -16.5 -16t-3.5 -25v-167l3 -149q1 -20 6.5 -37t23.5 -25zM620 -21 q-62 0 -118.5 18t-98.5 68l-175 209l196 166q14 14 14 27q0 9 -4 17t-12 10l-43 16v14v11.5t2 10.5h202v-36l-253 -211l149 -179q17 -20 38 -36t41 -28t37.5 -19.5t27.5 -10.5z" />
<glyph unicode="&#x43b;" horiz-adv-x="615" d="M300 0q-1 6 -1.5 11.5t-0.5 11.5q-1 5 -1 10.5v10.5l63 22q12 5 21.5 22.5t10.5 31.5v360h-152q-5 -50 -7.5 -105.5t-8.5 -109.5t-18.5 -103t-36.5 -88q-20 -33 -51.5 -56t-76.5 -33l-31 93q38 9 64 20.5t43 31.5q10 12 18 37.5t14 57t10 66t6 65t3 53t1 31.5 q0 14 -3.5 23.5t-16.5 14.5l-59 17v10t0.5 15t1.5 15.5t2 10.5h471q1 -4 2 -11.5t1.5 -15t0.5 -14.5v-10l-67 -14q-13 -3 -16.5 -16t-3.5 -25v-168l3 -183q0 -13 4.5 -16.5t12.5 -5.5l87 -16v-10t-1 -14.5l-2 -15t-2 -11.5h-284v0z" />
<glyph unicode="&#x43c;" horiz-adv-x="833" d="M725 103q2 -14 10 -24.5t19 -15.5l56 -17q0 -3 -0.5 -9t-1 -13l-1 -14t-1.5 -10h-238q-2 9 -2.5 22.5t-0.5 21.5l33 10q13 4 21 13.5t12.5 22t5 26t-0.5 24.5l-22 258l-2 42h-4l-164 -439l-74 -17l-159 459h-5v-39l-38 -305q-3 -22 8 -26l83 -23q0 -3 -0.5 -9.5t-1 -14.5 t-1.5 -15.5t-2 -10.5h-229q-2 9 -0.5 26t2.5 25l39 14q17 8 26.5 25.5t13.5 35.5l39 308q3 14 -4 27t-18 17l-56 17q0 3 0.5 10t1 15t1.5 15.5t2 10.5h194l105 -315l44 -119h7l42 123l119 311h178q1 -4 2 -11.5t2 -15.5t1.5 -15.5t0.5 -10.5l-46 -14q-14 -5 -23 -20t-6 -41z " />
<glyph unicode="&#x43d;" horiz-adv-x="714" d="M43 0q-2 11 -3 22.5t0 21.5l46 22q17 8 25.5 26t8.5 32l3 149v161q0 14 -6 27t-23 20l-52 21q-1 10 0 21.5t3 22.5h246q1 -4 2 -11.5t1.5 -15t0.5 -14.5v-10l-67 -14q-13 -3 -16.5 -16t-3.5 -25v-124h288v123q-2 13 -8 24.5t-21 17.5l-52 21q-1 10 0 21.5t3 22.5h246 q1 -4 2 -11.5t1.5 -15t0.5 -14.5v-10l-67 -14q-13 -3 -16.5 -16t-3.5 -25v-168l3 -183q0 -13 4.5 -16.5t12.5 -5.5l87 -16v-10t-1 -14.5l-2 -15t-2 -11.5h-282q-3 22 -3 44l63 22q12 5 21.5 22.5t10.5 31.5l2 130h-287l3 -159q0 -12 1.5 -17t11.5 -7l78 -16v-10t-0.5 -14.5 t-1.5 -15t-2 -11.5h-255v0z" />
<glyph unicode="&#x43e;" d="M44 0zM537 273q0 -55 -19.5 -106t-53.5 -90t-80.5 -62t-99.5 -23q-56 0 -100.5 15.5t-75.5 49t-47.5 85.5t-16.5 125q0 56 20 108t53.5 92.5t79 65t96.5 24.5q122 0 183 -69t61 -215zM439 279q0 38 -5.5 75.5t-22 67.5t-47.5 49t-82 19q-46 0 -74 -20.5t-43 -52.5 t-20 -72t-5 -79q0 -43 6.5 -79.5t24.5 -63.5t49 -42t80 -15q45 0 72.5 18t42.5 48t19.5 68t4.5 79z" />
<glyph unicode="&#x43f;" horiz-adv-x="709" d="M576 272l3 -183q0 -13 4.5 -16.5t12.5 -5.5l87 -16v-10t-1 -14.5l-2 -15t-2 -11.5h-284q-3 22 -3 44l63 22q12 5 21.5 22.5t10.5 31.5l2 153v207h-278v-209l3 -180q0 -12 1.5 -17t11.5 -7l78 -16v-10t-0.5 -14.5t-1.5 -15t-2 -11.5h-257q-2 11 -3 22.5t0 21.5l46 22 q17 8 25.5 26t8.5 32l3 149v161q0 14 -6 27t-23 20l-52 21q-1 10 0 21.5t3 22.5h614q1 -4 2 -11.5t1.5 -15t0.5 -14.5v-10l-67 -14q-13 -3 -16.5 -16t-3.5 -25v-168z" />
<glyph unicode="&#x440;" horiz-adv-x="619" d="M15 0zM573 289q0 -86 -23 -143t-60.5 -91t-86 -48.5t-99.5 -14.5q-36 0 -55.5 1.5t-39.5 4.5l6 -130q0 -8 2.5 -13.5t16.5 -8.5l80 -15q1 -8 0.5 -24.5t-4.5 -26.5h-267q-3 16 -3.5 28.5t0.5 18.5l36 15q16 7 26.5 23.5t10.5 39.5l3 370v205h-101v49q13 3 32 6.5t39.5 7 t40.5 6t37 2.5q21 0 30 -8t9 -28v-22q25 21 59 41t82 20q117 0 173 -69t56 -196zM476 269q0 37 -7.5 75.5t-25 70t-45.5 51.5t-70 20q-22 0 -41.5 -5t-35.5 -12.5t-28 -15.5t-19 -13v-167l3 -208q9 -2 16 -3t16.5 -2.5t25 -2t42.5 -0.5q45 0 77 16t52.5 44t30 67t9.5 85z " />
<glyph unicode="&#x441;" horiz-adv-x="505" d="M46 0zM467 485q0 -20 -12.5 -41.5t-34.5 -34.5q-15 17 -29.5 31t-30.5 24.5t-35.5 16.5t-44.5 6q-69 0 -106 -49t-37 -162q0 -47 8 -85.5t28.5 -66.5t55 -43.5t88.5 -15.5q39 0 76 6.5t55 12.5l17 -52q-17 -11 -58.5 -26t-114.5 -15q-71 0 -118 18t-75.5 51.5t-40.5 81 t-12 106.5q0 154 72 231.5t210 77.5q11 0 34 -1.5t46.5 -8.5t41 -21.5t17.5 -40.5z" />
<glyph unicode="&#x442;" horiz-adv-x="542" d="M517 546v-152q-4 -1 -10 -1.5t-13 -0.5t-12.5 0.5t-8.5 2.5q-4 16 -9 30.5t-14 26t-23.5 19t-36.5 9.5h-76v-208l3 -183q0 -13 4.5 -16.5t12.5 -5.5l87 -16v-10t-1 -14.5l-2 -15t-2 -11.5h-284q-3 22 -3 44l63 22q12 5 21.5 22.5t10.5 31.5l3 152v208h-76 q-23 -2 -37 -9.5t-23 -19t-14 -26t-9 -30.5q-3 -2 -8.5 -2.5t-12.5 -0.5t-13 0.5t-10 1.5v152h493z" />
<glyph unicode="&#x443;" horiz-adv-x="539" d="M0 0zM545 546q0 -13 -0.5 -25.5t-3.5 -21.5l-16 -6t-16 -10t-16 -20t-17 -36l-200 -507q-20 -50 -48.5 -89.5t-70.5 -66.5l-55 71q24 15 47.5 37t43.5 51q12 17 22 37t17 43l-171 440q-6 14 -22.5 31.5t-42.5 26.5v23t4 22h221q0 -15 -1 -29t-3 -23h-77l146 -387l120 314 q8 22 1.5 43.5t-29.5 29.5l-21 8q-1 2 -1 4v9q0 8 0.5 17t1.5 14h187v0z" />
<glyph unicode="&#x444;" horiz-adv-x="751" d="M247 -219q-2 11 -3 22.5t0 21.5l53 19q18 7 27 23t10 33l2 93q-59 0 -112 12.5t-92.5 44t-63 85t-23.5 134.5q0 78 29.5 132t73 87.5t94.5 48.5t95 15v141h-101v48q13 3 32 7t39.5 7.5t40.5 5.5t37 2q39 0 39 -39v-172q69 0 123 -15t91.5 -48t57.5 -85.5t20 -128.5 q0 -59 -16 -103.5t-42 -75.5t-58 -51t-64.5 -31.5t-61.5 -16t-49 -4.5l4 -117q0 -12 3.5 -17t14.5 -8l85 -20v-10t-1 -14.5t-2 -14.5t-2 -11h-280zM424 59q62 0 100.5 15t59.5 43.5t28 69.5t7 94q0 44 -10 81.5t-33.5 65t-60.5 43t-91 15.5v-427zM337 486q-62 0 -100 -13.5 t-59 -40.5t-28.5 -68t-7.5 -96q0 -97 50.5 -153t144.5 -56v427z" />
<glyph unicode="&#x445;" horiz-adv-x="590" d="M15 0zM573 27q0 -7 -0.5 -14.5t-2.5 -12.5h-226q-2 14 -2 23.5v16.5l9 5q7 4 13.5 13.5t6.5 22.5q0 14 -9 27l-78 111l-109 -131q-8 -9 -8 -19q0 -11 12 -13l54 -7q0 -9 -0.5 -23.5t-2.5 -25.5h-212q-2 12 -2.5 21.5t0.5 19.5q17 6 36.5 17.5t34.5 28.5l161 183l-146 202 q-8 11 -21.5 17.5t-44.5 17.5q0 4 -0.5 8t-0.5 8q0 6 0.5 11.5t1.5 11.5h220q0 -12 -1.5 -27t-5.5 -26h-59l110 -162l96 112q5 7 9 14.5t4 14.5q0 11 -10 16l-36 22q0 9 1 17t4 19h190q0 -11 -0.5 -23t-4.5 -17q-23 -7 -44 -20t-39 -36l-134 -166l137 -181q10 -13 19 -21.5 t20 -14.5t25 -11t35 -12v-17z" />
<glyph unicode="&#x446;" horiz-adv-x="706" d="M484 66l4 208v165q-2 13 -8.5 25t-20.5 17l-42 16q-1 10 0 24t3 25h228q1 -4 2 -11.5t1.5 -15t0.5 -14.5v-10l-57 -14q-13 -3 -16.5 -16t-3.5 -25v-181l4 -193h98v-208q-3 -1 -10.5 -1h-16t-16 0.5t-10.5 1.5q-3 13 -9.5 37t-16 47t-23.5 40t-33 17h-499q-2 11 -3 22.5 t0 21.5l46 22q17 8 25.5 26t8.5 32l3 149v161q0 14 -6 27t-23 20l-52 21q-1 10 0 21.5t3 22.5h238q3 -8 3.5 -23.5t0.5 -22.5l-57 -14q-13 -3 -16.5 -18.5t-3.5 -27.5v-182l3 -192h271z" />
<glyph unicode="&#x447;" horiz-adv-x="644" d="M511 233l3 -144q0 -13 4.5 -16.5t12.5 -5.5l87 -16v-10t-1 -14.5l-2 -15t-2 -11.5h-284q-3 22 -3 44l63 22q12 5 21.5 22.5t10.5 31.5l3 72v47q-28 -12 -77 -26t-105 -14q-51 0 -82.5 12t-48.5 34t-22.5 54t-5.5 73v62q0 14 -6 27t-23 20l-52 21q-1 10 0 21.5t3 22.5h248 q1 -4 2 -11.5t1.5 -15t0.5 -14.5v-10l-67 -14q-13 -3 -16.5 -16t-3.5 -25v-62q0 -62 26.5 -84.5t83.5 -22.5q48 0 86.5 9.5t57.5 20.5v138q-2 13 -8 24.5t-21 17.5l-52 21q-1 10 0 21.5t3 22.5h248q1 -4 2 -11.5t1.5 -15t0.5 -14.5v-10l-67 -14q-13 -3 -16.5 -16t-3.5 -25 v-207z" />
<glyph unicode="&#x448;" horiz-adv-x="954" d="M518 259l4 -193h209l4 208v181q0 9 -3 16.5t-12 9.5l-57 14v10t0.5 14.5l1 15t2.5 11.5h246q2 -11 3 -24.5t0 -23.5l-64 -19q-20 -11 -25 -22.5t-5 -28.5v-169l3 -170q1 -13 5.5 -16.5t12.5 -5.5l77 -16v-10t-1 -14.5l-2 -15t-2 -11.5h-878q-2 11 -3 22.5t0 21.5l56 22 q17 8 25.5 26t8.5 32l3 149v182q0 9 -3 16.5t-12 9.5l-67 14v10t0.5 14.5l1 15t2.5 11.5h240q2 -11 3 -24.5t0 -23.5l-48 -19q-20 -11 -25 -22.5t-5 -28.5v-170l3 -192h210l4 207v171q0 17 -8 27t-17 12l-52 12v10t0.5 14.5l1 15t2.5 11.5h239q2 -11 3 -24.5t0 -23.5 l-52 -19q-20 -11 -25 -22.5t-5 -28.5v-169z" />
<glyph unicode="&#x449;" horiz-adv-x="957" d="M518 259l4 -193h209l4 208v181q0 9 -3 16.5t-12 9.5l-57 14v10t0.5 14.5l1 15t2.5 11.5h246q2 -11 3 -24.5t0 -23.5l-64 -19q-20 -11 -25 -22.5t-5 -28.5v-169l4 -193h98v-208q-3 -1 -10.5 -1h-15.5t-15 0.5t-10 1.5q-3 13 -9.5 37t-16 47t-23.5 40t-33 17h-754 q-2 11 -3 22.5t0 21.5l56 22q17 8 25.5 26t8.5 32l3 149v182q0 9 -3 16.5t-12 9.5l-67 14v10t0.5 14.5l1 15t2.5 11.5h240q2 -11 3 -24.5t0 -23.5l-48 -19q-20 -11 -25 -22.5t-5 -28.5v-170l3 -192h210l4 207v171q0 17 -8 27t-17 12l-52 12v10t0.5 14.5l1 15t2.5 11.5h239 q2 -11 3 -24.5t0 -23.5l-52 -19q-20 -11 -25 -22.5t-5 -28.5v-169z" />
<glyph unicode="&#x44a;" horiz-adv-x="616" d="M24 546h362q1 -4 2 -11.5t1.5 -15t0.5 -14.5v-10l-67 -14q-13 -3 -16.5 -16t-3.5 -25v-108h84q44 0 82 -11t66 -32t44 -51.5t16 -69.5q0 -38 -14 -69t-42.5 -53.5t-72.5 -34.5t-104 -12l-226 1q-2 11 -3 22.5t0 21.5l46 22q17 8 25.5 26t8.5 32l3 149v211l-65 -6 q-23 -2 -37 -9t-23 -18.5t-14 -25.5t-9 -30q-3 -2 -8.5 -2.5t-12.5 -0.5t-13 0.5t-10 1.5v152zM304 58h63q65 3 101 27.5t36 78.5q0 48 -30 77.5t-100 30.5l-70 1v-215z" />
<glyph unicode="&#x44b;" horiz-adv-x="816" d="M762 546q1 -4 2 -11.5t1.5 -15t0.5 -14.5v-10l-57 -14q-13 -3 -16.5 -16t-3.5 -25v-168l3 -183q0 -13 4.5 -16.5t12.5 -5.5l77 -16v-10t-1 -14.5l-2 -15t-2 -11.5h-274q-3 22 -3 44l63 22q12 5 21.5 22.5t10.5 31.5l3 130v189q-2 13 -8 24.5t-21 17.5l-52 21 q-1 10 0 21.5t3 22.5h238zM210 332h84q44 0 82 -11t66 -32t44 -51.5t16 -69.5q0 -38 -14 -69t-42.5 -53.5t-72.5 -34.5t-104 -12l-226 1q-2 11 -3 22.5t0 21.5l46 22q17 8 25.5 26t8.5 32l3 149v161q0 14 -6 27t-23 20l-52 21q-1 10 0 21.5t3 22.5h248q1 -4 2 -11.5t1.5 -15 t0.5 -14.5v-10l-67 -14q-13 -3 -16.5 -16t-3.5 -25v-108zM211 59h63q65 3 101 27t36 78q0 48 -30 77t-100 30l-70 1v-213z" />
<glyph unicode="&#x44c;" horiz-adv-x="523" d="M210 332h84q44 0 82 -11t66 -32t44 -51.5t16 -69.5q0 -38 -14 -69t-42.5 -53.5t-72.5 -34.5t-104 -12l-226 1q-2 11 -3 22.5t0 21.5l46 22q17 8 25.5 26t8.5 32l3 149v161q0 14 -6 27t-23 20l-52 21q-1 10 0 21.5t3 22.5h248q1 -4 2 -11.5t1.5 -15t0.5 -14.5v-10l-67 -14 q-13 -3 -16.5 -16t-3.5 -25v-108zM211 59h63q65 3 101 27t36 78q0 48 -30 77t-100 30l-70 1v-213z" />
<glyph unicode="&#x44d;" horiz-adv-x="504" d="M360 313q-5 57 -21 93t-38 57t-46.5 28.5t-45.5 7.5q-35 0 -55.5 -8.5t-32.5 -22.5t-17.5 -33t-10.5 -41h-36l-15 131q27 14 72 24.5t91 10.5q71 0 120 -21.5t79 -59.5t43 -90.5t13 -115.5q0 -57 -20 -108.5t-55 -90t-82 -61t-100 -22.5q-56 0 -96 12t-69 27l35 77 l22 -11t33.5 -14t43.5 -12t52 -5q43 0 68.5 15.5t40 40t19.5 56t8 63.5h-211v73h211z" />
<glyph unicode="&#x44e;" horiz-adv-x="875" d="M830 273q0 -55 -19.5 -105.5t-53.5 -89.5t-80.5 -62t-99.5 -23q-55 0 -98.5 15t-74.5 46.5t-48 81t-19 117.5h-127l3 -162q0 -12 1.5 -17t11.5 -7l78 -16v-10t-0.5 -14.5t-1.5 -15t-2 -11.5h-257q-2 11 -3 22.5t0 21.5l46 22q17 8 25.5 26t8.5 32l3 149v161q0 14 -6 27 t-23 20l-52 21q-1 10 0 21.5t3 22.5h248q1 -4 2 -11.5t1.5 -15t0.5 -14.5v-10l-67 -14q-13 -3 -16.5 -16t-3.5 -25v-126h131q8 48 30 91.5t55 76.5t74 52.5t86 19.5q121 0 182.5 -68t61.5 -213zM732 279q0 38 -5.5 75t-22 66.5t-47.5 48t-82 18.5q-46 0 -74 -20t-43 -51.5 t-20 -71t-5 -78.5q0 -43 6.5 -79.5t24.5 -63t49 -41.5t80 -15q45 0 72.5 18t42.5 47.5t19.5 67.5t4.5 79z" />
<glyph unicode="&#x44f;" horiz-adv-x="593" d="M6 24q24 9 42 18.5t28 17.5q30 25 61 68.5t66 100.5q-18 5 -39 16t-39 29.5t-30 44t-12 58.5q0 40 15 71t42 53t64 33.5t81 11.5h262q1 -4 2 -11.5t1.5 -15t0.5 -14.5v-10l-67 -14q-13 -3 -16.5 -16t-3.5 -25v-209l4 -140q0 -12 1.5 -17t11.5 -7l78 -16v-10t-0.5 -14.5 t-1.5 -15t-2 -11.5h-257q-2 11 -3 22.5t0 21.5l46 22q17 8 25.5 26t8.5 32l2 94h-86q-17 -31 -37.5 -67t-42 -68t-42 -55.5t-38.5 -29.5q-7 -2 -20.5 -5.5t-30 -7t-34 -6t-31.5 -2.5zM377 274v206h-78q-57 0 -88 -27.5t-31 -76.5q0 -50 30.5 -76t104.5 -26h62z" />
<glyph unicode="&#x451;" horiz-adv-x="541" d="M46 0zM177 655q-5 0 -15 8t-20.5 18.5t-18.5 20.5t-8 15t8 15.5t18.5 21t20.5 18t15 7.5t15.5 -8t21 -18.5t18.5 -20.5t8 -15q0 -4 -7.5 -14t-18 -20.5t-21 -19t-16.5 -8.5zM395 655q-5 0 -15 8t-20.5 18.5t-18.5 20.5t-8 15t8 15.5t18.5 21t20.5 18t15 7.5t15.5 -8 t21 -18.5t18.5 -20.5t8 -15q0 -4 -7.5 -14t-18 -20.5t-21 -19t-16.5 -8.5zM136 267q3 -66 18.5 -105.5t41 -60t59 -27t71.5 -6.5q42 0 77.5 4.5t66.5 12.5l16 -54q-29 -18 -77.5 -29t-109.5 -11q-54 0 -100 10.5t-80 39t-53.5 77.5t-19.5 127q0 73 17.5 131t50.5 98t79 61.5 t103 21.5q53 0 91.5 -18t63 -52t36 -82.5t11.5 -109.5v-28h-362zM396 324q0 85 -24.5 129.5t-84.5 44.5q-59 0 -101.5 -44.5t-48.5 -129.5h259z" />
<glyph unicode="&#x452;" horiz-adv-x="643" d="M110 622v72h-101v47q13 3 32 7t39.5 7.5t40.5 6t37 2.5q21 0 30 -8t9 -28v-106h206v-66h-206v-141q15 11 33.5 23.5t42.5 23.5t53.5 18t66.5 7q57 0 94.5 -21.5t60 -57.5t31.5 -81.5t9 -93.5q0 -82 -24.5 -155.5t-59 -133t-72 -102.5t-63.5 -62l-37 41q34 33 63 77 t50.5 94t33.5 105t12 110q0 42 -5 79t-19.5 65t-40.5 44t-68 16q-24 0 -49 -5t-46.5 -12t-39 -14.5t-26.5 -13.5v-93l4 -174q0 -18 3 -24t16 -8l94 -16v-10t-1 -14.5l-2 -15t-2 -11.5h-278q-2 11 -3 22.5t0 21.5l46 20q14 6 23.5 25t10.5 42l2 142v283h-102v66h102z" />
<glyph unicode="&#x456;" horiz-adv-x="340" d="M34 0zM41 0q-3 22 -3 44l63 22q12 5 21.5 22.5t10.5 31.5l3 152v208h-102v51q13 3 32 7t39.5 7t40.5 5.5t37 2.5q21 0 30.5 -8t9.5 -28v-245l3 -183q0 -13 4.5 -16.5t12.5 -5.5l87 -16v-10t-1 -14.5l-2 -15t-2 -11.5h-284zM178 640q-6 0 -18.5 9.5t-24.5 22.5t-21.5 25 t-9.5 18t9.5 18.5t22 25t24.5 21.5t18 9q5 0 17.5 -9.5t25 -22t22.5 -24.5t10 -18q0 -5 -9.5 -17t-22 -25t-25 -23t-18.5 -10z" />
<glyph unicode="&#x458;" horiz-adv-x="289" d="M0 0zM22 -224q-21 0 -35.5 2t-24.5 6l9 65q10 -2 21 -4q9 -2 20 -3t22 -1q27 0 43 8.5t24.5 24.5t11.5 39.5t3 54.5v512h-100v51q13 3 32 7t39.5 7t40.5 5.5t37 2.5q21 0 29.5 -8t8.5 -28v-245l5 -275q1 -51 -13.5 -92t-40 -69.5t-60 -44t-72.5 -15.5zM159 641 q-6 0 -18 9.5t-24.5 22.5t-22 25t-9.5 18t9.5 18.5t22 25t25 21.5t17.5 9q6 0 18 -9.5t25 -22t22.5 -24.5t9.5 -18q0 -5 -9.5 -17t-22 -25t-25 -23t-18.5 -10z" />
<glyph unicode="&#x459;" horiz-adv-x="790" d="M10 78q38 9 63.5 20.5t42.5 31.5q10 12 18 37.5t14 57t10 66t6 65t3 53t1 31.5q0 14 -3.5 23.5t-16.5 14.5l-59 17v10t0.5 15t1.5 15.5t2 10.5h458q1 -4 2 -11.5t1.5 -15t0.5 -14.5v-10l-57 -14q-13 -3 -16.5 -16t-3.5 -25v-108h84q44 0 82 -11t66 -32t44 -51.5t16 -69.5 q0 -38 -14 -69t-42.5 -53.5t-72.5 -34.5t-104 -12l-225 1q-2 11 -3 22.5t0 21.5l46 22q17 8 25.5 26t8.5 32l3 149l-1 207h-152q-5 -48 -7.5 -100.5t-8 -104.5t-16.5 -100t-32 -87q-20 -38 -52.5 -65t-82.5 -38zM542 59q65 3 101 27t36 78q0 48 -30 77t-100 30l-70 1v-213 h63z" />
<glyph unicode="&#x45a;" horiz-adv-x="882" d="M654 329q44 0 82 -11t66 -32t44 -51.5t16 -69.5q0 -76 -56.5 -121.5t-176.5 -44.5l-225 1q-2 11 -3 22.5t0 21.5l46 22q17 8 25.5 26t8.5 32l2 136h-273l3 -169q0 -12 1.5 -17t11.5 -7l78 -16v-10t-0.5 -14.5t-1.5 -15t-2 -11.5h-257q-2 11 -3 22.5t0 21.5l46 22 q17 8 25.5 26t8.5 32l3 149v161q0 14 -6 27t-23 20l-52 21q-1 10 0 21.5t3 22.5h248q1 -4 2 -11.5t1.5 -15t0.5 -14.5v-10l-67 -14q-13 -3 -16.5 -16t-3.5 -25v-114h274v113q-2 13 -8 24.5t-21 17.5l-52 21q-1 10 0 21.5t3 22.5h248q1 -4 2 -11.5t1.5 -15t0.5 -14.5v-10 l-67 -14q-13 -3 -16.5 -16t-3.5 -25v-111h83zM571 65h63q65 3 101 22.5t36 73.5q0 48 -30 74t-100 27l-70 1v-198z" />
<glyph unicode="&#x45b;" horiz-adv-x="673" d="M197 556v-141q15 11 35.5 23.5t46 23.5t56.5 18t68 7q57 0 89.5 -13.5t49.5 -38t21.5 -58.5t4.5 -74v-70l3 -145q0 -12 4 -15.5t15 -5.5l72 -14v-10.5t-1 -15.5t-2 -15.5t-2 -11.5h-248q-2 11 -3 25t0 24l43 19q6 3 11.5 10t9.5 16t6 18t2 15l3 160q0 34 -3.5 58 t-15 38.5t-34 21t-60.5 6.5q-24 0 -50.5 -5t-50 -12t-42.5 -14.5t-28 -13.5v-93l4 -174q0 -18 3 -24t16 -8l94 -16v-10t-1 -14.5l-2 -15t-2 -11.5h-278q-2 11 -3 22.5t0 21.5l46 20q14 6 23.5 25t10.5 42l2 142v283h-102v66h102v72h-101v47q13 3 32 7t39.5 7.5t40.5 6 t37 2.5q21 0 30 -8t9 -28v-106h206v-66h-206z" />
<glyph unicode="&#x45e;" horiz-adv-x="539" d="M0 0zM288 637q-33 0 -61.5 9t-49.5 24.5t-33 37.5t-12 48l98 26v-73q10 -15 24.5 -24t33.5 -9q20 0 35.5 9.5t22.5 23.5v73l98 -26q0 -26 -12 -48t-33 -37.5t-49.5 -24.5t-61.5 -9zM545 546q0 -13 -0.5 -25.5t-3.5 -21.5l-16 -6t-16 -10t-16 -20t-17 -36l-200 -507 q-20 -50 -48.5 -89.5t-70.5 -66.5l-55 71q24 15 47.5 37t43.5 51q12 17 22 37t17 43l-171 440q-6 14 -22.5 31.5t-42.5 26.5v23t4 22h221q0 -15 -1 -29t-3 -23h-77l146 -387l120 314q8 22 1.5 43.5t-29.5 29.5l-21 8q-1 2 -1 4v9q0 8 0.5 17t1.5 14h187v0z" />
<glyph unicode="&#x45f;" horiz-adv-x="703" d="M484 66l4 208v165q-2 13 -8.5 25t-20.5 17l-42 16q-1 10 0 24t3 25h228q1 -4 2 -11.5t1.5 -15t0.5 -14.5v-10l-57 -14q-13 -3 -16.5 -16t-3.5 -25v-172l5 -187q0 -9 2 -11t11 -4l82 -15v-10t-0.5 -14.5t-1.5 -15t-2 -11.5h-268l2 -142h-91l2 142h-273q-2 11 -3 22.5 t0 21.5l46 22q17 8 25.5 26t8.5 32l3 149v161q0 14 -6 27t-23 20l-52 21q-1 10 0 21.5t3 22.5h238q3 -8 3.5 -23.5t0.5 -22.5l-57 -14q-13 -3 -16.5 -18.5t-3.5 -27.5v-182l3 -192h271z" />
<glyph horiz-adv-x="603" d="M526 613q0 -45 -32.5 -89t-97.5 -76q42 -6 73 -24.5t51.5 -45.5t30.5 -61t10 -70q0 -46 -16 -91.5t-47.5 -81.5t-78.5 -58.5t-109 -22.5q-57 0 -101.5 18t-75.5 60t-47 111t-16 171v50q0 75 18 141.5t53.5 116.5t87 79t118.5 29q49 0 83.5 -15.5t55.5 -39t30.5 -51 t9.5 -50.5zM166 303q0 -125 38 -180.5t122 -55.5q34 0 60 13.5t44 36.5t27 53.5t9 65.5q0 28 -8 54.5t-24 46.5t-40.5 32.5t-57.5 12.5q-32 0 -70 -11l-23 52q48 18 82.5 40t56.5 45.5t32.5 45t10.5 38.5q0 22 -5.5 42t-17.5 35.5t-31 24.5t-47 9q-34 0 -63 -17t-50 -51 t-33 -86.5t-12 -122.5v-123z" />
<glyph horiz-adv-x="412" d="M184 -13q-22 0 -44.5 10.5t-42 28.5t-34 41.5t-19.5 48.5t2.5 43t28.5 40.5t56.5 54.5t86.5 85q18 18 27 38.5t5 37.5q-2 12 -7.5 23.5t-12 20.5t-14.5 14.5t-15 5.5q-21 0 -59 -10t-71 -28l-32 44q12 11 33 24t45 23.5t48.5 17.5t45.5 7t43.5 -12t41.5 -31.5t33 -43.5 t19 -47q4 -20 0 -36.5t-12 -30.5t-19 -26t-21 -21q-48 -43 -78.5 -71.5t-48 -48t-23 -32.5t-2.5 -25t9.5 -23.5t14 -20.5t15.5 -14t13 -5q17 0 37.5 5.5t41.5 14.5t41 20t36 22l38 -44q-19 -20 -43.5 -38t-52 -31.5t-56 -22t-54.5 -8.5z" />
<glyph horiz-adv-x="579" d="M499 31q0 -58 -19.5 -106t-53.5 -82t-79.5 -52.5t-97.5 -18.5q-56 0 -105 14t-78 29l37 83q8 -4 24.5 -12t39 -15.5t49 -13.5t54.5 -6q59 0 91.5 24t42.5 93q2 14 3 34.5t1 39.5q-12 -9 -28 -17t-34.5 -15t-38 -11t-36.5 -4q-36 0 -75.5 7.5t-72.5 34.5t-55 80t-22 143 q0 69 21.5 123t57.5 90.5t84 56t101 19.5q24 0 49.5 -2t51 -5.5t48 -8t40.5 -9.5v-493zM410 470q-18 4 -39.5 10.5t-61.5 6.5q-50 0 -83 -16.5t-53 -45.5t-28 -69t-8 -88q0 -54 9 -90.5t27.5 -59t46 -32t63.5 -9.5q43 0 73 5t52 15z" />
<glyph horiz-adv-x="863" d="M301 0q-2 11 -3 18.5t0 17.5l53 21q17 7 26 27.5t9 37.5l4 151v420h-101v48q13 3 31 7t37.5 7.5t39 5.5t36.5 2q40 0 40 -39v-451l3 -157q1 -20 6.5 -37t23.5 -25l38 -17q0 -7 -1 -18t-4 -19h-238zM211 86q-21 -26 -46 -45t-51.5 -32.5t-51.5 -21t-46 -8.5l-8 47 q27 8 63 41t70 74l136 154l-237 215v36h184q1 -5 1.5 -10.5t0.5 -11.5v-14l-27 -14q-7 -4 -10.5 -12t-3.5 -17q0 -13 14 -27l176 -166zM847 -21q-21 1 -46 8.5t-51.5 21t-51.5 32.5t-46 45l-164 188l176 166q14 14 14 27q0 9 -3.5 17t-10.5 12l-27 14v14v11.5t2 10.5h184 v-36l-237 -215l136 -154q34 -41 70 -74t63 -41z" />
<glyph horiz-adv-x="452" d="M173 -212q-56 0 -103 14t-76 29l35 77q8 -4 22 -11.5t33 -14.5t42.5 -12t51.5 -5q27 0 51 4.5t43 19.5t30 43t11 74q0 37 -12.5 64t-35.5 44.5t-55.5 27t-71.5 11.5l-38 2v66h37q36 0 61.5 14.5t42 37.5t24 50.5t7.5 53.5q0 50 -24 84.5t-71 34.5t-74.5 -28.5 t-37.5 -72.5h-36l-15 118q13 7 31 15t39 14.5t43.5 10.5t45.5 4q94 0 147 -42.5t53 -130.5q0 -32 -11 -61t-27.5 -52.5t-37 -40.5t-39.5 -25v-1q30 -5 58 -16.5t50 -32.5t35 -52.5t13 -77.5q0 -41 -21 -83.5t-55.5 -76.5t-77.5 -55.5t-87 -21.5z" />
<glyph horiz-adv-x="665" d="M20 0zM660 35q-8 -4 -22.5 -11t-33 -13.5t-39.5 -11.5t-40 -5q-13 0 -25.5 3.5t-22.5 12t-17 23t-8 37.5q-16 -15 -34 -29.5t-39.5 -26t-48 -19t-60.5 -7.5q-54 0 -85.5 12.5t-48 34.5t-21.5 52t-5 65v328h-90v49q13 3 31 7t36.5 7.5t37.5 5.5t36 2q21 0 29.5 -8t8.5 -28 v-241l3 -94q1 -24 3.5 -45.5t11.5 -38t26 -26t46 -9.5q42 0 80.5 21.5t78.5 53.5l4 136v208h-101v48q13 3 31.5 7t39 7.5t41 6t37.5 2.5q21 0 30 -8t9 -28v-242l3 -198h111z" />
<glyph horiz-adv-x="665" d="M20 0zM322 637q-33 0 -61.5 9t-49.5 24.5t-33 37.5t-12 48l98 26v-73q10 -15 24.5 -24t33.5 -9q20 0 35.5 9.5t22.5 23.5v73l98 -26q0 -26 -12 -48t-33 -37.5t-49.5 -24.5t-61.5 -9zM660 35q-8 -4 -22.5 -11t-33 -13.5t-39.5 -11.5t-40 -5q-13 0 -25.5 3.5t-22.5 12 t-17 23t-8 37.5q-16 -15 -34 -29.5t-39.5 -26t-48 -19t-60.5 -7.5q-54 0 -85.5 12.5t-48 34.5t-21.5 52t-5 65v328h-90v49q13 3 31 7t36.5 7.5t37.5 5.5t36 2q21 0 29.5 -8t8.5 -28v-241l3 -94q1 -24 3.5 -45.5t11.5 -38t26 -26t46 -9.5q42 0 80.5 21.5t78.5 53.5l4 136v208 h-101v48q13 3 31.5 7t39 7.5t41 6t37.5 2.5q21 0 30 -8t9 -28v-242l3 -198h111z" />
<glyph horiz-adv-x="594" d="M16 0zM28 0q-2 11 -3 22.5t0 21.5l53 21q17 7 26 27.5t9 37.5l4 143v421h-101v48q13 3 32 7t39.5 7.5t40.5 5.5t37 2q39 0 39 -39v-452l3 -149q1 -20 6.5 -37t23.5 -25l38 -17q0 -7 -1 -22t-4 -23h-242zM591 -12q-28 0 -55.5 2.5t-54.5 12.5t-52 27.5t-47 47.5l-163 206 l160 156q14 14 14 27q0 9 -4 17t-12 10l-43 16v14v11.5t2 10.5h198v-36l-213 -201l137 -176q16 -21 35.5 -38t38.5 -29.5t35.5 -20t26.5 -10.5z" />
<glyph horiz-adv-x="544" d="M12 0q-2 10 -2.5 21.5t0.5 19.5q6 5 13 10.5t15 14.5t16 22.5t16 33.5l169 424l69 22l169 -460q6 -17 21.5 -34t35.5 -28q0 -13 -2 -24l-4 -22h-210q-5 12 -4.5 25t2.5 19l46 20q22 10 14 32l-115 346l-120 -316q-4 -11 -3.5 -22.5t3.5 -21.5t7.5 -17t10.5 -9l28 -11 q0 -8 1 -21.5t-3 -23.5h-173z" />
<glyph horiz-adv-x="691" d="M30 0zM680 51v-10t-0.5 -14.5t-1.5 -15t-2 -11.5h-240q-2 11 -3 24.5t0 23.5l28 19q16 11 23 26t7 29l3 151v84q0 34 -3.5 58t-15 38.5t-34 21t-60.5 6.5q-24 0 -49 -5t-47.5 -12t-40 -14.5t-26.5 -13.5v-163l3 -182q0 -12 1.5 -17t11.5 -7l88 -16v-10t-0.5 -14.5 t-1.5 -15t-2 -11.5h-267q-2 11 -3 22.5t0 21.5l46 22q17 8 25.5 26t8.5 32l3 149v207h-101v50q13 3 32 7t39.5 7t40.5 5t37 2q21 0 29 -8t8 -28v-30q15 11 34.5 23.5t44 23.5t54.5 18t67 7q57 0 89.5 -13.5t49.5 -38t21.5 -58.5t4.5 -74v-100l4 -192q0 -9 2 -11t11 -4 l82 -15v0z" />
<glyph horiz-adv-x="1023" d="M29 0zM1012 52v-10t-0.5 -15t-1.5 -15.5t-2 -11.5h-246q-3 11 -4 25.5t0 24.5l36 20q10 5 18.5 18.5t9.5 35.5l3 148v85q0 34 -3 58t-14 38.5t-32.5 21t-59.5 6.5q-21 0 -43 -4t-43 -9.5t-38.5 -12.5t-29.5 -13q3 -32 3 -69v-100l3 -183q0 -12 3.5 -16.5t12.5 -6.5 l90 -15v-10t-0.5 -15t-1.5 -15.5t-2 -11.5h-251q-2 11 -3 24t-1 23l36 18q11 5 17 18.5t7 25.5l3 163v85q0 34 -2.5 58t-13 38.5t-31.5 21t-59 6.5q-24 0 -47.5 -5t-44.5 -12t-37 -14.5t-25 -13.5v-163l4 -176q0 -13 3 -20t12 -9l79 -15v-10.5t-0.5 -15.5t-1.5 -15.5 t-2 -11.5h-260q-3 9 -3.5 21.5t-0.5 22.5l42 18q14 6 26.5 22t12.5 40l2 149v207h-102v50q13 3 32 6.5t39.5 7t40.5 5.5t37 2q21 0 29.5 -8t8.5 -28v-30q15 11 33 23.5t41 23.5t51.5 18t65.5 7q67 0 99.5 -18.5t45.5 -51.5q15 11 34.5 23t44 22.5t54.5 17.5t66 7 q56 0 88.5 -13.5t48.5 -38t20 -58.5t4 -74v-100l4 -183q0 -14 3.5 -17.5t16.5 -5.5l76 -15v0z" />
<glyph horiz-adv-x="661" d="M652 -138l-65 -55l-31 5l21 190q-10 -4 -25 -6.5t-33 -2.5q-26 0 -45.5 16t-22.5 61q-15 -11 -33 -25.5t-39.5 -27t-48.5 -21t-61 -8.5q-54 0 -85.5 12.5t-48 34.5t-21.5 52t-5 65v328h-90v49q13 3 31 7t36.5 7.5t37.5 5.5t36 2q21 0 29.5 -8t8.5 -28v-241l3 -94 q1 -24 3.5 -45.5t11.5 -38t26 -26t46 -9.5q21 0 45 9t46.5 21.5t40.5 25t27 19.5l4 136v208h-101v48q13 3 31.5 7t39 7.5t41 6t37.5 2.5q21 0 30 -8t9 -28v-242l3 -218l111 -1v-192z" />
<glyph horiz-adv-x="1012" d="M269 -12q-54 0 -85.5 12.5t-48 34.5t-21.5 52t-5 65v328h-90v49q13 3 31 7t36.5 7.5t37.5 5.5t36 2q21 0 29.5 -8t8.5 -28l3 -335q1 -24 3.5 -45.5t11.5 -38t26 -26t46 -9.5q21 0 46.5 9t49.5 21.5t43.5 25t28.5 19.5l4 136v208h-101v48q13 3 31.5 7t39 7.5t41 6 t37.5 2.5q21 0 30 -8t9 -28v-335q1 -24 5 -45.5t15 -38t29.5 -26t47.5 -9.5q21 0 43.5 9t43.5 21.5t37.5 25t25.5 19.5l4 136v208h-101v48q13 3 31.5 7t39 7.5t41 6t37.5 2.5q21 0 30 -8t9 -28v-242l3 -198h111l7 -40q-8 -4 -22.5 -11t-33 -13.5t-39.5 -11.5t-40 -5 q-13 0 -25.5 3.5t-22.5 12t-17 23t-8 37.5q-15 -11 -31.5 -25.5t-36.5 -27t-45.5 -21t-59.5 -8.5q-75 0 -111 23.5t-47 63.5q-15 -11 -35.5 -26t-45 -28.5t-54 -23t-63.5 -9.5z" />
<glyph horiz-adv-x="1008" d="M547 180q1 -24 5 -45.5t15 -38t29.5 -26t47.5 -9.5q21 0 43.5 9t43.5 21.5t37.5 25t25.5 19.5l4 136v208h-101v48q13 3 31.5 7t39 7.5t41 6t37.5 2.5q21 0 30 -8t9 -28v-242l3 -218l111 -1v-192l-65 -55l-31 5l21 190q-9 -3 -18 -5q-8 -2 -17 -3t-18 -1q-31 0 -50.5 16 t-22.5 61q-15 -11 -31.5 -25.5t-36.5 -27t-45.5 -21t-59.5 -8.5q-75 0 -111 23.5t-47 63.5q-15 -11 -35.5 -26t-45 -28.5t-54 -23t-63.5 -9.5q-54 0 -85.5 12.5t-48 34.5t-21.5 52t-5 65v328h-90v49q13 3 31 7t36.5 7.5t37.5 5.5t36 2q21 0 29.5 -8t8.5 -28l3 -335 q1 -24 3.5 -45.5t11.5 -38t26 -26t46 -9.5q21 0 46.5 9t49.5 21.5t43.5 25t28.5 19.5l4 136v208h-101v48q13 3 31.5 7t39 7.5t41 6t37.5 2.5q21 0 30 -8t9 -28v-335z" />
<glyph horiz-adv-x="635" d="M20 546h279v-195q15 8 32 16.5t34.5 15.5t33.5 11.5t28 4.5q85 0 132 -46t47 -136q0 -33 -14 -72.5t-41.5 -73t-67.5 -56.5t-92 -23q-50 0 -84 12.5t-55 35t-30.5 54t-9.5 69.5v321l-65 -6q-23 -2 -37 -9t-23 -18.5t-14 -25.5t-9 -30q-3 -2 -8.5 -2.5t-12.5 -0.5t-13 0.5 t-10 1.5v152zM300 159q0 -48 26.5 -78t76.5 -30q32 1 53.5 13t34.5 32t18.5 46.5t5.5 58.5q0 24 -7 47.5t-20.5 42.5t-34 31t-47.5 12q-29 0 -53 -6t-53 -21v-148z" />
<glyph horiz-adv-x="536" d="M292 -7q-50 0 -84 12.5t-55 35t-30.5 54t-9.5 69.5v316h-103v50q16 4 36 8t40.5 7t40 4.5t35.5 1.5q38 0 38 -36v-164q15 8 32 16.5t34.5 15.5t33.5 11.5t28 4.5q85 0 132 -45.5t47 -135.5q0 -33 -14 -72.5t-41.5 -73t-67.5 -56.5t-92 -23zM304 52q32 1 53.5 13t34.5 32 t18.5 46.5t5.5 58.5q0 24 -7 47.5t-20.5 42t-34 30.5t-47.5 12q-29 0 -53 -6t-53 -21v-147q0 -48 26.5 -78t76.5 -30z" />
<glyph horiz-adv-x="862" d="M565 -7q-55 0 -98.5 15t-74.5 46.5t-48 81t-19 117.5h-127l3 -162q0 -12 1.5 -17t11.5 -7l78 -16v-10t-0.5 -14.5t-1.5 -15t-2 -11.5h-257q-2 11 -3 22.5t0 21.5l46 22q17 8 25.5 26t8.5 32l3 149v420h-101v48q13 3 32 7t39.5 7.5t40.5 5.5t37 2q39 0 39 -39v-410h131 q8 48 30 91.5t55 76.5t74 52.5t86 19.5q121 0 182.5 -68t61.5 -213q0 -55 -19.5 -105.5t-53.5 -89.5t-80.5 -62t-99.5 -23zM720 279q0 38 -5.5 75t-22 66.5t-47.5 48t-82 18.5q-46 0 -74 -20t-43 -51.5t-20 -71t-5 -78.5q0 -43 6.5 -79.5t24.5 -63t49 -41.5t80 -15 q45 0 72.5 18t42.5 47.5t19.5 67.5t4.5 79z" />
<glyph horiz-adv-x="495" d="M38 0zM472 394q-10 -2 -23 -2q-15 0 -21 3q-4 16 -9 30t-14 25t-23.5 18t-36.5 9l-135 7v-210l5 -181q0 -12 2.5 -18t12.5 -8l104 -16v-10t-0.5 -14.5t-1.5 -15t-2 -11.5h-287q-2 11 -3.5 22t0.5 22l46 22q17 8 25.5 26t8.5 32l3 149v161q0 14 -6 27t-23 20l-52 21 q-1 10 0 21.5t3 22.5h427v-152v0z" />
<glyph horiz-adv-x="576" d="M536 270q0 -59 -20.5 -109.5t-56 -87.5t-83.5 -58.5t-102 -21.5q-57 0 -100.5 18.5t-72.5 52t-43.5 79.5t-14.5 100q0 50 13.5 90t37 70.5t55 53t68.5 37.5q-22 14 -41.5 28.5t-33.5 31.5t-22.5 37.5t-8.5 46.5q0 28 18 54t45.5 46t59.5 31.5t60 11.5q58 0 92 -4t57 -4 q9 0 21.5 5.5t23.5 13.5q13 9 28 20q5 -4 10.5 -7.5t9.5 -7.5l9 -9l-75 -108q-54 13 -104.5 18t-92.5 5q-48 0 -68 -13.5t-20 -39.5q0 -22 26 -43t65 -44t84.5 -50t84.5 -62t65 -79.5t26 -101.5zM438 253q0 42 -15 73.5t-39.5 56.5t-55.5 44.5t-62 37.5q-63 -26 -95 -70.5 t-32 -123.5q0 -42 7 -79t24.5 -64t48 -43t78.5 -16q72 0 106.5 48.5t34.5 135.5z" />
<glyph horiz-adv-x="636" d="M11 0zM11 66h66q44 68 65 128q7 19 14.5 55.5t14.5 75.5t11.5 72t4.5 45q0 19 -6 26.5t-27 13.5l-46 13q0 3 0.5 10t1 15t1 15.5t1.5 10.5h470q2 -11 3 -25t1 -26l-62 -13q-14 -3 -19.5 -13t-5.5 -25v-228l5 -150h97v-218q-3 -1 -10 -1h-15h-16t-11 2q-3 13 -9.5 38.5 t-16.5 50.5t-24 43.5t-33 18.5h-300q-38 0 -57.5 -19t-28.5 -44t-12 -51t-6 -39q-3 -2 -10.5 -2h-15.5t-15 0.5t-10 0.5v220zM406 66l3 150v264h-156q-3 -40 -9 -84.5t-13 -86t-14.5 -76t-14.5 -55.5q-20 -60 -48 -112h252z" />
<glyph horiz-adv-x="709" d="M39 0zM576 272l3 -183q0 -13 4.5 -16.5t12.5 -5.5l87 -16v-10t-1 -14.5l-2 -15t-2 -11.5h-284q-3 22 -3 44l63 22q12 5 21.5 22.5t10.5 31.5l2 153v207h-278v-209l3 -180q0 -12 1.5 -17t11.5 -7l78 -16v-10t-0.5 -14.5t-1.5 -15t-2 -11.5h-257q-2 11 -3 22.5t0 21.5 l46 22q17 8 25.5 26t8.5 32l3 149v161q0 14 -6 27t-23 20l-52 21q-1 10 0 21.5t3 22.5h614q1 -4 2 -11.5t1.5 -15t0.5 -14.5v-10l-67 -14q-13 -3 -16.5 -16t-3.5 -25v-168z" />
<glyph horiz-adv-x="542" d="M24 0zM517 546v-152q-4 -1 -10 -1.5t-13 -0.5t-12.5 0.5t-8.5 2.5q-4 16 -9 30.5t-14 26t-23.5 19t-36.5 9.5h-76v-208l3 -183q0 -13 4.5 -16.5t12.5 -5.5l87 -16v-10t-1 -14.5l-2 -15t-2 -11.5h-284q-3 22 -3 44l63 22q12 5 21.5 22.5t10.5 31.5l3 152v208h-76 q-23 -2 -37 -9.5t-23 -19t-14 -26t-9 -30.5q-3 -2 -8.5 -2.5t-12.5 -0.5t-13 0.5t-10 1.5v152h493z" />
<glyph unicode="&#xb4;" d="M410 767q-50 -42 -103 -79.5t-108 -69.5l-29 43q101 76 179 167z" />
<glyph unicode="`" d="M231 828q78 -91 179 -167l-29 -43q-55 32 -108 69.5t-103 79.5z" />
<glyph unicode="&#x2c6;" d="M121 659q52 44 92.5 84.5t82.5 87.5q16 -20 36.5 -42.5t42.5 -45t43.5 -43t40.5 -35.5l-41 -43q-38 23 -71.5 51t-61.5 53q-23 -20 -56 -47.5t-75 -56.5z" />
<glyph unicode="&#xa8;" horiz-adv-x="540" d="M161 655q-5 0 -15 8t-20.5 18.5t-18.5 20.5t-8 15t8 15.5t18.5 21t20.5 18t15 7.5t15.5 -8t21 -18.5t18.5 -20.5t8 -15q0 -4 -7.5 -14t-18 -20.5t-21 -19t-16.5 -8.5zM379 655q-5 0 -15 8t-20.5 18.5t-18.5 20.5t-8 15t8 15.5t18.5 21t20.5 18t15 7.5t15.5 -8t21 -18.5 t18.5 -20.5t8 -15q0 -4 -7.5 -14t-18 -20.5t-21 -19t-16.5 -8.5z" />
<glyph unicode="&#x2dc;" d="M474 719q-8 -8 -18.5 -18t-25 -19t-32.5 -15.5t-40 -6.5q-15 0 -35.5 6.5t-41 15t-39.5 15t-31 6.5q-23 0 -41.5 -4.5t-36.5 -21.5l-27 33q7 8 17.5 19t24.5 21.5t32.5 17.5t41.5 7q18 0 41 -7t45 -15t41 -15t29 -7q16 0 28.5 3t21.5 7q11 4 19 11l27 -33v0z" />
<glyph unicode="&#x2da;" horiz-adv-x="680" d="M429 731q0 -25 -11 -43.5t-28 -31t-37.5 -19t-39.5 -6.5q-10 0 -30.5 2.5t-40.5 12.5t-35.5 30.5t-15.5 55.5q0 27 10 47t26.5 32.5t38 19t43.5 6.5q19 0 40 -4.5t39 -16.5t29.5 -32.5t11.5 -52.5zM367 733q0 26 -17 42.5t-41 16.5q-27 0 -41.5 -15t-14.5 -42 q0 -26 16.5 -43t41.5 -17q27 0 41.5 15.5t14.5 42.5z" />
<glyph unicode="&#xb8;" horiz-adv-x="453" d="M358 -168q0 -22 -11.5 -43.5t-30.5 -38.5t-44 -27.5t-51 -10.5q-25 0 -49 7t-47 23l35 62q20 -13 44.5 -20.5t46.5 -7.5q20 0 32.5 7.5t12.5 22.5q0 16 -11 27.5t-30 19t-43.5 13t-52.5 10.5l54 128h63l-41 -74q62 -14 92.5 -34.5t30.5 -63.5z" />
<glyph unicode="&#x2c7;" horiz-adv-x="497" d="M417 788q-52 -44 -92.5 -84.5t-82.5 -87.5q-17 20 -37.5 42.5t-42 45t-43 43t-40.5 35.5l41 43q38 -23 71.5 -51t61.5 -53q23 20 56 47.5t75 56.5l33 -37v0z" />
<glyph horiz-adv-x="844" d="M291 786q33 12 60.5 23t53.5 23.5t52 27.5t57 34l38 -75q-52 -27 -114.5 -46t-131.5 -33z" />
<glyph horiz-adv-x="808" d="M586 888q-28 -19 -50.5 -36.5t-43 -35t-39 -37t-39.5 -42.5q-33 40 -75 76t-85 66l38 47q75 -37 133 -84q25 18 55.5 39t75.5 45z" />
<glyph horiz-adv-x="808" d="M238 778q28 19 50.5 36.5t43 35t39 37t39.5 42.5q33 -40 75 -76t85 -66l-38 -47q-75 37 -133 84q-25 -18 -55.5 -39t-75.5 -45z" />
<glyph horiz-adv-x="821" d="M303 741q-5 0 -15 8t-20.5 18.5t-18.5 20.5t-8 15t8 15.5t18.5 21t20.5 18t15 7.5t15.5 -8t21 -18.5t18.5 -20.5t8 -15q0 -4 -7.5 -14t-18 -20.5t-21 -19t-16.5 -8.5zM531 741q-5 0 -15 8t-20.5 18.5t-18.5 20.5t-8 15t8 15.5t18.5 21t20.5 18t15 7.5t15.5 -8t21 -18.5 t18.5 -20.5t8 -15q0 -4 -7.5 -14t-18 -20.5t-21 -19t-16.5 -8.5z" />
<glyph horiz-adv-x="802" d="M516 740q-69 14 -131.5 33t-114.5 46l38 75q31 -19 57.5 -34t52 -27.5t53 -23.5t60.5 -23l-15 -46v0z" />
<glyph horiz-adv-x="812" d="M484 757q-15 0 -38.5 6.5t-48 15t-46.5 15t-34 6.5q-23 0 -41.5 -6t-36.5 -20l-27 33q7 8 17.5 19t24.5 21.5t32.5 17.5t41.5 7q18 0 44 -7t52 -15t48 -15t32 -7q16 0 28.5 3t21.5 7q11 4 19 11l27 -33q-8 -8 -18.5 -18t-25 -19t-32.5 -15.5t-40 -6.5z" />
<glyph horiz-adv-x="797" d="M532 847q0 -25 -11 -43.5t-28 -31t-37.5 -19t-39.5 -6.5q-10 0 -30.5 2.5t-40.5 12.5t-35.5 30.5t-15.5 55.5q0 27 10 47t26.5 32.5t38 19t43.5 6.5q19 0 40 -4.5t39 -16.5t29.5 -32.5t11.5 -52.5zM470 849q0 26 -17 42.5t-41 16.5q-27 0 -41.5 -15t-14.5 -42 q0 -26 16.5 -43t41.5 -17q27 0 41.5 15.5t14.5 42.5z" />
<glyph horiz-adv-x="849" d="M422 757q-33 0 -61.5 9t-49.5 24.5t-33 37.5t-12 48l98 26v-73q10 -15 24.5 -24t33.5 -9q20 0 35.5 9.5t22.5 23.5v73l98 -26q0 -26 -12 -48t-33 -37.5t-49.5 -24.5t-61.5 -9z" />
<glyph horiz-adv-x="459" d="M236 637q-33 0 -61.5 9t-49.5 24.5t-33 37.5t-12 48l98 26v-73q10 -15 24.5 -24t33.5 -9q20 0 35.5 9.5t22.5 23.5v73l98 -26q0 -26 -12 -48t-33 -37.5t-49.5 -24.5t-61.5 -9z" />
<glyph unicode="&#x30a;" horiz-adv-x="0" d="M-162 731q0 -25 -11 -43.5t-28 -31t-37.5 -19t-39.5 -6.5q-10 0 -30 2.5t-40.5 12.5t-35.5 30.5t-15 55.5q0 27 10 47t26.5 32.5t37.5 19t44 6.5q19 0 40 -4.5t38.5 -16.5t29 -32.5t11.5 -52.5zM-224 733q0 26 -16.5 42.5t-40.5 16.5q-27 0 -41.5 -15t-14.5 -42 q0 -26 16 -43t41 -17q27 0 41.5 15.5t14.5 42.5z" />
<glyph unicode="0" horiz-adv-x="608" d="M544 364q0 -79 -14 -147t-44 -118.5t-77 -79t-113 -28.5q-71 0 -115.5 26t-70.5 72.5t-35.5 111t-9.5 141.5q0 71 13.5 138t43 118.5t76.5 83t115 31.5q75 0 120.5 -29t70 -77.5t32.5 -111.5t8 -131zM438 358q0 47 -5 97.5t-20 92t-42.5 68.5t-73.5 27q-47 0 -73 -27.5 t-39.5 -71t-16.5 -96t-3 -102.5q0 -54 6 -105.5t22 -91t44.5 -64t73.5 -24.5q42 0 66.5 20t38 53.5t17.5 77t5 90.5v56z" />
<glyph unicode="1" horiz-adv-x="440" d="M423 53v-10.5t-0.5 -15.5t-1.5 -15.5t-2 -11.5h-362q-2 11 -3.5 26t-0.5 25l91 26q17 5 27.5 15.5t11.5 30.5l3 150v350h-148v47l239 56v-453l3 -152q0 -12 1 -19t4 -11t8.5 -6t15.5 -5l114 -27v0z" />
<glyph unicode="2" horiz-adv-x="528" d="M41 0l-11 65q5 6 31 30.5t61 61t74.5 82t73 93.5t55.5 95.5t22 88.5q0 62 -31.5 91t-90.5 29q-27 0 -47 -3t-36 -7.5t-29.5 -10t-27.5 -10.5l-26 58q9 6 25.5 15t39.5 17.5t53 15t67 6.5q60 0 100 -15.5t64 -41.5t34 -60.5t10 -71.5q0 -65 -27.5 -122.5t-72.5 -112 t-103.5 -108t-120.5 -110.5l357 9v-84h-444z" />
<glyph unicode="3" horiz-adv-x="502" d="M447 221q0 -49 -20.5 -91t-54 -73.5t-77.5 -49.5t-92 -18q-63 0 -105 10t-68 21l23 83q26 -11 61 -25.5t79 -14.5q73 0 112.5 27t39.5 94q0 70 -50.5 108t-133.5 44l-10 52q32 2 61.5 14t52 31.5t36 45.5t13.5 55q0 30 -8.5 50.5t-24 32.5t-36.5 17t-45 5 q-40 0 -67.5 -7.5t-48.5 -16.5l-23 53q22 15 60 32.5t95 17.5q43 0 79 -9t61.5 -28.5t39.5 -50.5t14 -74q0 -33 -14.5 -62t-34.5 -51.5t-41.5 -37t-34.5 -18.5q16 -3 43.5 -14t54 -31t45.5 -50t19 -71z" />
<glyph unicode="4" horiz-adv-x="562" d="M418 186l5 -186h-100l4 186h-275l-32 73l233 448h66l-221 -439h229v439h91v-439h113v-82h-113z" />
<glyph unicode="5" horiz-adv-x="522" d="M475 242q0 -56 -21 -102.5t-56 -80t-82 -52t-98 -18.5q-62 0 -108.5 11.5t-76.5 22.5l28 85q30 -14 74 -28t92 -14q34 0 61 6.5t46 22.5t29 41.5t10 64.5q0 55 -27.5 87.5t-70 49.5t-94 22t-100.5 6l30 341h344l-7 -93l-268 15l-16 -180q57 -3 112.5 -17t99.5 -39 t71.5 -62.5t27.5 -88.5z" />
<glyph unicode="6" horiz-adv-x="573" d="M533 244q0 -51 -16.5 -98t-47.5 -82t-74.5 -56t-97.5 -21q-75 0 -121.5 24t-72 66t-34.5 99.5t-9 123.5q0 70 19 144.5t58 135.5t98.5 100.5t140.5 39.5q26 0 51.5 -3t49.5 -12l-20 -79q-20 6 -38.5 9t-39.5 3q-75 0 -119.5 -31t-67.5 -80.5t-30 -110.5t-7 -121 q0 -38 6.5 -81t24.5 -80t48.5 -61t78.5 -24q35 0 58.5 14.5t37 38t19 53t5.5 59.5q0 72 -34 110t-106 38q-33 0 -66 -6l-8 58q29 8 56 14.5t57 6.5q91 0 146 -48.5t55 -142.5z" />
<glyph unicode="7" horiz-adv-x="487" d="M132 -35l-80 33l330 626l-346 -6v89h409l31 -57z" />
<glyph unicode="8" horiz-adv-x="583" d="M527 194q0 -46 -19 -84.5t-52 -66t-78 -42.5t-98 -15q-50 0 -91.5 12.5t-71 36.5t-46 58.5t-16.5 79.5q0 33 11 61t30 51.5t44.5 41.5t54.5 31q-22 15 -41.5 32t-34 37.5t-23 45t-8.5 54.5t13.5 64t39.5 62t63.5 46.5t85.5 18.5q100 0 155 -43.5t55 -118.5 q0 -37 -10 -64.5t-28 -48t-43 -36.5t-55 -30q27 -14 56 -31t52.5 -39.5t39 -50.5t15.5 -62zM407 544q0 17 -5 36.5t-17.5 36.5t-35 28.5t-58.5 11.5q-56 0 -84.5 -32t-28.5 -80q0 -28 15.5 -51t38 -42t48.5 -33t47 -24q38 29 59 63.5t21 85.5zM424 179q0 27 -17.5 47.5 t-45.5 38.5t-63 35t-69 37q-34 -32 -57.5 -70t-23.5 -89q0 -26 9.5 -49.5t28 -42t44.5 -29.5t59 -11q69 0 102 37.5t33 95.5z" />
<glyph unicode="9" horiz-adv-x="573" d="M513 398q0 -70 -19 -143t-58 -132.5t-98.5 -97.5t-140.5 -38q-26 0 -51.5 3t-49.5 12l20 79q20 -6 38.5 -9t39.5 -3q75 0 119.5 31t67.5 80.5t30 110.5t7 121q0 38 -6.5 81t-24.5 80t-48.5 61t-78.5 24q-35 0 -58.5 -14.5t-37 -38t-19 -53t-5.5 -59.5q0 -72 34 -110 t106 -38q33 0 66 6l8 -58q-29 -8 -56 -14.5t-57 -6.5q-91 0 -146 52.5t-55 146.5q0 51 16.5 96.5t47.5 79.5t74.5 53.5t97.5 19.5q75 0 121.5 -25.5t72 -69t34.5 -102.5t9 -125z" />
<glyph unicode="&#x2122;" horiz-adv-x="862" d="M745 348l-40 250l-6 46l-12 -43l-80 -253h-69l-64 257l-8 35l-4 -37l-49 -255h-54l75 359h63l60 -233l21 -86l25 89l76 230h64l63 -359h-61zM373 652l-133 12v-177l4 -139h-58l3 139v177l-133 -12v55h317v-55z" />
<glyph unicode="&#xae;" horiz-adv-x="527" d="M490 532q0 -53 -17.5 -93.5t-48 -68t-71.5 -42t-88 -14.5q-38 0 -78.5 11t-74 36.5t-55 67t-21.5 103.5q0 53 17.5 94.5t48.5 70t72.5 43t89.5 14.5q41 0 81.5 -12t72.5 -38.5t52 -68.5t20 -103zM444 532q0 48 -15.5 82t-40.5 56.5t-57 33t-66 10.5q-37 0 -70 -10 t-57.5 -31.5t-39 -55.5t-14.5 -81q0 -59 20.5 -94.5t49.5 -55t61 -26t55 -6.5q37 0 69 11.5t55 34t36.5 55.5t13.5 77zM378 421q-23 0 -42.5 6t-33.5 21q-17 17 -31 37.5t-22 32.5q-5 -1 -9 -1h-15l2 -91h-50l2 93v145h86q36 0 57.5 -17t21.5 -55q0 -49 -46 -68 q7 -9 19 -24.5t24 -26.5q11 -12 20 -18t21 -11zM295 590q0 23 -10.5 32.5t-38.5 9.5h-21v-83h16q26 0 40 9t14 32z" />
<glyph unicode="&#xa9;" horiz-adv-x="918" d="M838 352q0 -87 -29 -155t-80 -114.5t-119.5 -70.5t-147.5 -24q-64 0 -131.5 18.5t-123 61t-91.5 112t-36 172.5q0 88 29.5 157t81 116.5t120.5 72t149 24.5q69 0 136.5 -20t121 -64t87 -114.5t33.5 -171.5zM784 352q0 85 -27.5 146.5t-72.5 101.5t-103 59t-119 19 q-66 0 -125 -18t-103.5 -57t-70.5 -99.5t-26 -145.5q0 -70 17 -121.5t45 -88t64 -59t73 -35.5t72 -17.5t62 -4.5q67 0 124.5 20.5t99.5 61t66 100.5t24 138zM601 160q-30 -10 -61.5 -13.5t-63.5 -3.5q-108 0 -166 52t-58 166q0 48 14.5 89.5t43 72t69.5 48t94 17.5 q37 0 63 -5t59 -19v-94q-5 -2 -14.5 -1.5t-17.5 1.5q-11 32 -31 52.5t-61 20.5q-33 0 -61.5 -10t-49.5 -31t-32.5 -54.5t-11.5 -79.5q0 -47 13 -80t36 -54t54 -30.5t68 -9.5q26 0 50.5 2.5t49.5 8.5z" />
<glyph horiz-adv-x="504" d="M42 104l72 70q-14 18 -23.5 46t-9.5 58t8.5 58t23.5 46l-71 71l33 32l70 -70q21 14 49 24t56 10t55 -7.5t50 -24.5l69 70l34 -35l-70 -70q17 -18 24.5 -46t7.5 -58t-8.5 -59t-25.5 -47l70 -70l-31 -34l-70 70q-22 -13 -49.5 -21.5t-55.5 -8.5t-55 8t-48 24l-72 -70z M250 155q63 0 93 35.5t30 87.5q1 52 -30 88t-93 36q-61 0 -92.5 -36t-31.5 -88t32 -87.5t92 -35.5z" />
<glyph unicode="&#x20ac;" horiz-adv-x="605" d="M389 -12q-71 0 -120 19.5t-80 53.5t-47.5 80t-22.5 98h-84v53h80q-1 12 -1 23.5v23.5q0 19 1 38t4 38h-84v53h93q12 51 34 96t54 78.5t74 53t95 19.5q97 0 139 -23t42 -61q0 -10 -6 -21.5t-14 -22.5q-9 -12 -19 -24q-8 6 -20.5 19t-29.5 27t-39.5 24.5t-50.5 10.5 q-42 0 -71.5 -12t-49 -34.5t-31 -55t-16.5 -74.5h249v-53h-253q-1 -16 -1 -32.5v-33.5v-29t1 -28h253v-53h-248q7 -52 22.5 -86.5t38.5 -54.5t54.5 -28.5t71.5 -8.5q15 0 32.5 8.5t34 19.5t30.5 22t21 17q7 -6 15 -17t14.5 -24.5t11 -28t4.5 -25.5q-13 -8 -29 -15.5 t-37 -14.5t-49 -11t-66 -4z" />
<glyph unicode="$" horiz-adv-x="573" d="M43 0zM539 191q0 -51 -18 -87t-48 -59.5t-70 -36.5t-84 -17v-91h-59v89q-39 1 -75.5 6.5t-66.5 12.5t-50 14t-25 10l8 169q9 1 19 1q19 0 34 -3q4 -30 17.5 -55t34.5 -44t48 -30.5t56 -12.5v260q-36 13 -71.5 29.5t-63.5 39t-45.5 54.5t-17.5 77q0 44 16 78.5t43 59 t63 39t76 18.5v87h59v-85q60 -2 107.5 -11t69.5 -20v-139h-42q-10 47 -47 72t-88 30v-243q39 -15 78.5 -32t71 -41t51 -57.5t19.5 -81.5zM260 644q-51 -7 -80 -34.5t-29 -76.5q0 -40 31 -64t78 -43v218zM442 178q0 23 -9.5 40.5t-26.5 31.5t-39.5 25t-47.5 21v-236 q55 8 89 34.5t34 83.5z" />
<glyph unicode="&#xa2;" horiz-adv-x="496" d="M35 0zM456 588q0 -29 -12.5 -49t-34.5 -34q-9 11 -22.5 24.5t-30 25.5t-35.5 20t-39 8q-80 0 -118 -49.5t-38 -164.5q0 -47 7.5 -85.5t28 -66.5t56.5 -43.5t93 -15.5q16 0 34.5 2t36 4.5t32 6t23.5 6.5l17 -52q-13 -8 -50.5 -23t-96.5 -18v-184h-59v185q-61 4 -102 22.5 t-65.5 53.5t-35 87t-10.5 124q0 49 14.5 95t42 83.5t67 63.5t89.5 35v148h59v-144q19 0 44.5 -2.5t49 -9t39.5 -19.5t16 -34z" />
<glyph unicode="&#xa3;" horiz-adv-x="587" d="M548 79q-11 -17 -22.5 -31t-26.5 -25t-34.5 -17t-45.5 -6h-385q-3 14 -3.5 25.5t-0.5 23.5l60 17q21 6 28.5 21t10.5 44l24 225h-66v60h72l16 153q4 40 21 76t44 64t62 44.5t75 16.5q14 0 39.5 -1.5t50 -7.5t43 -18t18.5 -33q0 -23 -10.5 -39t-24.5 -26q-26 19 -54.5 38 t-51.5 19q-38 0 -60.5 -10.5t-34.5 -29t-17 -43.5t-8 -54l-15 -149h180v-60h-186l-28 -277l205 6q27 1 43.5 11t33.5 27l48 -44v0z" />
<glyph unicode="&#xa5;" horiz-adv-x="633" d="M45 0zM586 656q-13 -2 -26 -7t-21 -15q-24 -31 -49.5 -70t-49.5 -78.5t-45 -76t-37 -61.5h208v-53h-211v-71l1 -34h210v-53h-208l7 -137h-115l6 137h-194v53h196l2 36v69h-198v53h196l-30 60t-36.5 70t-40.5 71.5t-42 64.5q-13 18 -27.5 27t-33.5 14l-3 35q32 10 62.5 17 t52.5 7q7 -9 19.5 -31.5t27.5 -52t31 -63t30.5 -65.5t26.5 -59.5t19 -43.5q15 26 37.5 69t47.5 89t50 88.5t43 68.5q7 0 20.5 -2t29 -4.5t31 -6.5t26.5 -9z" />
<glyph unicode="&#xa4;" horiz-adv-x="518" d="M50 146zM50 182l72 70q-14 18 -23.5 46t-9.5 58t8.5 58t23.5 46l-71 71l33 32l70 -70q21 14 49 24t56 10t55 -7.5t50 -24.5l69 70l34 -35l-70 -70q17 -18 24.5 -46t7.5 -58t-8.5 -59t-25.5 -47l70 -70l-31 -34l-70 70q-22 -13 -49.5 -21.5t-55.5 -8.5t-55 8t-48 24 l-72 -70zM258 233q63 0 93 35.5t30 87.5q1 52 -30 88t-93 36q-61 0 -92.5 -36t-31.5 -88t32 -87.5t92 -35.5z" />
<glyph horiz-adv-x="600" d="M549 191q0 -51 -18 -87t-48 -59.5t-70 -36.5t-84 -17v-91h-59v89q-39 1 -75.5 6.5t-66.5 12.5t-50 14t-25 10l8 169q9 1 19 1q19 0 34 -3q4 -30 17.5 -55t34.5 -44t48 -30.5t56 -12.5v260q-36 13 -71.5 29.5t-63.5 39t-45.5 54.5t-17.5 77q0 44 16 78.5t43 59t63 39 t76 18.5v87h59v-85q60 -2 107.5 -11t69.5 -20v-139h-42q-10 47 -47 72t-88 30v-243q39 -15 78.5 -32t71 -41t51 -57.5t19.5 -81.5zM270 644q-51 -7 -80 -34.5t-29 -76.5q0 -40 31 -64t78 -43v218zM452 178q0 23 -9.5 40.5t-26.5 31.5t-39.5 25t-47.5 21v-236q55 8 89 34.5 t34 83.5z" />
<glyph horiz-adv-x="600" d="M509 588q0 -29 -12.5 -49t-34.5 -34q-9 11 -22.5 24.5t-30 25.5t-35.5 20t-39 8q-80 0 -118 -49.5t-38 -164.5q0 -47 7.5 -85.5t28 -66.5t56.5 -43.5t93 -15.5q16 0 34.5 2t36 4.5t32 6t23.5 6.5l17 -52q-13 -8 -50.5 -23t-96.5 -18v-184h-59v185q-61 4 -102 22.5 t-65.5 53.5t-35 87t-10.5 124q0 49 14.5 95t42 83.5t67 63.5t89.5 35v148h59v-144q19 0 44.5 -2.5t49 -9t39.5 -19.5t16 -34z" />
<glyph horiz-adv-x="600" d="M570 656q-13 -2 -26 -7t-21 -15q-24 -31 -49.5 -70t-49.5 -78.5t-45 -76t-37 -61.5h208v-53h-211v-71l1 -34h210v-53h-208l7 -137h-115l6 137h-194v53h196l2 36v69h-198v53h196l-30 60t-36.5 70t-40.5 71.5t-42 64.5q-13 18 -27.5 27t-33.5 14l-3 35q32 10 62.5 17 t52.5 7q7 -9 19.5 -31.5t27.5 -52t31 -63t30.5 -65.5t26.5 -59.5t19 -43.5q15 26 37.5 69t47.5 89t50 88.5t43 68.5q7 0 20.5 -2t29 -4.5t31 -6.5t26.5 -9z" />
<glyph horiz-adv-x="600" d="M437 160l-16 -260h-65l15 260h-164l-15 -260h-65l15 260h-85v65h89l14 257h-103v64h105l13 217h65l-12 -217h164l12 217h66l-13 -217h87v-64h-90l-14 -257h104v-65h-107zM225 482l-13 -257h162l14 257h-163z" />
<glyph unicode="#" horiz-adv-x="571" d="M44 0zM424 160l-16 -260h-65l15 260h-164l-15 -260h-65l15 260h-85v65h89l14 257h-103v64h105l13 217h65l-12 -217h164l12 217h66l-13 -217h87v-64h-90l-14 -257h104v-65h-107zM212 482l-13 -257h162l14 257h-163z" />
<glyph unicode="@" horiz-adv-x="728" d="M46 0zM343 -36q-75 0 -130.5 24t-92.5 68t-55.5 105t-18.5 136q0 121 32 207.5t86.5 141t126.5 80t153 25.5q57 0 104.5 -16t81.5 -50t53 -87.5t19 -129.5q0 -78 -18.5 -132t-48.5 -87.5t-68.5 -48.5t-78.5 -15q-34 0 -55.5 16.5t-20.5 48.5q-11 -11 -25 -21.5t-29 -18.5 t-30.5 -13t-27.5 -5q-20 0 -37.5 6t-30.5 20t-20 38t-7 59q0 52 14.5 93.5t40.5 70.5t62 44.5t80 15.5q29 0 60.5 -7t47.5 -15l-25 -224q-5 -45 16 -45q15 0 39.5 6.5t47 29t39 66t16.5 116.5q0 67 -15.5 111.5t-42.5 71t-64 37.5t-80 11q-64 0 -124 -19t-106.5 -64.5 t-74.5 -120t-28 -185.5q0 -80 16.5 -134.5t48 -88t77 -48.5t103.5 -15q38 0 78 5.5t69 12.5l13 -50q-40 -17 -79.5 -21.5t-90.5 -4.5zM328 257q28 0 49.5 17.5t35.5 34.5l19 169q-15 5 -33 5q-36 0 -58.5 -13.5t-34.5 -36.5t-16.5 -53t-4.5 -62q0 -19 4.5 -31t11 -18.5 t14 -9t13.5 -2.5z" />
<glyph unicode="%" horiz-adv-x="727" d="M189 400q-30 0 -56.5 7.5t-46.5 25.5t-31.5 46.5t-11.5 70.5q0 39 12.5 69t33 50t47.5 30.5t56 10.5q30 0 57 -7.5t47.5 -25.5t33 -47.5t12.5 -72.5q0 -39 -12.5 -68t-33.5 -49t-49 -30t-58 -10zM189 453q39 0 62.5 28t23.5 76q0 46 -20.5 73.5t-62.5 27.5 q-34 0 -58 -25.5t-24 -82.5q0 -47 19 -72t60 -25zM539 -5q-30 0 -56.5 7.5t-46.5 25.5t-31.5 46.5t-11.5 70.5q0 39 12.5 69t33 50t47.5 30.5t56 10.5q30 0 57 -7.5t47.5 -25.5t33 -47.5t12.5 -72.5q0 -39 -12.5 -68t-33.5 -49t-49 -30t-58 -10zM539 48q39 0 62.5 28 t23.5 76q0 46 -20.5 73.5t-62.5 27.5q-34 0 -58 -25.5t-24 -82.5q0 -47 19 -72t60 -25zM70 104l530 529l44 -46l-530 -530z" />
<glyph unicode="&#x2030;" horiz-adv-x="1075" d="M194 400q-30 0 -56.5 7.5t-46.5 25.5t-31.5 46.5t-11.5 70.5q0 39 12.5 69t33 50t47.5 30.5t56 10.5q30 0 57 -7.5t47.5 -25.5t33 -47.5t12.5 -72.5q0 -39 -12.5 -68t-33.5 -49t-49 -30t-58 -10zM194 453q39 0 62.5 28t23.5 76q0 46 -20.5 73.5t-62.5 27.5 q-34 0 -58 -25.5t-24 -82.5q0 -47 19 -72t60 -25zM544 -5q-30 0 -56.5 7.5t-46.5 25.5t-31.5 46.5t-11.5 70.5q0 39 12.5 69t33 50t47.5 30.5t56 10.5q30 0 57 -7.5t47.5 -25.5t33 -47.5t12.5 -72.5q0 -39 -12.5 -68t-33.5 -49t-49 -30t-58 -10zM544 48q39 0 62.5 28 t23.5 76q0 46 -20.5 73.5t-62.5 27.5q-34 0 -58 -25.5t-24 -82.5q0 -47 19 -72t60 -25zM894 -5q-30 0 -56.5 7.5t-46.5 25.5t-31.5 46.5t-11.5 70.5q0 39 12.5 69t33 50t47.5 30.5t56 10.5q30 0 57 -7.5t47.5 -25.5t33 -47.5t12.5 -72.5q0 -39 -12.5 -68t-33.5 -49t-49 -30 t-58 -10zM894 48q39 0 62.5 28t23.5 76q0 46 -20.5 73.5t-62.5 27.5q-34 0 -58 -25.5t-24 -82.5q0 -47 19 -72t60 -25zM75 104l530 529l44 -46l-530 -530z" />
<glyph unicode="&#x2116;" horiz-adv-x="1238" d="M1182 473q0 -42 -15 -77.5t-41 -61.5t-60 -40.5t-71 -14.5q-82 0 -131 39t-49 127q0 42 15.5 77.5t41 61t59 40t69.5 14.5q37 0 70.5 -10t58 -30.5t39 -51.5t14.5 -73zM1095 460q0 55 -25.5 87t-73.5 32q-46 0 -71 -31.5t-25 -87.5q0 -61 25 -91t71 -30q99 0 99 121z M816 106v70h364v-70h-364zM743 651q-19 -5 -30 -24t-11 -45v-582l-73 -12l-417 602h-7l9 -80v-237l3 -160q0 -18 3.5 -25t20.5 -13l85 -29q0 -7 -1 -22.5t-4 -23.5h-281q-2 11 -3.5 22.5t-0.5 21.5l58 18q46 13 48 84l2 127v321q0 17 -7.5 31.5t-21.5 19.5l-61 21v20t2 21 h202l377 -543h7l-10 105v312q0 31 -10.5 44.5t-26.5 19.5l-63 21q0 7 0.5 20t3.5 21h262q2 -11 3 -20t1 -19z" />
<glyph horiz-adv-x="80" d="M0 0z" />
</font>
</defs>
</svg>
